BlackItalic.ufo
<glyph name="exclam" format="2">
  <advance width="733"/>
  <unicode hex="0021"/>
  <outline>
    <contour>
      <point x="543" y="536" type="line"/>
      <point x="890" y="1400" type="line"/>
      <point x="430" y="1400" type="line"/>
      <point x="203" y="536" type="line"/>
    </contour>
    <contour>
      <point x="229" y="-30" type="curve" smooth="yes"/>
      <point x="364" y="-30"/>
      <point x="497" y="70"/>
      <point x="497" y="239" type="curve" smooth="yes"/>
      <point x="497" y="348"/>
      <point x="405" y="416"/>
      <point x="291" y="416" type="curve" smooth="yes"/>
      <point x="156" y="416"/>
      <point x="20" y="320"/>
      <point x="20" y="151" type="curve" smooth="yes"/>
      <point x="20" y="42"/>
      <point x="109" y="-30"/>
    </contour>
  </outline>
</glyph>
<glyph name="numbersign" format="2">
  <advance width="1123"/>
  <unicode hex="0023"/>
  <outline>
    <contour>
      <point x="357" y="32" type="line"/>
      <point x="429" y="336" type="line"/>
      <point x="613" y="334" type="line"/>
      <point x="541" y="32" type="line"/>
      <point x="813" y="32" type="line"/>
      <point x="887" y="334" type="line"/>
      <point x="1049" y="334" type="line"/>
      <point x="1112" y="592" type="line"/>
      <point x="952" y="592" type="line"/>
      <point x="1000" y="802" type="line"/>
      <point x="1160" y="802" type="line"/>
      <point x="1220" y="1058" type="line"/>
      <point x="1062" y="1058" type="line"/>
      <point x="1136" y="1368" type="line"/>
      <point x="864" y="1368" type="line"/>
      <point x="790" y="1058" type="line"/>
      <point x="604" y="1058" type="line"/>
      <point x="678" y="1368" type="line"/>
      <point x="406" y="1368" type="line"/>
      <point x="332" y="1058" type="line"/>
      <point x="170" y="1058" type="line"/>
      <point x="108" y="802" type="line"/>
      <point x="270" y="802" type="line"/>
      <point x="220" y="592" type="line"/>
      <point x="60" y="592" type="line"/>
      <point x="-3" y="336" type="line"/>
      <point x="157" y="336" type="line"/>
      <point x="85" y="32" type="line"/>
    </contour>
    <contour>
      <point x="540" y="802" type="line"/>
      <point x="728" y="802" type="line"/>
      <point x="680" y="592" type="line"/>
      <point x="492" y="592" type="line"/>
    </contour>
  </outline>
</glyph>
<glyph name="dollar" format="2">
  <advance width="1296"/>
  <unicode hex="0024"/>
  <anchor x="844" y="1400" name="top"/>
  <anchor x="580" y="0" name="bottom"/>
  <outline>
    <contour>
      <point x="606" y="-30" type="qcurve"/>
      <point x="440" y="-30"/>
      <point x="145" y="79"/>
      <point x="56" y="175" type="qcurve"/>
      <point x="250" y="404" type="line"/>
      <point x="290" y="356"/>
      <point x="418" y="283"/>
      <point x="567" y="242"/>
      <point x="638" y="242" type="qcurve"/>
      <point x="736" y="242"/>
      <point x="858" y="318"/>
      <point x="858" y="390" type="qcurve"/>
      <point x="858" y="452"/>
      <point x="777" y="530"/>
      <point x="672" y="560" type="qcurve"/>
      <point x="558" y="579" type="line"/>
      <point x="395" y="642"/>
      <point x="248" y="835"/>
      <point x="248" y="950" type="qcurve"/>
      <point x="248" y="1095"/>
      <point x="401" y="1311"/>
      <point x="650" y="1430"/>
      <point x="794" y="1430" type="qcurve"/>
      <point x="956" y="1430"/>
      <point x="1226" y="1325"/>
      <point x="1298" y="1237" type="qcurve"/>
      <point x="1098" y="1014" type="line"/>
      <point x="1049" y="1079"/>
      <point x="868" y="1158"/>
      <point x="770" y="1158" type="qcurve"/>
      <point x="704" y="1158"/>
      <point x="603" y="1119"/>
      <point x="546" y="1049"/>
      <point x="546" y="1004" type="qcurve"/>
      <point x="546" y="937"/>
      <point x="620" y="863"/>
      <point x="686" y="842" type="qcurve"/>
      <point x="806" y="822" type="line"/>
      <point x="1006" y="758"/>
      <point x="1172" y="578"/>
      <point x="1172" y="458" type="qcurve"/>
      <point x="1172" y="309"/>
      <point x="1018" y="90"/>
      <point x="761" y="-30"/>
    </contour>
    <contour>
      <point x="382" y="-160" type="line"/>
      <point x="746" y="1560" type="line"/>
      <point x="1008" y="1560" type="line"/>
      <point x="644" y="-160" type="line"/>
    </contour>
  </outline>
</glyph>
<glyph name="percent" format="2">
  <advance width="2119"/>
  <unicode hex="0025"/>
  <outline>
    <contour>
      <point x="658" y="-40" type="line"/>
      <point x="484" y="96" type="line"/>
      <point x="1538" y="1440" type="line"/>
      <point x="1712" y="1304" type="line"/>
    </contour>
    <contour>
      <point x="518" y="606" type="qcurve"/>
      <point x="406" y="606"/>
      <point x="234" y="703"/>
      <point x="136" y="868"/>
      <point x="136" y="970" type="qcurve"/>
      <point x="136" y="1093"/>
      <point x="265" y="1298"/>
      <point x="476" y="1420"/>
      <point x="600" y="1420" type="qcurve"/>
      <point x="711" y="1420"/>
      <point x="882" y="1325"/>
      <point x="978" y="1163"/>
      <point x="978" y="1062" type="qcurve"/>
      <point x="978" y="938"/>
      <point x="852" y="731"/>
      <point x="643" y="606"/>
    </contour>
    <contour>
      <point x="544" y="852" type="qcurve"/>
      <point x="590" y="852"/>
      <point x="669" y="900"/>
      <point x="718" y="982"/>
      <point x="718" y="1034" type="qcurve"/>
      <point x="718" y="1096"/>
      <point x="638" y="1174"/>
      <point x="572" y="1174" type="qcurve"/>
      <point x="523" y="1174"/>
      <point x="444" y="1126"/>
      <point x="398" y="1044"/>
      <point x="398" y="994" type="qcurve"/>
      <point x="398" y="930"/>
      <point x="477" y="852"/>
    </contour>
    <contour>
      <point x="1598" y="-20" type="qcurve"/>
      <point x="1487" y="-20"/>
      <point x="1316" y="77"/>
      <point x="1218" y="242"/>
      <point x="1218" y="344" type="qcurve"/>
      <point x="1218" y="467"/>
      <point x="1345" y="672"/>
      <point x="1555" y="794"/>
      <point x="1680" y="794" type="qcurve"/>
      <point x="1792" y="794"/>
      <point x="1963" y="699"/>
      <point x="2060" y="535"/>
      <point x="2060" y="432" type="qcurve"/>
      <point x="2060" y="309"/>
      <point x="1932" y="104"/>
      <point x="1722" y="-20"/>
    </contour>
    <contour>
      <point x="1626" y="226" type="qcurve"/>
      <point x="1674" y="226"/>
      <point x="1753" y="276"/>
      <point x="1800" y="359"/>
      <point x="1800" y="408" type="qcurve"/>
      <point x="1800" y="471"/>
      <point x="1720" y="548"/>
      <point x="1654" y="548" type="qcurve"/>
      <point x="1604" y="548"/>
      <point x="1525" y="499"/>
      <point x="1480" y="417"/>
      <point x="1480" y="366" type="qcurve"/>
      <point x="1480" y="305"/>
      <point x="1557" y="226"/>
    </contour>
  </outline>
</glyph>
<glyph name="ampersand" format="2">
  <advance width="1564"/>
  <unicode hex="0026"/>
  <outline>
    <contour>
      <point x="468" y="-30" type="curve" smooth="yes"/>
      <point x="604" y="-30"/>
      <point x="759" y="14"/>
      <point x="885" y="95" type="curve"/>
      <point x="940" y="0" type="line"/>
      <point x="1344" y="0" type="line"/>
      <point x="1165" y="312" type="line"/>
      <point x="1308" y="422"/>
      <point x="1495" y="634"/>
      <point x="1568" y="772" type="curve"/>
      <point x="1281" y="894" type="line"/>
      <point x="1193" y="738"/>
      <point x="1115" y="647"/>
      <point x="1020" y="558" type="curve"/>
      <point x="919" y="719" type="line"/>
      <point x="1167" y="828"/>
      <point x="1280" y="956"/>
      <point x="1280" y="1134" type="curve" smooth="yes"/>
      <point x="1280" y="1309"/>
      <point x="1124" y="1430"/>
      <point x="897" y="1430" type="curve" smooth="yes"/>
      <point x="640" y="1430"/>
      <point x="413" y="1244"/>
      <point x="413" y="1004" type="curve" smooth="yes"/>
      <point x="413" y="948"/>
      <point x="424" y="889"/>
      <point x="446" y="829" type="curve"/>
      <point x="222" y="745"/>
      <point x="47" y="573"/>
      <point x="47" y="324" type="curve" smooth="yes"/>
      <point x="47" y="119"/>
      <point x="208" y="-30"/>
    </contour>
    <contour>
      <point x="555" y="286" type="curve" smooth="yes"/>
      <point x="467" y="286"/>
      <point x="410" y="329"/>
      <point x="410" y="393" type="curve" smooth="yes"/>
      <point x="410" y="470"/>
      <point x="492" y="561"/>
      <point x="579" y="595" type="curve"/>
      <point x="735" y="343" type="line"/>
      <point x="687" y="307"/>
      <point x="616" y="286"/>
    </contour>
    <contour>
      <point x="781" y="919" type="curve"/>
      <point x="753" y="958"/>
      <point x="740" y="1007"/>
      <point x="740" y="1044" type="curve" smooth="yes"/>
      <point x="740" y="1108"/>
      <point x="798" y="1152"/>
      <point x="863" y="1152" type="curve" smooth="yes"/>
      <point x="921" y="1152"/>
      <point x="954" y="1120"/>
      <point x="954" y="1070" type="curve" smooth="yes"/>
      <point x="954" y="997"/>
      <point x="878" y="943"/>
    </contour>
  </outline>
</glyph>
<glyph name="parenleft" format="2">
  <advance width="756"/>
  <unicode hex="0028"/>
  <outline>
    <contour>
      <point x="208" y="-230" type="line"/>
      <point x="156" y="-84"/>
      <point x="106" y="210"/>
      <point x="106" y="358" type="qcurve"/>
      <point x="106" y="587"/>
      <point x="219" y="1024"/>
      <point x="434" y="1429"/>
      <point x="586" y="1610" type="qcurve"/>
      <point x="894" y="1492" type="line"/>
      <point x="791" y="1382"/>
      <point x="628" y="1113"/>
      <point x="515" y="813"/>
      <point x="456" y="498"/>
      <point x="456" y="342" type="qcurve"/>
      <point x="456" y="219"/>
      <point x="493" y="-15"/>
      <point x="532" y="-122" type="qcurve"/>
    </contour>
  </outline>
</glyph>
<glyph name="parenright" format="2">
  <advance width="770"/>
  <unicode hex="0029"/>
  <outline>
    <contour>
      <point x="164" y="-230" type="line"/>
      <point x="545" y="171"/>
      <point x="774" y="671"/>
      <point x="774" y="1210" type="curve" smooth="yes"/>
      <point x="774" y="1342"/>
      <point x="770" y="1472"/>
      <point x="754" y="1610" type="curve"/>
      <point x="425" y="1504" type="line"/>
      <point x="427" y="1415"/>
      <point x="424" y="1330"/>
      <point x="424" y="1237" type="curve" smooth="yes"/>
      <point x="424" y="748"/>
      <point x="210" y="221"/>
      <point x="-141" y="-109" type="curve"/>
    </contour>
  </outline>
</glyph>
<glyph name="asterisk" format="2">
  <advance width="1226"/>
  <unicode hex="002A"/>
  <outline>
    <contour>
      <point x="653" y="651" type="line"/>
      <point x="709" y="370" type="line"/>
      <point x="1074" y="474" type="line"/>
      <point x="960" y="735" type="line"/>
      <point x="1245" y="710" type="line"/>
      <point x="1251" y="1087" type="line"/>
      <point x="965" y="1063" type="line"/>
      <point x="1087" y="1322" type="line"/>
      <point x="724" y="1444" type="line"/>
      <point x="662" y="1166" type="line"/>
      <point x="451" y="1356" type="line"/>
      <point x="222" y="1054" type="line"/>
      <point x="463" y="904" type="line"/>
      <point x="215" y="761" type="line"/>
      <point x="438" y="461" type="line"/>
    </contour>
  </outline>
</glyph>
<glyph name="plus" format="2">
  <advance width="1296"/>
  <unicode hex="002B"/>
  <outline>
    <contour>
      <point x="677" y="110" type="line"/>
      <point x="793" y="536" type="line"/>
      <point x="1233" y="536" type="line"/>
      <point x="1304" y="804" type="line"/>
      <point x="864" y="804" type="line"/>
      <point x="980" y="1230" type="line"/>
      <point x="700" y="1230" type="line"/>
      <point x="584" y="804" type="line"/>
      <point x="144" y="804" type="line"/>
      <point x="73" y="536" type="line"/>
      <point x="513" y="536" type="line"/>
      <point x="397" y="110" type="line"/>
    </contour>
  </outline>
</glyph>
<glyph name="comma" format="2">
  <advance width="614"/>
  <unicode hex="002C"/>
  <outline>
    <contour>
      <point x="-166" y="-396" type="line"/>
      <point x="114" y="-270"/>
      <point x="426" y="-76"/>
      <point x="426" y="201" type="curve" smooth="yes"/>
      <point x="426" y="333"/>
      <point x="337" y="416"/>
      <point x="197" y="416" type="curve" smooth="yes"/>
      <point x="55" y="416"/>
      <point x="-56" y="308"/>
      <point x="-56" y="175" type="curve" smooth="yes"/>
      <point x="-56" y="71"/>
      <point x="19" y="1"/>
      <point x="134" y="-11" type="curve"/>
      <point x="72" y="-100"/>
      <point x="-64" y="-171"/>
      <point x="-224" y="-238" type="curve"/>
    </contour>
  </outline>
</glyph>
<glyph name="hyphen" format="2">
  <advance width="800"/>
  <unicode hex="002D"/>
  <outline>
    <contour>
      <point x="666" y="392" type="line"/>
      <point x="785" y="742" type="line"/>
      <point x="165" y="742" type="line"/>
      <point x="46" y="392" type="line"/>
    </contour>
  </outline>
</glyph>
<glyph name="period" format="2">
  <advance width="614"/>
  <unicode hex="002E"/>
  <outline>
    <contour>
      <point x="169" y="-30" type="curve" smooth="yes"/>
      <point x="304" y="-30"/>
      <point x="437" y="67"/>
      <point x="437" y="233" type="curve" smooth="yes"/>
      <point x="437" y="348"/>
      <point x="351" y="416"/>
      <point x="231" y="416" type="curve" smooth="yes"/>
      <point x="96" y="416"/>
      <point x="-40" y="320"/>
      <point x="-40" y="151" type="curve" smooth="yes"/>
      <point x="-40" y="42"/>
      <point x="49" y="-30"/>
    </contour>
  </outline>
</glyph>
<glyph name="slash" format="2">
  <advance width="879"/>
  <unicode hex="002F"/>
  <outline>
    <contour>
      <point x="1219" y="1415" type="line"/>
      <point x="956" y="1610" type="line"/>
      <point x="-221" y="-35" type="line"/>
      <point x="42" y="-230" type="line"/>
    </contour>
  </outline>
</glyph>
<glyph name="zero" format="2">
  <advance width="1410"/>
  <unicode hex="0030"/>
  <outline>
    <contour>
      <point x="648" y="-30" type="curve" smooth="yes"/>
      <point x="1075" y="-30"/>
      <point x="1390" y="414"/>
      <point x="1390" y="887" type="curve" smooth="yes"/>
      <point x="1390" y="1196"/>
      <point x="1219" y="1430"/>
      <point x="860" y="1430" type="curve" smooth="yes"/>
      <point x="433" y="1430"/>
      <point x="118" y="986"/>
      <point x="118" y="513" type="curve" smooth="yes"/>
      <point x="118" y="204"/>
      <point x="293" y="-30"/>
    </contour>
    <contour>
      <point x="678" y="312" type="curve" smooth="yes"/>
      <point x="563" y="312"/>
      <point x="504" y="384"/>
      <point x="504" y="520" type="curve" smooth="yes"/>
      <point x="504" y="750"/>
      <point x="614" y="1088"/>
      <point x="830" y="1088" type="curve" smooth="yes"/>
      <point x="944" y="1088"/>
      <point x="1007" y="1014"/>
      <point x="1007" y="882" type="curve" smooth="yes"/>
      <point x="1007" y="665"/>
      <point x="899" y="312"/>
    </contour>
  </outline>
</glyph>
<glyph name="one" format="2">
  <advance width="1043"/>
  <unicode hex="0031"/>
  <outline>
    <contour>
      <point x="675" y="0" type="line"/>
      <point x="1140" y="1400" type="line"/>
      <point x="1020" y="1400" type="line"/>
      <point x="218" y="1160" type="line"/>
      <point x="305" y="857" type="line"/>
      <point x="625" y="949" type="line"/>
      <point x="307" y="0" type="line"/>
    </contour>
  </outline>
</glyph>
<glyph name="two" format="2">
  <advance width="1227"/>
  <unicode hex="0032"/>
  <outline>
    <contour>
      <point x="1000" y="0" type="line"/>
      <point x="1088" y="326" type="line"/>
      <point x="611" y="326" type="line"/>
      <point x="717" y="408" type="line" smooth="yes"/>
      <point x="991" y="616"/>
      <point x="1217" y="787"/>
      <point x="1217" y="1053" type="curve" smooth="yes"/>
      <point x="1217" y="1273"/>
      <point x="1046" y="1430"/>
      <point x="737" y="1430" type="curve" smooth="yes"/>
      <point x="577" y="1430"/>
      <point x="399" y="1378"/>
      <point x="253" y="1282" type="curve"/>
      <point x="313" y="972" type="line"/>
      <point x="422" y="1057"/>
      <point x="534" y="1096"/>
      <point x="649" y="1096" type="curve" smooth="yes"/>
      <point x="769" y="1096"/>
      <point x="835" y="1052"/>
      <point x="835" y="973" type="curve" smooth="yes"/>
      <point x="835" y="807"/>
      <point x="641" y="683"/>
      <point x="421" y="531" type="curve" smooth="yes"/>
      <point x="36" y="259" type="line"/>
      <point x="-32" y="0" type="line"/>
    </contour>
  </outline>
</glyph>
<glyph name="three" format="2">
  <advance width="1171"/>
  <unicode hex="0033"/>
  <outline>
    <contour>
      <point x="451" y="-33" type="curve" smooth="yes"/>
      <point x="763" y="-33"/>
      <point x="1043" y="165"/>
      <point x="1043" y="476" type="curve" smooth="yes"/>
      <point x="1043" y="656"/>
      <point x="928" y="771"/>
      <point x="798" y="810" type="curve"/>
      <point x="1165" y="1109" type="line"/>
      <point x="1241" y="1400" type="line"/>
      <point x="305" y="1400" type="line"/>
      <point x="219" y="1078" type="line"/>
      <point x="696" y="1078" type="line"/>
      <point x="325" y="821" type="line"/>
      <point x="358" y="589" type="line"/>
      <point x="401" y="597"/>
      <point x="445" y="600"/>
      <point x="487" y="600" type="curve" smooth="yes"/>
      <point x="600" y="600"/>
      <point x="676" y="554"/>
      <point x="676" y="468" type="curve" smooth="yes"/>
      <point x="676" y="367"/>
      <point x="586" y="301"/>
      <point x="466" y="301" type="curve" smooth="yes"/>
      <point x="333" y="301"/>
      <point x="204" y="365"/>
      <point x="151" y="458" type="curve"/>
      <point x="-36" y="166" type="line"/>
      <point x="31" y="57"/>
      <point x="239" y="-33"/>
    </contour>
  </outline>
</glyph>
<glyph name="four" format="2">
  <advance width="1206"/>
  <unicode hex="0034"/>
  <outline>
    <contour>
      <point x="820" y="0" type="line"/>
      <point x="901" y="246" type="line"/>
      <point x="1075" y="246" type="line"/>
      <point x="1182" y="564" type="line"/>
      <point x="1008" y="564" type="line"/>
      <point x="1089" y="812" type="line"/>
      <point x="761" y="812" type="line"/>
      <point x="680" y="564" type="line"/>
      <point x="471" y="564" type="line"/>
      <point x="1104" y="1400" type="line"/>
      <point x="687" y="1400" type="line"/>
      <point x="23" y="522" type="line"/>
      <point x="-71" y="246" type="line"/>
      <point x="573" y="246" type="line"/>
      <point x="492" y="0" type="line"/>
    </contour>
  </outline>
</glyph>
<glyph name="five" format="2">
  <advance width="1188"/>
  <unicode hex="0035"/>
  <outline>
    <contour>
      <point x="484" y="-30" type="qcurve"/>
      <point x="327" y="-30"/>
      <point x="60" y="68"/>
      <point x="-18" y="152" type="qcurve"/>
      <point x="148" y="444" type="line"/>
      <point x="205" y="369"/>
      <point x="385" y="304"/>
      <point x="488" y="304" type="qcurve"/>
      <point x="551" y="304"/>
      <point x="644" y="343"/>
      <point x="694" y="416"/>
      <point x="694" y="468" type="qcurve"/>
      <point x="694" y="507"/>
      <point x="647" y="565"/>
      <point x="556" y="598"/>
      <point x="490" y="598" type="qcurve"/>
      <point x="448" y="598"/>
      <point x="354" y="582"/>
      <point x="304" y="564" type="qcurve"/>
      <point x="188" y="738" type="line"/>
      <point x="402" y="1400" type="line"/>
      <point x="1232" y="1396" type="line"/>
      <point x="1158" y="1054" type="line"/>
      <point x="602" y="1054" type="line"/>
      <point x="546" y="894" type="line"/>
      <point x="560" y="896"/>
      <point x="590" y="898"/>
      <point x="606" y="898" type="qcurve"/>
      <point x="746" y="898"/>
      <point x="954" y="801"/>
      <point x="1068" y="621"/>
      <point x="1068" y="496" type="qcurve"/>
      <point x="1068" y="338"/>
      <point x="915" y="101"/>
      <point x="651" y="-30"/>
    </contour>
  </outline>
</glyph>
<glyph name="six" format="2">
  <advance width="1304"/>
  <unicode hex="0036"/>
  <outline>
    <contour>
      <point x="623" y="-30" type="qcurve"/>
      <point x="460" y="-30"/>
      <point x="220" y="95"/>
      <point x="88" y="331"/>
      <point x="88" y="495" type="qcurve"/>
      <point x="88" y="723"/>
      <point x="276" y="1092"/>
      <point x="605" y="1343"/>
      <point x="1032" y="1450"/>
      <point x="1270" y="1418" type="qcurve"/>
      <point x="1202" y="1092" type="line"/>
      <point x="1097" y="1099"/>
      <point x="889" y="1081"/>
      <point x="706" y="1025"/>
      <point x="569" y="924"/>
      <point x="534" y="847" type="qcurve"/>
      <point x="586" y="883"/>
      <point x="706" y="924"/>
      <point x="777" y="924" type="qcurve"/>
      <point x="906" y="924"/>
      <point x="1101" y="827"/>
      <point x="1211" y="647"/>
      <point x="1211" y="520" type="qcurve"/>
      <point x="1211" y="401"/>
      <point x="1121" y="200"/>
      <point x="960" y="52"/>
      <point x="746" y="-30"/>
    </contour>
    <contour>
      <point x="633" y="286" type="qcurve"/>
      <point x="688" y="286"/>
      <point x="779" y="332"/>
      <point x="833" y="414"/>
      <point x="833" y="468" type="qcurve"/>
      <point x="833" y="510"/>
      <point x="789" y="578"/>
      <point x="711" y="618"/>
      <point x="659" y="618" type="qcurve"/>
      <point x="604" y="618"/>
      <point x="512" y="572"/>
      <point x="457" y="491"/>
      <point x="457" y="438" type="qcurve"/>
      <point x="457" y="395"/>
      <point x="502" y="326"/>
      <point x="581" y="286"/>
    </contour>
  </outline>
</glyph>
<glyph name="seven" format="2">
  <advance width="1165"/>
  <unicode hex="0037"/>
  <outline>
    <contour>
      <point x="445" y="0" type="line"/>
      <point x="1259" y="1130" type="line"/>
      <point x="1330" y="1400" type="line"/>
      <point x="308" y="1400" type="line"/>
      <point x="212" y="1042" type="line"/>
      <point x="766" y="1042" type="line"/>
      <point x="0" y="0" type="line"/>
    </contour>
  </outline>
</glyph>
<glyph name="eight" format="2">
  <advance width="1244"/>
  <unicode hex="0038"/>
  <outline>
    <contour>
      <point x="525" y="-30" type="curve" smooth="yes"/>
      <point x="867" y="-30"/>
      <point x="1141" y="163"/>
      <point x="1141" y="438" type="curve"/>
      <point x="1140" y="547"/>
      <point x="1085" y="645"/>
      <point x="979" y="710" type="curve"/>
      <point x="1153" y="769"/>
      <point x="1268" y="915"/>
      <point x="1268" y="1073" type="curve"/>
      <point x="1269" y="1284"/>
      <point x="1077" y="1430"/>
      <point x="807" y="1430" type="curve" smooth="yes"/>
      <point x="484" y="1430"/>
      <point x="266" y="1246"/>
      <point x="265" y="1002" type="curve" smooth="yes"/>
      <point x="265" y="917"/>
      <point x="313" y="818"/>
      <point x="389" y="768" type="curve"/>
      <point x="191" y="715"/>
      <point x="32" y="542"/>
      <point x="33" y="344" type="curve"/>
      <point x="33" y="115"/>
      <point x="226" y="-30"/>
    </contour>
    <contour>
      <point x="576" y="276" type="curve" smooth="yes"/>
      <point x="479" y="276"/>
      <point x="412" y="337"/>
      <point x="413" y="415" type="curve" smooth="yes"/>
      <point x="415" y="515"/>
      <point x="498" y="598"/>
      <point x="611" y="598" type="curve" smooth="yes"/>
      <point x="717" y="598"/>
      <point x="777" y="544"/>
      <point x="777" y="463" type="curve" smooth="yes"/>
      <point x="777" y="359"/>
      <point x="696" y="276"/>
    </contour>
    <contour>
      <point x="754" y="908" type="curve" smooth="yes"/>
      <point x="669" y="908"/>
      <point x="613" y="955"/>
      <point x="613" y="1021" type="curve" smooth="yes"/>
      <point x="613" y="1104"/>
      <point x="685" y="1168"/>
      <point x="779" y="1168" type="curve" smooth="yes"/>
      <point x="856" y="1168"/>
      <point x="912" y="1122"/>
      <point x="912" y="1058" type="curve" smooth="yes"/>
      <point x="912" y="973"/>
      <point x="842" y="908"/>
    </contour>
  </outline>
</glyph>
<glyph name="nine" format="2">
  <advance width="1232"/>
  <unicode hex="0039"/>
  <outline>
    <contour>
      <point x="534" y="0" type="line"/>
      <point x="926" y="392" type="line" smooth="yes"/>
      <point x="1097" y="567"/>
      <point x="1298" y="764"/>
      <point x="1298" y="1010" type="curve" smooth="yes"/>
      <point x="1298" y="1246"/>
      <point x="1116" y="1430"/>
      <point x="818" y="1430" type="curve" smooth="yes"/>
      <point x="497" y="1430"/>
      <point x="186" y="1192"/>
      <point x="186" y="861" type="curve" smooth="yes"/>
      <point x="186" y="624"/>
      <point x="357" y="484"/>
      <point x="634" y="484" type="curve" smooth="yes"/>
      <point x="654" y="484"/>
      <point x="664" y="479"/>
      <point x="689" y="469" type="curve"/>
      <point x="718" y="608" type="line"/>
      <point x="98" y="0" type="line"/>
    </contour>
    <contour>
      <point x="718" y="756" type="curve" smooth="yes"/>
      <point x="625" y="756"/>
      <point x="564" y="802"/>
      <point x="564" y="894" type="curve" smooth="yes"/>
      <point x="564" y="1038"/>
      <point x="668" y="1118"/>
      <point x="772" y="1118" type="curve" smooth="yes"/>
      <point x="862" y="1118"/>
      <point x="927" y="1070"/>
      <point x="927" y="976" type="curve" smooth="yes"/>
      <point x="927" y="860"/>
      <point x="841" y="756"/>
    </contour>
  </outline>
</glyph>
<glyph name="less" format="2">
  <advance width="1296"/>
  <unicode hex="003C"/>
  <outline>
    <contour>
      <point x="1133" y="322" type="line"/>
      <point x="519" y="602" type="line"/>
      <point x="1408" y="927" type="line"/>
      <point x="1318" y="1180" type="line"/>
      <point x="149" y="764" type="line"/>
      <point x="62" y="494" type="line"/>
      <point x="1024" y="69" type="line"/>
    </contour>
  </outline>
</glyph>
<glyph name="equal" format="2">
  <advance width="1296"/>
  <unicode hex="003D"/>
  <outline>
    <contour>
      <point x="1317" y="782" type="line"/>
      <point x="1405" y="1050" type="line"/>
      <point x="245" y="1050" type="line"/>
      <point x="157" y="782" type="line"/>
    </contour>
    <contour>
      <point x="1155" y="290" type="line"/>
      <point x="1242" y="558" type="line"/>
      <point x="82" y="558" type="line"/>
      <point x="-5" y="290" type="line"/>
    </contour>
  </outline>
</glyph>
<glyph name="greater" format="2">
  <advance width="1296"/>
  <unicode hex="003E"/>
  <outline>
    <contour>
      <point x="1220" y="494" type="line"/>
      <point x="1308" y="764" type="line"/>
      <point x="346" y="1189" type="line"/>
      <point x="237" y="936" type="line"/>
      <point x="850" y="656" type="line"/>
      <point x="-38" y="331" type="line"/>
      <point x="51" y="78" type="line"/>
    </contour>
  </outline>
</glyph>
<glyph name="question" format="2">
  <advance width="1066"/>
  <unicode hex="003F"/>
  <outline>
    <contour>
      <point x="306" y="524" type="line"/>
      <point x="307" y="629"/>
      <point x="355" y="747"/>
      <point x="432" y="814"/>
      <point x="476" y="842" type="qcurve"/>
      <point x="562" y="896"/>
      <point x="624" y="949"/>
      <point x="624" y="982" type="qcurve"/>
      <point x="624" y="1018"/>
      <point x="556" y="1064"/>
      <point x="484" y="1064" type="qcurve"/>
      <point x="424" y="1064"/>
      <point x="308" y="1042"/>
      <point x="240" y="1010" type="qcurve"/>
      <point x="234" y="1342" type="line"/>
      <point x="280" y="1365"/>
      <point x="403" y="1405"/>
      <point x="547" y="1430"/>
      <point x="626" y="1430" type="qcurve"/>
      <point x="764" y="1430"/>
      <point x="981" y="1340"/>
      <point x="1106" y="1185"/>
      <point x="1106" y="1088" type="qcurve"/>
      <point x="1106" y="1005"/>
      <point x="1039" y="890"/>
      <point x="913" y="799"/>
      <point x="826" y="752" type="qcurve"/>
      <point x="776" y="725"/>
      <point x="712" y="667"/>
      <point x="673" y="586"/>
      <point x="662" y="524" type="qcurve"/>
    </contour>
    <contour>
      <point x="414" y="-30" type="qcurve"/>
      <point x="318" y="-30"/>
      <point x="200" y="76"/>
      <point x="200" y="170" type="qcurve"/>
      <point x="200" y="240"/>
      <point x="271" y="351"/>
      <point x="388" y="416"/>
      <point x="458" y="416" type="qcurve"/>
      <point x="556" y="416"/>
      <point x="672" y="309"/>
      <point x="672" y="214" type="qcurve"/>
      <point x="672" y="145"/>
      <point x="601" y="35"/>
      <point x="484" y="-30"/>
    </contour>
  </outline>
</glyph>
<glyph name="at" format="2">
  <advance width="1698"/>
  <unicode hex="0040"/>
  <outline>
    <contour>
      <point x="867" y="-234" type="qcurve"/>
      <point x="635" y="-234"/>
      <point x="281" y="-51"/>
      <point x="81" y="273"/>
      <point x="81" y="486" type="qcurve"/>
      <point x="81" y="649"/>
      <point x="201" y="925"/>
      <point x="418" y="1129"/>
      <point x="712" y="1242"/>
      <point x="885" y="1242" type="qcurve"/>
      <point x="1105" y="1242"/>
      <point x="1440" y="1073"/>
      <point x="1629" y="773"/>
      <point x="1629" y="576" type="qcurve"/>
      <point x="1629" y="460"/>
      <point x="1528" y="268"/>
      <point x="1358" y="154"/>
      <point x="1255" y="154" type="qcurve"/>
      <point x="1177" y="154"/>
      <point x="1062" y="210"/>
      <point x="1029" y="262" type="qcurve"/>
      <point x="974" y="205"/>
      <point x="859" y="154"/>
      <point x="785" y="154" type="qcurve"/>
      <point x="686" y="154"/>
      <point x="536" y="240"/>
      <point x="451" y="392"/>
      <point x="451" y="492" type="qcurve"/>
      <point x="451" y="600"/>
      <point x="544" y="769"/>
      <point x="708" y="866"/>
      <point x="813" y="866" type="qcurve"/>
      <point x="928" y="866"/>
      <point x="1023" y="788" type="qcurve"/>
      <point x="1025" y="840" type="line"/>
      <point x="1211" y="840" type="line"/>
      <point x="1189" y="450" type="line"/>
      <point x="1186" y="399"/>
      <point x="1230" y="346"/>
      <point x="1275" y="346" type="qcurve"/>
      <point x="1322" y="346"/>
      <point x="1387" y="399"/>
      <point x="1421" y="502"/>
      <point x="1421" y="576" type="qcurve"/>
      <point x="1421" y="718"/>
      <point x="1284" y="933"/>
      <point x="1040" y="1054"/>
      <point x="879" y="1054" type="qcurve"/>
      <point x="752" y="1054"/>
      <point x="537" y="968"/>
      <point x="377" y="813"/>
      <point x="289" y="604"/>
      <point x="289" y="480" type="qcurve"/>
      <point x="289" y="325"/>
      <point x="433" y="91"/>
      <point x="692" y="-40"/>
      <point x="863" y="-40" type="qcurve"/>
      <point x="953" y="-40"/>
      <point x="1124" y="-4"/>
      <point x="1280" y="65"/>
      <point x="1349" y="116" type="qcurve"/>
      <point x="1429" y="-64" type="line"/>
      <point x="1349" y="-119"/>
      <point x="1166" y="-195"/>
      <point x="969" y="-234"/>
    </contour>
    <contour>
      <point x="811" y="366" type="qcurve"/>
      <point x="876" y="366"/>
      <point x="953" y="453"/>
      <point x="953" y="528" type="qcurve"/>
      <point x="953" y="587"/>
      <point x="893" y="652"/>
      <point x="839" y="652" type="qcurve"/>
      <point x="776" y="652"/>
      <point x="699" y="564"/>
      <point x="699" y="490" type="qcurve"/>
      <point x="699" y="432"/>
      <point x="759" y="366"/>
    </contour>
  </outline>
</glyph>
<glyph name="A" format="2">
  <advance width="1502"/>
  <unicode hex="0041"/>
  <anchor x="944" y="1400" name="top"/>
  <anchor x="648" y="0" name="bottom"/>
  <outline>
    <contour>
      <point x="-110" y="0" type="line"/>
      <point x="706" y="1400" type="line"/>
      <point x="1184" y="1400" type="line"/>
      <point x="1390" y="0" type="line"/>
      <point x="944" y="0" type="line"/>
      <point x="918" y="250" type="line"/>
      <point x="486" y="250" type="line"/>
      <point x="354" y="0" type="line"/>
    </contour>
    <contour>
      <point x="642" y="584" type="line"/>
      <point x="904" y="584" type="line"/>
      <point x="858" y="974" type="line"/>
    </contour>
  </outline>
</glyph>
<glyph name="B" format="2">
  <advance width="1362"/>
  <unicode hex="0042"/>
  <outline>
    <contour>
      <point x="48" y="0" type="line"/>
      <point x="344" y="1400" type="line"/>
      <point x="874" y="1400" type="line"/>
      <point x="1098" y="1400"/>
      <point x="1346" y="1230"/>
      <point x="1346" y="1074" type="qcurve"/>
      <point x="1346" y="997"/>
      <point x="1280" y="875"/>
      <point x="1165" y="785"/>
      <point x="1090" y="756" type="qcurve"/>
      <point x="1176" y="711"/>
      <point x="1268" y="553"/>
      <point x="1268" y="452" type="qcurve"/>
      <point x="1268" y="310"/>
      <point x="1114" y="108"/>
      <point x="856" y="0"/>
      <point x="700" y="0" type="qcurve"/>
    </contour>
    <contour>
      <point x="512" y="290" type="line"/>
      <point x="676" y="290" type="line"/>
      <point x="754" y="290"/>
      <point x="844" y="380"/>
      <point x="844" y="450" type="qcurve"/>
      <point x="844" y="512"/>
      <point x="766" y="574"/>
      <point x="688" y="574" type="qcurve"/>
      <point x="574" y="574" type="line"/>
    </contour>
    <contour>
      <point x="630" y="842" type="line"/>
      <point x="802" y="842" type="line"/>
      <point x="845" y="842"/>
      <point x="908" y="886"/>
      <point x="942" y="955"/>
      <point x="942" y="994" type="qcurve"/>
      <point x="942" y="1053"/>
      <point x="864" y="1110"/>
      <point x="784" y="1110" type="qcurve"/>
      <point x="688" y="1110" type="line"/>
    </contour>
  </outline>
</glyph>
<glyph name="C" format="2">
  <advance width="1402"/>
  <unicode hex="0043"/>
  <anchor x="642" y="0" name="bottom"/>
  <anchor x="996" y="1400" name="top"/>
  <outline>
    <contour>
      <point x="779" y="-30" type="curve" smooth="yes"/>
      <point x="954" y="-30"/>
      <point x="1111" y="11"/>
      <point x="1237" y="82" type="curve"/>
      <point x="1162" y="442" type="line"/>
      <point x="1058" y="386"/>
      <point x="945" y="364"/>
      <point x="856" y="364" type="curve" smooth="yes"/>
      <point x="660" y="364"/>
      <point x="555" y="459"/>
      <point x="555" y="609" type="curve" smooth="yes"/>
      <point x="555" y="847"/>
      <point x="701" y="1036"/>
      <point x="927" y="1036" type="curve" smooth="yes"/>
      <point x="1062" y="1036"/>
      <point x="1175" y="987"/>
      <point x="1228" y="893" type="curve"/>
      <point x="1516" y="1194" type="line"/>
      <point x="1368" y="1370"/>
      <point x="1205" y="1430"/>
      <point x="970" y="1430" type="curve" smooth="yes"/>
      <point x="502" y="1430"/>
      <point x="122" y="1025"/>
      <point x="122" y="525" type="curve" smooth="yes"/>
      <point x="122" y="167"/>
      <point x="409" y="-30"/>
    </contour>
  </outline>
</glyph>
<glyph name="D" format="2">
  <advance width="1491"/>
  <unicode hex="0044"/>
  <anchor x="503" y="712" name="bar"/>
  <anchor x="1015" y="1400" name="top"/>
  <outline>
    <contour>
      <point x="639" y="0" type="line" smooth="yes"/>
      <point x="1124" y="0"/>
      <point x="1482" y="368"/>
      <point x="1482" y="838" type="curve" smooth="yes"/>
      <point x="1482" y="1219"/>
      <point x="1181" y="1400"/>
      <point x="777" y="1400" type="curve" smooth="yes"/>
      <point x="447" y="1400" type="line"/>
      <point x="-16" y="0" type="line"/>
    </contour>
    <contour>
      <point x="726" y="1024" type="line"/>
      <point x="751" y="1024" type="line" smooth="yes"/>
      <point x="935" y="1024"/>
      <point x="1055" y="945"/>
      <point x="1055" y="784" type="curve" smooth="yes"/>
      <point x="1055" y="561"/>
      <point x="922" y="376"/>
      <point x="679" y="376" type="curve" smooth="yes"/>
      <point x="513" y="376" type="line"/>
    </contour>
  </outline>
</glyph>
<glyph name="E" format="2">
  <advance width="1303"/>
  <unicode hex="0045"/>
  <anchor x="498" y="0" name="bottom"/>
  <anchor x="1030" y="0" name="ogonek"/>
  <anchor x="961" y="1400" name="top"/>
  <anchor x="331" y="1400" name="topleft"/>
  <outline>
    <contour>
      <point x="1030" y="0" type="line"/>
      <point x="1146" y="352" type="line"/>
      <point x="504" y="352" type="line"/>
      <point x="570" y="552" type="line"/>
      <point x="1090" y="552" type="line"/>
      <point x="1196" y="870" type="line"/>
      <point x="676" y="870" type="line"/>
      <point x="735" y="1052" type="line"/>
      <point x="1369" y="1052" type="line"/>
      <point x="1485" y="1400" type="line"/>
      <point x="447" y="1400" type="line"/>
      <point x="-16" y="0" type="line"/>
    </contour>
  </outline>
</glyph>
<glyph name="F" format="2">
  <advance width="1218"/>
  <unicode hex="0046"/>
  <outline>
    <contour>
      <point x="48" y="0" type="line"/>
      <point x="344" y="1400" type="line"/>
      <point x="1304" y="1400" type="line"/>
      <point x="1226" y="1032" type="line"/>
      <point x="670" y="1032" type="line"/>
      <point x="626" y="818" type="line"/>
      <point x="1120" y="818" type="line"/>
      <point x="1044" y="466" type="line"/>
      <point x="550" y="466" type="line"/>
      <point x="452" y="0" type="line"/>
    </contour>
  </outline>
</glyph>
<glyph name="G" format="2">
  <advance width="1523"/>
  <unicode hex="0047"/>
  <anchor x="950" y="1400" name="top"/>
  <anchor x="786" y="0" name="bottom"/>
  <outline>
    <contour>
      <point x="846" y="-30" type="qcurve"/>
      <point x="692" y="-30"/>
      <point x="425" y="59"/>
      <point x="223" y="228"/>
      <point x="110" y="467"/>
      <point x="110" y="618" type="qcurve"/>
      <point x="110" y="793"/>
      <point x="240" y="1089"/>
      <point x="473" y="1308"/>
      <point x="782" y="1430"/>
      <point x="960" y="1430" type="qcurve"/>
      <point x="1039" y="1430"/>
      <point x="1222" y="1404"/>
      <point x="1415" y="1330"/>
      <point x="1508" y="1256" type="qcurve"/>
      <point x="1286" y="962" type="line"/>
      <point x="1219" y="1016"/>
      <point x="1058" y="1068"/>
      <point x="956" y="1068" type="qcurve"/>
      <point x="857" y="1068"/>
      <point x="699" y="1006"/>
      <point x="587" y="892"/>
      <point x="528" y="736"/>
      <point x="528" y="642" type="qcurve"/>
      <point x="528" y="535"/>
      <point x="629" y="392"/>
      <point x="799" y="320"/>
      <point x="902" y="320" type="qcurve"/>
      <point x="925" y="320"/>
      <point x="970" y="324"/>
      <point x="994" y="328" type="qcurve"/>
      <point x="1036" y="522" type="line"/>
      <point x="770" y="522" type="line"/>
      <point x="838" y="838" type="line"/>
      <point x="1454" y="838" type="line"/>
      <point x="1284" y="44" type="line"/>
      <point x="1220" y="20"/>
      <point x="1069" y="-13"/>
      <point x="915" y="-30"/>
    </contour>
  </outline>
</glyph>
<glyph name="H" format="2">
  <advance width="1588"/>
  <unicode hex="0048"/>
  <anchor x="1085" y="1400" name="top"/>
  <anchor x="331" y="1400" name="topleft"/>
  <outline>
    <contour>
      <point x="388" y="0" type="line"/>
      <point x="566" y="538" type="line"/>
      <point x="1034" y="538" type="line"/>
      <point x="856" y="0" type="line"/>
      <point x="1260" y="0" type="line"/>
      <point x="1723" y="1400" type="line"/>
      <point x="1319" y="1400" type="line"/>
      <point x="1156" y="906" type="line"/>
      <point x="688" y="906" type="line"/>
      <point x="851" y="1400" type="line"/>
      <point x="447" y="1400" type="line"/>
      <point x="-16" y="0" type="line"/>
    </contour>
  </outline>
</glyph>
<glyph name="I" format="2">
  <advance width="720"/>
  <unicode hex="0049"/>
  <anchor x="546" y="1400" name="top"/>
  <anchor x="250" y="0" name="bottom"/>
  <outline>
    <contour>
      <point x="48" y="0" type="line"/>
      <point x="344" y="1400" type="line"/>
      <point x="748" y="1400" type="line"/>
      <point x="452" y="0" type="line"/>
    </contour>
  </outline>
</glyph>
<glyph name="J" format="2">
  <advance width="1094"/>
  <unicode hex="004A"/>
  <anchor x="924" y="1400" name="top"/>
  <outline>
    <contour>
      <point x="358" y="-30" type="qcurve"/>
      <point x="217" y="-30"/>
      <point x="-9" y="48"/>
      <point x="-86" y="114" type="qcurve"/>
      <point x="90" y="424" type="line"/>
      <point x="155" y="382"/>
      <point x="271" y="338"/>
      <point x="328" y="338" type="qcurve"/>
      <point x="405" y="338"/>
      <point x="516" y="433"/>
      <point x="538" y="538" type="qcurve"/>
      <point x="722" y="1400" type="line"/>
      <point x="1126" y="1400" type="line"/>
      <point x="924" y="448" type="line"/>
      <point x="892" y="301"/>
      <point x="742" y="86"/>
      <point x="511" y="-30"/>
    </contour>
  </outline>
</glyph>
<glyph name="K" format="2">
  <advance width="1526"/>
  <unicode hex="004B"/>
  <anchor x="684" y="0" name="bottom"/>
  <outline>
    <contour>
      <point x="48" y="0" type="line"/>
      <point x="344" y="1400" type="line"/>
      <point x="748" y="1400" type="line"/>
      <point x="644" y="914" type="line"/>
      <point x="1126" y="1400" type="line"/>
      <point x="1658" y="1400" type="line"/>
      <point x="988" y="736" type="line"/>
      <point x="1426" y="0" type="line"/>
      <point x="924" y="0" type="line"/>
      <point x="672" y="450" type="line"/>
      <point x="520" y="314" type="line"/>
      <point x="452" y="0" type="line"/>
    </contour>
  </outline>
</glyph>
<glyph name="L" format="2">
  <advance width="1147"/>
  <unicode hex="004C"/>
  <anchor x="452" y="0" name="bottom"/>
  <anchor x="866" y="1440" name="caron"/>
  <anchor x="649" y="1400" name="top"/>
  <outline>
    <contour>
      <point x="918" y="0" type="line"/>
      <point x="1040" y="368" type="line"/>
      <point x="510" y="368" type="line"/>
      <point x="851" y="1400" type="line"/>
      <point x="447" y="1400" type="line"/>
      <point x="-16" y="0" type="line"/>
    </contour>
  </outline>
</glyph>
<glyph name="M" format="2">
  <advance width="1908"/>
  <unicode hex="004D"/>
  <outline>
    <contour>
      <point x="354" y="0" type="line"/>
      <point x="646" y="911" type="line"/>
      <point x="564" y="913" type="line"/>
      <point x="730" y="238" type="line"/>
      <point x="994" y="238" type="line"/>
      <point x="1534" y="810" type="line"/>
      <point x="1483" y="855" type="line"/>
      <point x="1190" y="0" type="line"/>
      <point x="1580" y="0" type="line"/>
      <point x="2043" y="1400" type="line"/>
      <point x="1655" y="1400" type="line"/>
      <point x="894" y="574" type="line"/>
      <point x="1047" y="526" type="line"/>
      <point x="841" y="1400" type="line"/>
      <point x="447" y="1400" type="line"/>
      <point x="-16" y="0" type="line"/>
    </contour>
  </outline>
</glyph>
<glyph name="N" format="2">
  <advance width="1596"/>
  <unicode hex="004E"/>
  <anchor x="626" y="0" name="bottom"/>
  <anchor x="1089" y="1400" name="top"/>
  <outline>
    <contour>
      <point x="374" y="0" type="line"/>
      <point x="634" y="786" type="line"/>
      <point x="877" y="0" type="line"/>
      <point x="1268" y="0" type="line"/>
      <point x="1731" y="1400" type="line"/>
      <point x="1341" y="1400" type="line"/>
      <point x="1085" y="626" type="line"/>
      <point x="841" y="1400" type="line"/>
      <point x="447" y="1400" type="line"/>
      <point x="-16" y="0" type="line"/>
    </contour>
  </outline>
</glyph>
<glyph name="O" format="2">
  <advance width="1667"/>
  <unicode hex="004F"/>
  <anchor x="718" y="0" name="bottom"/>
  <anchor x="1472" y="1400" name="horn"/>
  <anchor x="987" y="0" name="ogonek"/>
  <anchor x="1068" y="1400" name="top"/>
  <anchor x="378" y="1400" name="topleft"/>
  <outline>
    <contour>
      <point x="787" y="-30" type="curve" smooth="yes"/>
      <point x="1254" y="-30"/>
      <point x="1659" y="358"/>
      <point x="1659" y="828" type="curve" smooth="yes"/>
      <point x="1659" y="1171"/>
      <point x="1407" y="1430"/>
      <point x="996" y="1430" type="curve" smooth="yes"/>
      <point x="530" y="1430"/>
      <point x="126" y="1044"/>
      <point x="126" y="566" type="curve" smooth="yes"/>
      <point x="126" y="220"/>
      <point x="380" y="-30"/>
    </contour>
    <contour>
      <point x="840" y="348" type="curve" smooth="yes"/>
      <point x="661" y="348"/>
      <point x="554" y="450"/>
      <point x="554" y="613" type="curve" smooth="yes"/>
      <point x="554" y="847"/>
      <point x="711" y="1052"/>
      <point x="946" y="1052" type="curve" smooth="yes"/>
      <point x="1124" y="1052"/>
      <point x="1232" y="950"/>
      <point x="1232" y="788" type="curve" smooth="yes"/>
      <point x="1232" y="553"/>
      <point x="1074" y="348"/>
    </contour>
  </outline>
</glyph>
<glyph name="P" format="2">
  <advance width="1364"/>
  <unicode hex="0050"/>
  <outline>
    <contour>
      <point x="48" y="0" type="line"/>
      <point x="344" y="1400" type="line"/>
      <point x="872" y="1400" type="line"/>
      <point x="1035" y="1400"/>
      <point x="1275" y="1296"/>
      <point x="1406" y="1104"/>
      <point x="1406" y="972" type="qcurve"/>
      <point x="1406" y="805"/>
      <point x="1250" y="563"/>
      <point x="975" y="432"/>
      <point x="798" y="432" type="qcurve"/>
      <point x="544" y="432" type="line"/>
      <point x="452" y="0" type="line"/>
    </contour>
    <contour>
      <point x="614" y="766" type="line"/>
      <point x="818" y="766" type="line"/>
      <point x="904" y="766"/>
      <point x="996" y="855"/>
      <point x="996" y="930" type="qcurve"/>
      <point x="996" y="1007"/>
      <point x="894" y="1056"/>
      <point x="810" y="1056" type="qcurve"/>
      <point x="676" y="1056" type="line"/>
    </contour>
  </outline>
</glyph>
<glyph name="Q" format="2">
  <advance width="1664"/>
  <unicode hex="0051"/>
  <outline>
    <contour>
      <point x="1138" y="0" type="line"/>
      <point x="1112" y="36" type="line"/>
      <point x="1033" y="5"/>
      <point x="869" y="-30"/>
      <point x="786" y="-30" type="qcurve"/>
      <point x="638" y="-30"/>
      <point x="389" y="65"/>
      <point x="208" y="239"/>
      <point x="108" y="475"/>
      <point x="108" y="616" type="qcurve"/>
      <point x="108" y="786"/>
      <point x="238" y="1081"/>
      <point x="467" y="1304"/>
      <point x="768" y="1430"/>
      <point x="938" y="1430" type="qcurve"/>
      <point x="1090" y="1430"/>
      <point x="1344" y="1333"/>
      <point x="1531" y="1158"/>
      <point x="1634" y="923"/>
      <point x="1634" y="784" type="qcurve"/>
      <point x="1634" y="624"/>
      <point x="1497" y="319"/>
      <point x="1378" y="208" type="qcurve"/>
      <point x="1531" y="0" type="line"/>
    </contour>
    <contour>
      <point x="824" y="306" type="qcurve"/>
      <point x="848" y="306"/>
      <point x="901" y="312"/>
      <point x="926" y="318" type="qcurve"/>
      <point x="726" y="606" type="line"/>
      <point x="1082" y="606" type="line"/>
      <point x="1166" y="490" type="line"/>
      <point x="1204" y="544"/>
      <point x="1246" y="687"/>
      <point x="1246" y="754" type="qcurve"/>
      <point x="1246" y="852"/>
      <point x="1160" y="998"/>
      <point x="1007" y="1078"/>
      <point x="908" y="1078" type="qcurve"/>
      <point x="819" y="1078"/>
      <point x="672" y="1010"/>
      <point x="567" y="889"/>
      <point x="510" y="728"/>
      <point x="510" y="636" type="qcurve"/>
      <point x="510" y="539"/>
      <point x="588" y="390"/>
      <point x="729" y="306"/>
    </contour>
  </outline>
</glyph>
<glyph name="R" format="2">
  <advance width="1414"/>
  <unicode hex="0052"/>
  <anchor x="856" y="1400" name="top"/>
  <anchor x="626" y="0" name="bottom"/>
  <outline>
    <contour>
      <point x="48" y="0" type="line"/>
      <point x="344" y="1400" type="line"/>
      <point x="874" y="1400" type="line"/>
      <point x="1039" y="1400"/>
      <point x="1273" y="1306"/>
      <point x="1398" y="1131"/>
      <point x="1398" y="1010" type="qcurve"/>
      <point x="1398" y="901"/>
      <point x="1305" y="717"/>
      <point x="1141" y="585"/>
      <point x="1034" y="554" type="qcurve"/>
      <point x="1270" y="0" type="line"/>
      <point x="808" y="0" type="line"/>
      <point x="632" y="482" type="line"/>
      <point x="554" y="482" type="line"/>
      <point x="452" y="0" type="line"/>
    </contour>
    <contour>
      <point x="622" y="800" type="line"/>
      <point x="808" y="800" type="line"/>
      <point x="886" y="800"/>
      <point x="982" y="879"/>
      <point x="982" y="954" type="qcurve"/>
      <point x="982" y="1023"/>
      <point x="885" y="1072"/>
      <point x="798" y="1072" type="qcurve"/>
      <point x="680" y="1072" type="line"/>
    </contour>
  </outline>
</glyph>
<glyph name="S" format="2">
  <advance width="1290"/>
  <unicode hex="0053"/>
  <anchor x="842" y="1400" name="top"/>
  <anchor x="578" y="0" name="bottom"/>
  <outline>
    <contour>
      <point x="608" y="-30" type="qcurve"/>
      <point x="429" y="-30"/>
      <point x="104" y="87"/>
      <point x="4" y="192" type="qcurve"/>
      <point x="240" y="474" type="line"/>
      <point x="279" y="425"/>
      <point x="414" y="349"/>
      <point x="571" y="306"/>
      <point x="642" y="306" type="qcurve"/>
      <point x="717" y="306"/>
      <point x="812" y="351"/>
      <point x="812" y="394" type="qcurve"/>
      <point x="812" y="430"/>
      <point x="740" y="487"/>
      <point x="650" y="518" type="qcurve"/>
      <point x="554" y="552" type="line"/>
      <point x="373" y="617"/>
      <point x="212" y="813"/>
      <point x="212" y="934" type="qcurve"/>
      <point x="212" y="1045"/>
      <point x="307" y="1227"/>
      <point x="471" y="1359"/>
      <point x="682" y="1430"/>
      <point x="798" y="1430" type="qcurve"/>
      <point x="977" y="1430"/>
      <point x="1277" y="1315"/>
      <point x="1356" y="1220" type="qcurve"/>
      <point x="1112" y="946" type="line"/>
      <point x="1081" y="988"/>
      <point x="975" y="1054"/>
      <point x="845" y="1092"/>
      <point x="778" y="1092" type="qcurve"/>
      <point x="728" y="1092"/>
      <point x="651" y="1068"/>
      <point x="608" y="1025"/>
      <point x="608" y="996" type="qcurve"/>
      <point x="608" y="975"/>
      <point x="638" y="942"/>
      <point x="707" y="908"/>
      <point x="766" y="886" type="qcurve"/>
      <point x="866" y="848" type="line"/>
      <point x="1048" y="779"/>
      <point x="1218" y="600"/>
      <point x="1218" y="474" type="qcurve"/>
      <point x="1218" y="321"/>
      <point x="1052" y="95"/>
      <point x="775" y="-30"/>
    </contour>
  </outline>
</glyph>
<glyph name="T" format="2">
  <advance width="1183"/>
  <unicode hex="0054"/>
  <anchor x="635" y="644" name="bar"/>
  <anchor x="420" y="0" name="bottom"/>
  <anchor x="883" y="1400" name="top"/>
  <outline>
    <contour>
      <point x="624" y="0" type="line"/>
      <point x="965" y="1032" type="line"/>
      <point x="1325" y="1032" type="line"/>
      <point x="1447" y="1400" type="line"/>
      <point x="321" y="1400" type="line"/>
      <point x="199" y="1032" type="line"/>
      <point x="559" y="1032" type="line"/>
      <point x="218" y="0" type="line"/>
    </contour>
  </outline>
</glyph>
<glyph name="U" format="2">
  <advance width="1545"/>
  <unicode hex="0055"/>
  <anchor x="959" y="1400" name="top"/>
  <anchor x="1581" y="1400" name="horn"/>
  <anchor x="697" y="0" name="bottom"/>
  <outline>
    <contour>
      <point x="713" y="-30" type="qcurve"/>
      <point x="511" y="-30"/>
      <point x="237" y="119"/>
      <point x="125" y="399"/>
      <point x="167" y="596" type="qcurve"/>
      <point x="337" y="1400" type="line"/>
      <point x="741" y="1400" type="line"/>
      <point x="565" y="574" type="line"/>
      <point x="541" y="462"/>
      <point x="630" y="348"/>
      <point x="745" y="348" type="qcurve"/>
      <point x="841" y="348"/>
      <point x="974" y="453"/>
      <point x="999" y="574" type="qcurve"/>
      <point x="1175" y="1400" type="line"/>
      <point x="1581" y="1400" type="line"/>
      <point x="1411" y="596" type="line"/>
      <point x="1370" y="402"/>
      <point x="1185" y="121"/>
      <point x="902" y="-30"/>
    </contour>
  </outline>
</glyph>
<glyph name="V" format="2">
  <advance width="1443"/>
  <unicode hex="0056"/>
  <outline>
    <contour>
      <point x="773" y="0" type="line"/>
      <point x="1755" y="1400" type="line"/>
      <point x="1273" y="1400" type="line"/>
      <point x="699" y="526" type="line"/>
      <point x="716" y="1400" type="line"/>
      <point x="273" y="1400" type="line"/>
      <point x="306" y="0" type="line"/>
    </contour>
  </outline>
</glyph>
<glyph name="W" format="2">
  <advance width="2092"/>
  <unicode hex="0057"/>
  <anchor x="1337" y="1400" name="top"/>
  <outline>
    <contour>
      <point x="652" y="0" type="line"/>
      <point x="1144" y="790" type="line"/>
      <point x="1095" y="0" type="line"/>
      <point x="1481" y="0" type="line"/>
      <point x="2369" y="1400" type="line"/>
      <point x="1938" y="1400" type="line"/>
      <point x="1497" y="646" type="line"/>
      <point x="1541" y="1400" type="line"/>
      <point x="1143" y="1400" type="line"/>
      <point x="655" y="634" type="line"/>
      <point x="717" y="1400" type="line"/>
      <point x="311" y="1400" type="line"/>
      <point x="270" y="0" type="line"/>
    </contour>
  </outline>
</glyph>
<glyph name="X" format="2">
  <advance width="1427"/>
  <unicode hex="0058"/>
  <outline>
    <contour>
      <point x="357" y="0" type="line"/>
      <point x="687" y="402" type="line"/>
      <point x="778" y="0" type="line"/>
      <point x="1241" y="0" type="line"/>
      <point x="1061" y="673" type="line"/>
      <point x="1710" y="1400" type="line"/>
      <point x="1197" y="1400" type="line"/>
      <point x="878" y="1023" type="line"/>
      <point x="791" y="1400" type="line"/>
      <point x="328" y="1400" type="line"/>
      <point x="506" y="741" type="line"/>
      <point x="-161" y="0" type="line"/>
    </contour>
  </outline>
</glyph>
<glyph name="Y" format="2">
  <advance width="1338"/>
  <unicode hex="0059"/>
  <anchor x="846" y="1400" name="top"/>
  <anchor x="552" y="0" name="bottom"/>
  <outline>
    <contour>
      <point x="348" y="0" type="line"/>
      <point x="468" y="572" type="line"/>
      <point x="168" y="1400" type="line"/>
      <point x="600" y="1400" type="line"/>
      <point x="746" y="964" type="line"/>
      <point x="1082" y="1400" type="line"/>
      <point x="1544" y="1400" type="line"/>
      <point x="874" y="564" type="line"/>
      <point x="754" y="0" type="line"/>
    </contour>
  </outline>
</glyph>
<glyph name="Z" format="2">
  <advance width="1187"/>
  <unicode hex="005A"/>
  <anchor x="889" y="1400" name="top"/>
  <outline>
    <contour>
      <point x="952" y="0" type="line"/>
      <point x="1074" y="368" type="line"/>
      <point x="539" y="368" type="line"/>
      <point x="1301" y="1060" type="line"/>
      <point x="1411" y="1400" type="line"/>
      <point x="385" y="1400" type="line"/>
      <point x="263" y="1032" type="line"/>
      <point x="771" y="1032" type="line"/>
      <point x="8" y="339" type="line"/>
      <point x="-102" y="0" type="line"/>
    </contour>
  </outline>
</glyph>
<glyph name="bracketleft" format="2">
  <advance width="762"/>
  <unicode hex="005B"/>
  <outline>
    <contour>
      <point x="469" y="-220" type="line"/>
      <point x="542" y="46" type="line"/>
      <point x="342" y="46" type="line"/>
      <point x="686" y="1334" type="line"/>
      <point x="886" y="1334" type="line"/>
      <point x="960" y="1600" type="line"/>
      <point x="444" y="1600" type="line"/>
      <point x="-47" y="-220" type="line"/>
    </contour>
  </outline>
</glyph>
<glyph name="backslash" format="2">
  <advance width="1023"/>
  <unicode hex="005C"/>
  <outline>
    <contour>
      <point x="828" y="-195" type="line"/>
      <point x="683" y="1610" type="line"/>
      <point x="314" y="1581" type="line"/>
      <point x="459" y="-230" type="line"/>
    </contour>
  </outline>
</glyph>
<glyph name="bracketright" format="2">
  <advance width="770"/>
  <unicode hex="005D"/>
  <outline>
    <contour>
      <point x="976" y="1600" type="line"/>
      <point x="460" y="1600" type="line"/>
      <point x="372" y="1334" type="line"/>
      <point x="572" y="1334" type="line"/>
      <point x="141" y="46" type="line"/>
      <point x="-59" y="46" type="line"/>
      <point x="-143" y="-220" type="line"/>
      <point x="373" y="-220" type="line"/>
    </contour>
  </outline>
</glyph>
<glyph name="asciicircum" format="2">
  <advance width="1296"/>
  <unicode hex="005E"/>
  <outline>
    <contour>
      <point x="580" y="782" type="line"/>
      <point x="879" y="1125" type="line"/>
      <point x="938" y="782" type="line"/>
      <point x="1254" y="782" type="line"/>
      <point x="1130" y="1400" type="line"/>
      <point x="769" y="1400" type="line"/>
      <point x="218" y="782" type="line"/>
    </contour>
  </outline>
</glyph>
<glyph name="a" format="2">
  <advance width="1217"/>
  <unicode hex="0061"/>
  <anchor x="446" y="0" name="bottom"/>
  <anchor x="964" y="0" name="ogonek"/>
  <anchor x="721" y="1040" name="top"/>
  <outline>
    <contour>
      <point x="330" y="-27" type="curve" smooth="yes"/>
      <point x="464" y="-27"/>
      <point x="582" y="21"/>
      <point x="646" y="102" type="curve"/>
      <point x="621" y="0" type="line"/>
      <point x="964" y="0" type="line"/>
      <point x="1110" y="547" type="line" smooth="yes"/>
      <point x="1191" y="855"/>
      <point x="1040" y="1080"/>
      <point x="645" y="1080" type="curve" smooth="yes"/>
      <point x="477" y="1080"/>
      <point x="335" y="1047"/>
      <point x="218" y="976" type="curve"/>
      <point x="264" y="706" type="line"/>
      <point x="327" y="751"/>
      <point x="442" y="783"/>
      <point x="540" y="783" type="curve" smooth="yes"/>
      <point x="703" y="783"/>
      <point x="778" y="735"/>
      <point x="746" y="614" type="curve" smooth="yes"/>
      <point x="687" y="402" type="line" smooth="yes"/>
      <point x="659" y="306"/>
      <point x="589" y="250"/>
      <point x="482" y="250" type="curve" smooth="yes"/>
      <point x="412" y="250"/>
      <point x="372" y="276"/>
      <point x="372" y="320" type="curve" smooth="yes"/>
      <point x="372" y="410"/>
      <point x="542" y="453"/>
      <point x="739" y="425" type="curve"/>
      <point x="803" y="648" type="line"/>
      <point x="304" y="691"/>
      <point x="0" y="559"/>
      <point x="0" y="280" type="curve" smooth="yes"/>
      <point x="0" y="94"/>
      <point x="123" y="-27"/>
    </contour>
  </outline>
</glyph>
<glyph name="b" format="2">
  <advance width="1373"/>
  <unicode hex="0062"/>
  <outline>
    <contour>
      <point x="745" y="-30" type="qcurve"/>
      <point x="645" y="-30"/>
      <point x="475" y="32"/>
      <point x="361" y="143"/>
      <point x="345" y="216" type="qcurve"/>
      <point x="419" y="280" type="line"/>
      <point x="359" y="0" type="line"/>
      <point x="19" y="0" type="line"/>
      <point x="325" y="1440" type="line"/>
      <point x="723" y="1440" type="line"/>
      <point x="589" y="808" type="line"/>
      <point x="515" y="918" type="line"/>
      <point x="595" y="998"/>
      <point x="754" y="1070"/>
      <point x="851" y="1070" type="qcurve"/>
      <point x="995" y="1070"/>
      <point x="1207" y="947"/>
      <point x="1323" y="733"/>
      <point x="1323" y="596" type="qcurve"/>
      <point x="1323" y="467"/>
      <point x="1238" y="240"/>
      <point x="1082" y="68"/>
      <point x="871" y="-30"/>
    </contour>
    <contour>
      <point x="707" y="310" type="qcurve"/>
      <point x="775" y="310"/>
      <point x="876" y="380"/>
      <point x="931" y="492"/>
      <point x="931" y="556" type="qcurve"/>
      <point x="931" y="610"/>
      <point x="884" y="688"/>
      <point x="802" y="730"/>
      <point x="749" y="730" type="qcurve"/>
      <point x="680" y="730"/>
      <point x="580" y="662"/>
      <point x="525" y="552"/>
      <point x="525" y="490" type="qcurve"/>
      <point x="525" y="435"/>
      <point x="572" y="354"/>
      <point x="654" y="310"/>
    </contour>
  </outline>
</glyph>
<glyph name="c" format="2">
  <advance width="1128"/>
  <unicode hex="0063"/>
  <anchor x="696" y="1040" name="top"/>
  <anchor x="516" y="0" name="bottom"/>
  <outline>
    <contour>
      <point x="590" y="-30" type="qcurve"/>
      <point x="430" y="-30"/>
      <point x="187" y="97"/>
      <point x="50" y="319"/>
      <point x="50" y="460" type="qcurve"/>
      <point x="50" y="588"/>
      <point x="153" y="810"/>
      <point x="335" y="977"/>
      <point x="570" y="1070"/>
      <point x="702" y="1070" type="qcurve"/>
      <point x="836" y="1070"/>
      <point x="1064" y="986"/>
      <point x="1146" y="906" type="qcurve"/>
      <point x="926" y="628" type="line"/>
      <point x="880" y="682"/>
      <point x="760" y="730"/>
      <point x="692" y="730" type="qcurve"/>
      <point x="615" y="730"/>
      <point x="506" y="668"/>
      <point x="448" y="564"/>
      <point x="448" y="499" type="qcurve"/>
      <point x="448" y="407"/>
      <point x="561" y="310"/>
      <point x="664" y="310" type="qcurve"/>
      <point x="729" y="310"/>
      <point x="853" y="356"/>
      <point x="916" y="402" type="qcurve"/>
      <point x="1008" y="84" type="line"/>
      <point x="917" y="30"/>
      <point x="697" y="-30"/>
    </contour>
  </outline>
</glyph>
<glyph name="d" format="2">
  <advance width="1371"/>
  <unicode hex="0064"/>
  <anchor x="1239" y="1224" name="bar"/>
  <anchor x="1549" y="1440" name="caron"/>
  <outline>
    <contour>
      <point x="483" y="-30" type="curve" smooth="yes"/>
      <point x="647" y="-30"/>
      <point x="769" y="42"/>
      <point x="847" y="167" type="curve"/>
      <point x="824" y="282" type="line"/>
      <point x="731" y="0" type="line"/>
      <point x="1071" y="0" type="line"/>
      <point x="1549" y="1440" type="line"/>
      <point x="1152" y="1440" type="line"/>
      <point x="942" y="808" type="line"/>
      <point x="1058" y="869" type="line"/>
      <point x="987" y="1009"/>
      <point x="834" y="1070"/>
      <point x="672" y="1070" type="curve" smooth="yes"/>
      <point x="312" y="1070"/>
      <point x="44" y="750"/>
      <point x="44" y="389" type="curve" smooth="yes"/>
      <point x="44" y="130"/>
      <point x="222" y="-30"/>
    </contour>
    <contour>
      <point x="610" y="310" type="curve" smooth="yes"/>
      <point x="511" y="310"/>
      <point x="438" y="371"/>
      <point x="438" y="470" type="curve" smooth="yes"/>
      <point x="438" y="597"/>
      <point x="530" y="730"/>
      <point x="679" y="730" type="curve" smooth="yes"/>
      <point x="780" y="730"/>
      <point x="851" y="666"/>
      <point x="851" y="567" type="curve" smooth="yes"/>
      <point x="851" y="443"/>
      <point x="760" y="310"/>
    </contour>
  </outline>
</glyph>
<glyph name="e" format="2">
  <advance width="1240"/>
  <unicode hex="0065"/>
  <anchor x="479" y="0" name="bottom"/>
  <anchor x="943" y="0" name="ogonek"/>
  <anchor x="761" y="1040" name="top"/>
  <outline>
    <contour>
      <point x="568" y="-30" type="curve" smooth="yes"/>
      <point x="709" y="-30"/>
      <point x="878" y="0"/>
      <point x="982" y="46" type="curve"/>
      <point x="947" y="331" type="line"/>
      <point x="846" y="289"/>
      <point x="752" y="270"/>
      <point x="651" y="270" type="curve" smooth="yes"/>
      <point x="527" y="270"/>
      <point x="396" y="304"/>
      <point x="397" y="408" type="curve"/>
      <point x="1157" y="408" type="line"/>
      <point x="1304" y="767"/>
      <point x="1111" y="1070"/>
      <point x="702" y="1070" type="curve" smooth="yes"/>
      <point x="332" y="1070"/>
      <point x="52" y="800"/>
      <point x="52" y="425" type="curve" smooth="yes"/>
      <point x="52" y="162"/>
      <point x="246" y="-30"/>
    </contour>
    <contour>
      <point x="489" y="668" type="line"/>
      <point x="504" y="743"/>
      <point x="578" y="790"/>
      <point x="674" y="790" type="curve" smooth="yes"/>
      <point x="769" y="790"/>
      <point x="837" y="756"/>
      <point x="837" y="668" type="curve"/>
    </contour>
  </outline>
</glyph>
<glyph name="f" format="2">
  <advance width="878"/>
  <unicode hex="0066"/>
  <outline>
    <contour>
      <point x="462" y="0" type="line"/>
      <point x="657" y="728" type="line"/>
      <point x="899" y="728" type="line"/>
      <point x="982" y="1040" type="line"/>
      <point x="740" y="1040" type="line"/>
      <point x="748" y="1064" type="line"/>
      <point x="763" y="1117"/>
      <point x="802" y="1144"/>
      <point x="860" y="1144" type="curve" smooth="yes"/>
      <point x="892" y="1144"/>
      <point x="931" y="1138"/>
      <point x="964" y="1111" type="curve"/>
      <point x="1094" y="1398" type="line"/>
      <point x="1005" y="1453"/>
      <point x="905" y="1470"/>
      <point x="808" y="1470" type="curve" smooth="yes"/>
      <point x="568" y="1470"/>
      <point x="419" y="1331"/>
      <point x="353" y="1086" type="curve" smooth="yes"/>
      <point x="62" y="0" type="line"/>
    </contour>
    <contour>
      <point x="289" y="728" type="line"/>
      <point x="370" y="1040" type="line"/>
      <point x="174" y="1040" type="line"/>
      <point x="93" y="728" type="line"/>
    </contour>
  </outline>
</glyph>
<glyph name="g" format="2">
  <advance width="1238"/>
  <unicode hex="0067"/>
  <anchor x="685" y="1040" name="top"/>
  <outline>
    <contour>
      <point x="390" y="-450" type="curve" smooth="yes"/>
      <point x="660" y="-450"/>
      <point x="978" y="-358"/>
      <point x="978" y="-106" type="curve" smooth="yes"/>
      <point x="978" y="11"/>
      <point x="871" y="110"/>
      <point x="633" y="171" type="curve" smooth="yes"/>
      <point x="461" y="218" type="line"/>
      <point x="422" y="233"/>
      <point x="371" y="238"/>
      <point x="371" y="273" type="curve" smooth="yes"/>
      <point x="371" y="313"/>
      <point x="424" y="330"/>
      <point x="530" y="328" type="curve"/>
      <point x="507" y="470" type="line"/>
      <point x="311" y="477"/>
      <point x="33" y="415"/>
      <point x="33" y="223" type="curve" smooth="yes"/>
      <point x="33" y="154"/>
      <point x="61" y="112"/>
      <point x="96" y="85" type="curve"/>
      <point x="-78" y="73"/>
      <point x="-208" y="-26"/>
      <point x="-208" y="-153" type="curve" smooth="yes"/>
      <point x="-208" y="-385"/>
      <point x="161" y="-450"/>
    </contour>
    <contour>
      <point x="400" y="-221" type="curve" smooth="yes"/>
      <point x="325" y="-221"/>
      <point x="149" y="-190"/>
      <point x="149" y="-103" type="curve" smooth="yes"/>
      <point x="149" y="-49"/>
      <point x="222" y="-31"/>
      <point x="298" y="-40" type="curve"/>
      <point x="494" y="-87" type="line"/>
      <point x="544" y="-101"/>
      <point x="598" y="-114"/>
      <point x="598" y="-154" type="curve" smooth="yes"/>
      <point x="598" y="-214"/>
      <point x="495" y="-221"/>
    </contour>
    <contour>
      <point x="587" y="320" type="curve" smooth="yes"/>
      <point x="852" y="320"/>
      <point x="1098" y="485"/>
      <point x="1098" y="730" type="curve" smooth="yes"/>
      <point x="1098" y="924"/>
      <point x="927" y="1070"/>
      <point x="640" y="1070" type="curve" smooth="yes"/>
      <point x="372" y="1070"/>
      <point x="133" y="910"/>
      <point x="133" y="659" type="curve" smooth="yes"/>
      <point x="133" y="470"/>
      <point x="307" y="320"/>
    </contour>
    <contour>
      <point x="609" y="580" type="curve" smooth="yes"/>
      <point x="521" y="580"/>
      <point x="462" y="625"/>
      <point x="462" y="690" type="curve" smooth="yes"/>
      <point x="462" y="758"/>
      <point x="537" y="812"/>
      <point x="624" y="812" type="curve" smooth="yes"/>
      <point x="706" y="812"/>
      <point x="765" y="767"/>
      <point x="765" y="709" type="curve" smooth="yes"/>
      <point x="765" y="637"/>
      <point x="697" y="580"/>
    </contour>
    <contour>
      <point x="1288" y="728" type="line"/>
      <point x="1391" y="1040" type="line"/>
      <point x="730" y="1000" type="line"/>
      <point x="786" y="748" type="line"/>
    </contour>
  </outline>
</glyph>
<glyph name="h" format="2">
  <advance width="1363"/>
  <unicode hex="0068"/>
  <anchor x="637" y="1224" name="bar"/>
  <anchor x="634" y="1440" name="top"/>
  <outline>
    <contour>
      <point x="353" y="0" type="line"/>
      <point x="531" y="534" type="line" smooth="yes"/>
      <point x="572" y="653"/>
      <point x="644" y="709"/>
      <point x="736" y="710" type="curve" smooth="yes"/>
      <point x="856" y="711"/>
      <point x="889" y="647"/>
      <point x="851" y="534" type="curve" smooth="yes"/>
      <point x="673" y="0" type="line"/>
      <point x="1073" y="0" type="line"/>
      <point x="1289" y="646" type="line"/>
      <point x="1364" y="905"/>
      <point x="1208" y="1070"/>
      <point x="995" y="1070" type="curve" smooth="yes"/>
      <point x="858" y="1070"/>
      <point x="735" y="1009"/>
      <point x="632" y="924" type="curve"/>
      <point x="619" y="794" type="line"/>
      <point x="834" y="1440" type="line"/>
      <point x="434" y="1440" type="line"/>
      <point x="-47" y="0" type="line"/>
    </contour>
  </outline>
</glyph>
<glyph name="k" format="2">
  <advance width="1269"/>
  <unicode hex="006B"/>
  <anchor x="497" y="0" name="bottom"/>
  <outline>
    <contour>
      <point x="353" y="0" type="line"/>
      <point x="444" y="267" type="line"/>
      <point x="535" y="344" type="line"/>
      <point x="638" y="0" type="line"/>
      <point x="1086" y="0" type="line"/>
      <point x="891" y="587" type="line"/>
      <point x="1406" y="1040" type="line"/>
      <point x="915" y="1040" type="line"/>
      <point x="609" y="778" type="line"/>
      <point x="834" y="1440" type="line"/>
      <point x="434" y="1440" type="line"/>
      <point x="-47" y="0" type="line"/>
    </contour>
  </outline>
</glyph>
<glyph name="l" format="2">
  <advance width="757"/>
  <unicode hex="006C"/>
  <anchor x="145" y="0" name="bottom"/>
  <anchor x="826" y="1440" name="caron"/>
  <anchor x="626" y="1440" name="top"/>
  <outline>
    <contour>
      <point x="371" y="-31" type="curve" smooth="yes"/>
      <point x="427" y="-31"/>
      <point x="496" y="-22"/>
      <point x="579" y="8" type="curve"/>
      <point x="606" y="316" type="line"/>
      <point x="582" y="309"/>
      <point x="560" y="306"/>
      <point x="543" y="306" type="curve" smooth="yes"/>
      <point x="480" y="306"/>
      <point x="456" y="351"/>
      <point x="481" y="410" type="curve"/>
      <point x="826" y="1440" type="line"/>
      <point x="426" y="1440" type="line"/>
      <point x="62" y="340" type="line"/>
      <point x="-1" y="217"/>
      <point x="61" y="-31"/>
    </contour>
  </outline>
</glyph>
<glyph name="m" format="2">
  <advance width="2023"/>
  <unicode hex="006D"/>
  <outline>
    <contour>
      <point x="386" y="0" type="line"/>
      <point x="543" y="586" type="line" smooth="yes"/>
      <point x="563" y="665"/>
      <point x="636" y="710"/>
      <point x="721" y="710" type="curve" smooth="yes"/>
      <point x="813" y="710"/>
      <point x="850" y="659"/>
      <point x="823" y="548" type="curve"/>
      <point x="676" y="0" type="line"/>
      <point x="1076" y="0" type="line"/>
      <point x="1233" y="586" type="line" smooth="yes"/>
      <point x="1253" y="665"/>
      <point x="1326" y="710"/>
      <point x="1411" y="710" type="curve" smooth="yes"/>
      <point x="1503" y="710"/>
      <point x="1540" y="659"/>
      <point x="1513" y="548" type="curve"/>
      <point x="1366" y="0" type="line"/>
      <point x="1766" y="0" type="line"/>
      <point x="1943" y="662" type="line" smooth="yes"/>
      <point x="2014" y="940"/>
      <point x="1876" y="1070"/>
      <point x="1654" y="1070" type="curve" smooth="yes"/>
      <point x="1490" y="1070"/>
      <point x="1335" y="1004"/>
      <point x="1249" y="866" type="curve"/>
      <point x="1239" y="987"/>
      <point x="1137" y="1070"/>
      <point x="989" y="1070" type="curve" smooth="yes"/>
      <point x="847" y="1070"/>
      <point x="684" y="991"/>
      <point x="619" y="847" type="curve"/>
      <point x="667" y="1040" type="line"/>
      <point x="267" y="1040" type="line"/>
      <point x="-14" y="0" type="line"/>
    </contour>
  </outline>
</glyph>
<glyph name="n" format="2">
  <advance width="1363"/>
  <unicode hex="006E"/>
  <anchor x="546" y="-0" name="bottom"/>
  <anchor x="829" y="1040" name="top"/>
  <outline>
    <contour>
      <point x="386" y="0" type="line"/>
      <point x="530" y="536" type="line" smooth="yes"/>
      <point x="560" y="653"/>
      <point x="634" y="710"/>
      <point x="743" y="710" type="curve" smooth="yes"/>
      <point x="841" y="710"/>
      <point x="886" y="664"/>
      <point x="850" y="536" type="curve" smooth="yes"/>
      <point x="706" y="0" type="line"/>
      <point x="1106" y="0" type="line"/>
      <point x="1283" y="662" type="line"/>
      <point x="1341" y="915"/>
      <point x="1184" y="1070"/>
      <point x="970" y="1070" type="curve" smooth="yes"/>
      <point x="843" y="1070"/>
      <point x="724" y="1017"/>
      <point x="629" y="904" type="curve"/>
      <point x="667" y="1040" type="line"/>
      <point x="267" y="1040" type="line"/>
      <point x="-14" y="0" type="line"/>
    </contour>
  </outline>
</glyph>
<glyph name="o" format="2">
  <advance width="1292"/>
  <unicode hex="006F"/>
  <anchor x="730" y="1040" name="top"/>
  <anchor x="1130" y="1040" name="horn"/>
  <anchor x="562" y="0" name="bottom"/>
  <outline>
    <contour>
      <point x="594" y="-30" type="qcurve"/>
      <point x="426" y="-30"/>
      <point x="182" y="104"/>
      <point x="50" y="328"/>
      <point x="50" y="464" type="qcurve"/>
      <point x="50" y="589"/>
      <point x="154" y="808"/>
      <point x="335" y="975"/>
      <point x="568" y="1070"/>
      <point x="698" y="1070" type="qcurve"/>
      <point x="865" y="1070"/>
      <point x="1109" y="937"/>
      <point x="1242" y="713"/>
      <point x="1242" y="578" type="qcurve"/>
      <point x="1242" y="453"/>
      <point x="1138" y="233"/>
      <point x="957" y="65"/>
      <point x="724" y="-30"/>
    </contour>
    <contour>
      <point x="624" y="310" type="qcurve"/>
      <point x="693" y="310"/>
      <point x="795" y="379"/>
      <point x="850" y="489"/>
      <point x="850" y="552" type="qcurve"/>
      <point x="850" y="607"/>
      <point x="804" y="687"/>
      <point x="722" y="730"/>
      <point x="668" y="730" type="qcurve"/>
      <point x="600" y="730"/>
      <point x="498" y="662"/>
      <point x="442" y="553"/>
      <point x="442" y="490" type="qcurve"/>
      <point x="442" y="435"/>
      <point x="489" y="354"/>
      <point x="571" y="310"/>
    </contour>
  </outline>
</glyph>
<glyph name="p" format="2">
  <advance width="1369"/>
  <unicode hex="0070"/>
  <outline>
    <contour>
      <point x="214" y="-420" type="line"/>
      <point x="379" y="90" type="line"/>
      <point x="460" y="9"/>
      <point x="575" y="-30"/>
      <point x="692" y="-30" type="curve" smooth="yes"/>
      <point x="1059" y="-30"/>
      <point x="1327" y="290"/>
      <point x="1327" y="658" type="curve" smooth="yes"/>
      <point x="1327" y="910"/>
      <point x="1158" y="1070"/>
      <point x="897" y="1070" type="curve" smooth="yes"/>
      <point x="782" y="1070"/>
      <point x="690" y="1039"/>
      <point x="615" y="976" type="curve"/>
      <point x="640" y="1040" type="line"/>
      <point x="300" y="1040" type="line"/>
      <point x="-184" y="-420" type="line"/>
    </contour>
    <contour>
      <point x="692" y="310" type="curve" smooth="yes"/>
      <point x="587" y="310"/>
      <point x="520" y="378"/>
      <point x="520" y="483" type="curve" smooth="yes"/>
      <point x="520" y="600"/>
      <point x="611" y="730"/>
      <point x="761" y="730" type="curve" smooth="yes"/>
      <point x="863" y="730"/>
      <point x="932" y="672"/>
      <point x="932" y="576" type="curve" smooth="yes"/>
      <point x="932" y="412"/>
      <point x="818" y="310"/>
    </contour>
  </outline>
</glyph>
<glyph name="q" format="2">
  <advance width="1371"/>
  <unicode hex="0071"/>
  <outline>
    <contour>
      <point x="931" y="-420" type="line"/>
      <point x="1416" y="1040" type="line"/>
      <point x="1076" y="1040" type="line"/>
      <point x="982" y="758" type="line"/>
      <point x="1070" y="807" type="line"/>
      <point x="1049" y="957"/>
      <point x="867" y="1070"/>
      <point x="659" y="1070" type="curve" smooth="yes"/>
      <point x="299" y="1070"/>
      <point x="49" y="748"/>
      <point x="49" y="408" type="curve" smooth="yes"/>
      <point x="49" y="156"/>
      <point x="210" y="-30"/>
      <point x="458" y="-30" type="curve" smooth="yes"/>
      <point x="611" y="-30"/>
      <point x="701" y="22"/>
      <point x="813" y="124" type="curve"/>
      <point x="749" y="232" type="line"/>
      <point x="533" y="-420" type="line"/>
    </contour>
    <contour>
      <point x="612" y="310" type="curve" smooth="yes"/>
      <point x="510" y="310"/>
      <point x="440" y="371"/>
      <point x="440" y="467" type="curve" smooth="yes"/>
      <point x="440" y="594"/>
      <point x="528" y="730"/>
      <point x="680" y="730" type="curve" smooth="yes"/>
      <point x="780" y="730"/>
      <point x="852" y="666"/>
      <point x="852" y="564" type="curve" smooth="yes"/>
      <point x="852" y="443"/>
      <point x="763" y="310"/>
    </contour>
  </outline>
</glyph>
<glyph name="r" format="2">
  <advance width="930"/>
  <unicode hex="0072"/>
  <anchor x="153" y="0" name="bottom"/>
  <anchor x="700" y="1040" name="top"/>
  <outline>
    <contour>
      <point x="353" y="0" type="line"/>
      <point x="522" y="506" type="line" smooth="yes"/>
      <point x="563" y="635"/>
      <point x="654" y="680"/>
      <point x="752" y="680" type="curve" smooth="yes"/>
      <point x="808" y="680"/>
      <point x="866" y="665"/>
      <point x="913" y="645" type="curve"/>
      <point x="1091" y="1058" type="line"/>
      <point x="1057" y="1067"/>
      <point x="1019" y="1072"/>
      <point x="981" y="1072" type="curve" smooth="yes"/>
      <point x="859" y="1072"/>
      <point x="724" y="1004"/>
      <point x="647" y="863" type="curve"/>
      <point x="700" y="1040" type="line"/>
      <point x="300" y="1040" type="line"/>
      <point x="-47" y="0" type="line"/>
    </contour>
  </outline>
</glyph>
<glyph name="s" format="2">
  <advance width="1085"/>
  <unicode hex="0073"/>
  <anchor x="391" y="0" name="bottom"/>
  <anchor x="656" y="1040" name="top"/>
  <outline>
    <contour>
      <point x="450" y="-28" type="curve" smooth="yes"/>
      <point x="736" y="-28"/>
      <point x="958" y="135"/>
      <point x="958" y="390" type="curve" smooth="yes"/>
      <point x="958" y="516"/>
      <point x="851" y="595"/>
      <point x="608" y="670" type="curve" smooth="yes"/>
      <point x="498" y="702"/>
      <point x="471" y="713"/>
      <point x="471" y="734" type="curve" smooth="yes"/>
      <point x="471" y="767"/>
      <point x="510" y="788"/>
      <point x="574" y="788" type="curve" smooth="yes"/>
      <point x="683" y="788"/>
      <point x="821" y="734"/>
      <point x="905" y="656" type="curve"/>
      <point x="1095" y="905" type="line"/>
      <point x="992" y="1008"/>
      <point x="807" y="1080"/>
      <point x="603" y="1080" type="curve" smooth="yes"/>
      <point x="341" y="1080"/>
      <point x="107" y="930"/>
      <point x="107" y="666" type="curve" smooth="yes"/>
      <point x="107" y="525"/>
      <point x="220" y="434"/>
      <point x="453" y="377" type="curve" smooth="yes"/>
      <point x="575" y="347"/>
      <point x="598" y="342"/>
      <point x="598" y="324" type="curve" smooth="yes"/>
      <point x="598" y="285"/>
      <point x="561" y="264"/>
      <point x="490" y="264" type="curve" smooth="yes"/>
      <point x="373" y="264"/>
      <point x="228" y="321"/>
      <point x="109" y="406" type="curve"/>
      <point x="-82" y="158" type="line"/>
      <point x="60" y="23"/>
      <point x="273" y="-28"/>
    </contour>
  </outline>
</glyph>
<glyph name="t" format="2">
  <advance width="930"/>
  <unicode hex="0074"/>
  <anchor x="420" y="534" name="bar"/>
  <anchor x="383" y="0" name="bottom"/>
  <anchor x="907" y="1440" name="caron"/>
  <outline>
    <contour>
      <point x="483" y="-30" type="curve" smooth="yes"/>
      <point x="570" y="-30"/>
      <point x="650" y="-14"/>
      <point x="716" y="12" type="curve"/>
      <point x="775" y="344" type="line"/>
      <point x="736" y="327"/>
      <point x="697" y="320"/>
      <point x="659" y="320" type="curve" smooth="yes"/>
      <point x="562" y="320"/>
      <point x="548" y="368"/>
      <point x="573" y="440" type="curve" smooth="yes"/>
      <point x="670" y="728" type="line"/>
      <point x="886" y="728" type="line"/>
      <point x="989" y="1040" type="line"/>
      <point x="773" y="1040" type="line"/>
      <point x="870" y="1334" type="line"/>
      <point x="470" y="1334" type="line"/>
      <point x="154" y="378" type="line" smooth="yes"/>
      <point x="70" y="123"/>
      <point x="206" y="-30"/>
    </contour>
    <contour>
      <point x="302" y="728" type="line"/>
      <point x="405" y="1040" type="line"/>
      <point x="189" y="1040" type="line"/>
      <point x="86" y="728" type="line"/>
    </contour>
  </outline>
</glyph>
<glyph name="u" format="2">
  <advance width="1328"/>
  <unicode hex="0075"/>
  <anchor x="780" y="1040" name="top"/>
  <anchor x="1310" y="1040" name="horn"/>
  <anchor x="546" y="0" name="bottom"/>
  <outline>
    <contour>
      <point x="426" y="-30" type="qcurve"/>
      <point x="296" y="-30"/>
      <point x="131" y="79"/>
      <point x="72" y="284"/>
      <point x="100" y="428" type="qcurve"/>
      <point x="230" y="1040" type="line"/>
      <point x="630" y="1040" type="line"/>
      <point x="512" y="482" type="line"/>
      <point x="499" y="407"/>
      <point x="539" y="330"/>
      <point x="610" y="330" type="qcurve"/>
      <point x="659" y="330"/>
      <point x="732" y="365"/>
      <point x="781" y="433"/>
      <point x="792" y="482" type="qcurve"/>
      <point x="910" y="1040" type="line"/>
      <point x="1310" y="1040" type="line"/>
      <point x="1088" y="0" type="line"/>
      <point x="748" y="0" type="line"/>
      <point x="778" y="136" type="line"/>
      <point x="727" y="72"/>
      <point x="558" y="-30"/>
    </contour>
  </outline>
</glyph>
<glyph name="v" format="2">
  <advance width="1169"/>
  <unicode hex="0076"/>
  <outline>
    <contour>
      <point x="687" y="0" type="line"/>
      <point x="1304" y="1040" type="line"/>
      <point x="868" y="1040" type="line"/>
      <point x="464" y="250" type="line"/>
      <point x="560" y="230" type="line"/>
      <point x="565" y="1040" type="line"/>
      <point x="146" y="1040" type="line"/>
      <point x="219" y="0" type="line"/>
    </contour>
  </outline>
</glyph>
<glyph name="w" format="2">
  <advance width="1716"/>
  <unicode hex="0077"/>
  <anchor x="1022" y="1034" name="top"/>
  <outline>
    <contour>
      <point x="529" y="0" type="line"/>
      <point x="872" y="539" type="line"/>
      <point x="834" y="0" type="line"/>
      <point x="1223" y="0" type="line"/>
      <point x="1884" y="1040" type="line"/>
      <point x="1485" y="1040" type="line"/>
      <point x="1169" y="480" type="line"/>
      <point x="1203" y="1040" type="line"/>
      <point x="846" y="1040" type="line"/>
      <point x="490" y="471" type="line"/>
      <point x="547" y="1040" type="line"/>
      <point x="179" y="1040" type="line"/>
      <point x="134" y="0" type="line"/>
    </contour>
  </outline>
</glyph>
<glyph name="x" format="2">
  <advance width="1346"/>
  <unicode hex="0078"/>
  <outline>
    <contour>
      <point x="-90" y="0" type="line"/>
      <point x="392" y="522" type="line"/>
      <point x="144" y="1040" type="line"/>
      <point x="630" y="1040" type="line"/>
      <point x="716" y="776" type="line"/>
      <point x="892" y="1040" type="line"/>
      <point x="1410" y="1040" type="line"/>
      <point x="948" y="496" type="line"/>
      <point x="1214" y="0" type="line"/>
      <point x="720" y="0" type="line"/>
      <point x="616" y="248" type="line"/>
      <point x="416" y="0" type="line"/>
    </contour>
  </outline>
</glyph>
<glyph name="y" format="2">
  <advance width="1232"/>
  <unicode hex="0079"/>
  <anchor x="728" y="1040" name="top"/>
  <anchor x="1004" y="0" name="bottom"/>
  <outline>
    <contour>
      <point x="166" y="-450" type="qcurve"/>
      <point x="75" y="-450"/>
      <point x="-96" y="-409"/>
      <point x="-156" y="-372" type="qcurve"/>
      <point x="-10" y="-48" type="line"/>
      <point x="25" y="-66"/>
      <point x="107" y="-88"/>
      <point x="144" y="-88" type="qcurve"/>
      <point x="185" y="-88"/>
      <point x="252" y="-62"/>
      <point x="270" y="-26" type="qcurve"/>
      <point x="292" y="22" type="line"/>
      <point x="110" y="1040" type="line"/>
      <point x="536" y="1040" type="line"/>
      <point x="592" y="398" type="line"/>
      <point x="900" y="1040" type="line"/>
      <point x="1344" y="1040" type="line"/>
      <point x="680" y="-116" type="line"/>
      <point x="609" y="-240"/>
      <point x="441" y="-386"/>
      <point x="259" y="-450"/>
    </contour>
  </outline>
</glyph>
<glyph name="z" format="2">
  <advance width="1067"/>
  <unicode hex="007A"/>
  <anchor x="708" y="1040" name="top"/>
  <outline>
    <contour>
      <point x="818" y="0" type="line"/>
      <point x="934" y="350" type="line"/>
      <point x="572" y="350" type="line"/>
      <point x="1070" y="780" type="line"/>
      <point x="1154" y="1040" type="line"/>
      <point x="270" y="1040" type="line"/>
      <point x="154" y="690" type="line"/>
      <point x="521" y="690" type="line"/>
      <point x="-7" y="263" type="line"/>
      <point x="-92" y="0" type="line"/>
    </contour>
  </outline>
</glyph>
<glyph name="braceleft" format="2">
  <advance width="762"/>
  <unicode hex="007B"/>
  <outline>
    <contour>
      <point x="539" y="40" type="line"/>
      <point x="413" y="34"/>
      <point x="378" y="74"/>
      <point x="418" y="164" type="curve"/>
      <point x="548" y="442" type="line"/>
      <point x="605" y="570"/>
      <point x="571" y="664"/>
      <point x="442" y="690" type="curve"/>
      <point x="442" y="692" type="line"/>
      <point x="580" y="714"/>
      <point x="667" y="808"/>
      <point x="676" y="938" type="curve"/>
      <point x="702" y="1216" type="line" smooth="yes"/>
      <point x="711" y="1310"/>
      <point x="767" y="1348"/>
      <point x="889" y="1340" type="curve"/>
      <point x="960" y="1606" type="line"/>
      <point x="597" y="1634"/>
      <point x="406" y="1504"/>
      <point x="378" y="1188" type="curve" smooth="yes"/>
      <point x="356" y="948" type="line"/>
      <point x="350" y="856"/>
      <point x="300" y="824"/>
      <point x="150" y="824" type="curve"/>
      <point x="79" y="558" type="line"/>
      <point x="229" y="558"/>
      <point x="261" y="526"/>
      <point x="220" y="434" type="curve" smooth="yes"/>
      <point x="110" y="190" type="line" smooth="yes"/>
      <point x="-32" y="-124"/>
      <point x="91" y="-254"/>
      <point x="469" y="-226" type="curve"/>
    </contour>
  </outline>
</glyph>
<glyph name="bar" format="2">
  <advance width="724"/>
  <unicode hex="007C"/>
  <outline>
    <contour>
      <point x="323" y="-220" type="line"/>
      <point x="814" y="1600" type="line"/>
      <point x="494" y="1600" type="line"/>
      <point x="3" y="-220" type="line"/>
    </contour>
  </outline>
</glyph>
<glyph name="braceright" format="2">
  <advance width="734"/>
  <unicode hex="007D"/>
  <outline>
    <contour>
      <point x="-92" y="-226" type="qcurve"/>
      <point x="-34" y="40" type="line"/>
      <point x="59" y="36"/>
      <point x="145" y="97"/>
      <point x="146" y="164" type="qcurve"/>
      <point x="150" y="442" type="line"/>
      <point x="155" y="538"/>
      <point x="271" y="671"/>
      <point x="376" y="690" type="qcurve"/>
      <point x="378" y="692" type="line"/>
      <point x="282" y="709"/>
      <point x="222" y="841"/>
      <point x="262" y="938" type="qcurve"/>
      <point x="370" y="1216" type="line"/>
      <point x="397" y="1287"/>
      <point x="337" y="1346"/>
      <point x="242" y="1340" type="qcurve"/>
      <point x="300" y="1606" type="line"/>
      <point x="582" y="1627"/>
      <point x="773" y="1425"/>
      <point x="680" y="1188" type="qcurve"/>
      <point x="586" y="948" type="line"/>
      <point x="567" y="902"/>
      <point x="582" y="848"/>
      <point x="659" y="824"/>
      <point x="734" y="824" type="qcurve"/>
      <point x="676" y="558" type="line"/>
      <point x="601" y="558"/>
      <point x="514" y="534"/>
      <point x="477" y="480"/>
      <point x="476" y="434" type="qcurve"/>
      <point x="468" y="190" type="line"/>
      <point x="461" y="-45"/>
      <point x="183" y="-247"/>
    </contour>
  </outline>
</glyph>
<glyph name="asciitilde" format="2">
  <advance width="1297"/>
  <unicode hex="007E"/>
  <outline>
    <contour>
      <point x="918" y="460" type="qcurve"/>
      <point x="840" y="460"/>
      <point x="710" y="505"/>
      <point x="596" y="563"/>
      <point x="493" y="608"/>
      <point x="442" y="608" type="qcurve"/>
      <point x="379" y="608"/>
      <point x="253" y="537"/>
      <point x="194" y="466" type="qcurve"/>
      <point x="98" y="698" type="line"/>
      <point x="179" y="787"/>
      <point x="359" y="880"/>
      <point x="450" y="880" type="qcurve"/>
      <point x="516" y="880"/>
      <point x="649" y="835"/>
      <point x="776" y="777"/>
      <point x="891" y="732"/>
      <point x="938" y="732" type="qcurve"/>
      <point x="1000" y="732"/>
      <point x="1125" y="802"/>
      <point x="1186" y="874" type="qcurve"/>
      <point x="1282" y="642" type="line"/>
      <point x="1200" y="552"/>
      <point x="1013" y="460"/>
    </contour>
  </outline>
</glyph>
<glyph name="exclamdown" format="2">
  <advance width="729"/>
  <unicode hex="00A1"/>
  <outline>
    <contour>
      <point x="303" y="-360" type="line"/>
      <point x="530" y="504" type="line"/>
      <point x="190" y="504" type="line"/>
      <point x="-158" y="-360" type="line"/>
    </contour>
    <contour>
      <point x="444" y="624" type="curve" smooth="yes"/>
      <point x="580" y="624"/>
      <point x="713" y="724"/>
      <point x="713" y="892" type="curve" smooth="yes"/>
      <point x="713" y="1002"/>
      <point x="620" y="1070"/>
      <point x="507" y="1070" type="curve" smooth="yes"/>
      <point x="372" y="1070"/>
      <point x="235" y="974"/>
      <point x="235" y="804" type="curve" smooth="yes"/>
      <point x="235" y="696"/>
      <point x="325" y="624"/>
    </contour>
  </outline>
</glyph>
<glyph name="cent" format="2">
  <advance width="1297"/>
  <unicode hex="00A2"/>
  <outline>
    <contour>
      <point x="444" y="-160" type="line"/>
      <point x="484" y="26" type="line"/>
      <point x="381" y="55"/>
      <point x="236" y="180"/>
      <point x="160" y="354"/>
      <point x="160" y="456" type="qcurve"/>
      <point x="160" y="606"/>
      <point x="301" y="858"/>
      <point x="543" y="1019"/>
      <point x="696" y="1034" type="qcurve"/>
      <point x="732" y="1200" type="line"/>
      <point x="992" y="1200" type="line"/>
      <point x="952" y="1012" type="line"/>
      <point x="1020" y="996"/>
      <point x="1140" y="932"/>
      <point x="1176" y="896" type="qcurve"/>
      <point x="996" y="656" type="line"/>
      <point x="971" y="673"/>
      <point x="915" y="694"/>
      <point x="886" y="700" type="qcurve"/>
      <point x="806" y="322" type="line"/>
      <point x="848" y="324"/>
      <point x="933" y="343"/>
      <point x="976" y="364" type="qcurve"/>
      <point x="1010" y="70" type="line"/>
      <point x="952" y="39"/>
      <point x="810" y="7"/>
      <point x="738" y="2" type="qcurve"/>
      <point x="704" y="-160" type="line"/>
    </contour>
    <contour>
      <point x="552" y="348" type="qcurve"/>
      <point x="628" y="706" type="line"/>
      <point x="586" y="705"/>
      <point x="512" y="644"/>
      <point x="466" y="548"/>
      <point x="466" y="494" type="qcurve"/>
      <point x="466" y="440"/>
      <point x="512" y="363"/>
    </contour>
  </outline>
</glyph>
<glyph name="sterling" format="2">
  <advance width="1297"/>
  <unicode hex="00A3"/>
  <outline>
    <contour>
      <point x="10" y="0" type="line"/>
      <point x="70" y="292" type="line"/>
      <point x="160" y="300"/>
      <point x="294" y="340"/>
      <point x="368" y="434"/>
      <point x="368" y="524" type="qcurve"/>
      <point x="368" y="555"/>
      <point x="358" y="656"/>
      <point x="344" y="775"/>
      <point x="334" y="893"/>
      <point x="334" y="940" type="qcurve"/>
      <point x="334" y="1084"/>
      <point x="482" y="1303"/>
      <point x="740" y="1426"/>
      <point x="906" y="1426" type="qcurve"/>
      <point x="1013" y="1426"/>
      <point x="1193" y="1375"/>
      <point x="1323" y="1295"/>
      <point x="1356" y="1252" type="qcurve"/>
      <point x="1172" y="1016" type="line"/>
      <point x="1105" y="1078"/>
      <point x="970" y="1124"/>
      <point x="904" y="1124" type="qcurve"/>
      <point x="807" y="1124"/>
      <point x="700" y="1005"/>
      <point x="700" y="918" type="qcurve"/>
      <point x="701" y="881"/>
      <point x="701" y="789"/>
      <point x="701" y="688"/>
      <point x="700" y="590"/>
      <point x="700" y="548" type="qcurve"/>
      <point x="700" y="497"/>
      <point x="656" y="360"/>
      <point x="606" y="298" type="qcurve"/>
      <point x="1182" y="298" type="line"/>
      <point x="1118" y="0" type="line"/>
    </contour>
    <contour>
      <point x="110" y="560" type="line"/>
      <point x="162" y="810" type="line"/>
      <point x="1078" y="810" type="line"/>
      <point x="1026" y="560" type="line"/>
    </contour>
  </outline>
</glyph>
<glyph name="currency" format="2">
  <advance width="1296"/>
  <unicode hex="00A4"/>
  <outline>
    <contour>
      <point x="412" y="220" type="line"/>
      <point x="473" y="183"/>
      <point x="538" y="170"/>
      <point x="615" y="170" type="curve" smooth="yes"/>
      <point x="683" y="170"/>
      <point x="748" y="189"/>
      <point x="815" y="223" type="curve"/>
      <point x="948" y="66" type="line"/>
      <point x="1183" y="264" type="line"/>
      <point x="1057" y="417" type="line"/>
      <point x="1116" y="500"/>
      <point x="1146" y="577"/>
      <point x="1146" y="686" type="curve" smooth="yes"/>
      <point x="1146" y="734"/>
      <point x="1138" y="786"/>
      <point x="1122" y="829" type="curve"/>
      <point x="1301" y="980" type="line"/>
      <point x="1136" y="1178" type="line"/>
      <point x="956" y="1024" type="line"/>
      <point x="895" y="1061"/>
      <point x="831" y="1074"/>
      <point x="756" y="1074" type="curve" smooth="yes"/>
      <point x="687" y="1074"/>
      <point x="620" y="1055"/>
      <point x="553" y="1021" type="curve"/>
      <point x="420" y="1178" type="line"/>
      <point x="185" y="980" type="line"/>
      <point x="311" y="829" type="line"/>
      <point x="262" y="755"/>
      <point x="222" y="668"/>
      <point x="222" y="558" type="curve" smooth="yes"/>
      <point x="222" y="511"/>
      <point x="227" y="462"/>
      <point x="242" y="417" type="curve"/>
      <point x="67" y="264" type="line"/>
      <point x="232" y="66" type="line"/>
    </contour>
    <contour>
      <point x="659" y="456" type="curve" smooth="yes"/>
      <point x="566" y="456"/>
      <point x="515" y="512"/>
      <point x="515" y="589" type="curve" smooth="yes"/>
      <point x="515" y="696"/>
      <point x="600" y="786"/>
      <point x="706" y="786" type="curve" smooth="yes"/>
      <point x="796" y="786"/>
      <point x="853" y="734"/>
      <point x="853" y="651" type="curve" smooth="yes"/>
      <point x="853" y="537"/>
      <point x="758" y="456"/>
    </contour>
  </outline>
</glyph>
<glyph name="yen" format="2">
  <advance width="1296"/>
  <unicode hex="00A5"/>
  <outline>
    <contour>
      <point x="640" y="0" type="line"/>
      <point x="721" y="246" type="line"/>
      <point x="1079" y="246" type="line"/>
      <point x="1154" y="472" type="line"/>
      <point x="796" y="472" type="line"/>
      <point x="833" y="584" type="line"/>
      <point x="1191" y="584" type="line"/>
      <point x="1266" y="810" type="line"/>
      <point x="1013" y="810" type="line"/>
      <point x="1604" y="1400" type="line"/>
      <point x="1179" y="1400" type="line"/>
      <point x="752" y="935" type="line"/>
      <point x="656" y="1400" type="line"/>
      <point x="280" y="1400" type="line"/>
      <point x="448" y="810" type="line"/>
      <point x="184" y="810" type="line"/>
      <point x="109" y="584" type="line"/>
      <point x="465" y="584" type="line"/>
      <point x="428" y="472" type="line"/>
      <point x="72" y="472" type="line"/>
      <point x="-3" y="246" type="line"/>
      <point x="353" y="246" type="line"/>
      <point x="272" y="0" type="line"/>
    </contour>
  </outline>
</glyph>
<glyph name="brokenbar" format="2">
  <advance width="725"/>
  <unicode hex="00A6"/>
  <outline>
    <contour>
      <point x="620" y="810" type="line"/>
      <point x="842" y="1480" type="line"/>
      <point x="522" y="1480" type="line"/>
      <point x="300" y="810" type="line"/>
    </contour>
    <contour>
      <point x="317" y="-100" type="line"/>
      <point x="539" y="570" type="line"/>
      <point x="219" y="570" type="line"/>
      <point x="-3" y="-100" type="line"/>
    </contour>
  </outline>
</glyph>
<glyph name="section" format="2">
  <advance width="1307"/>
  <unicode hex="00A7"/>
  <outline>
    <contour>
      <point x="490" y="-450" type="qcurve"/>
      <point x="328" y="-450"/>
      <point x="47" y="-348"/>
      <point x="-40" y="-272" type="qcurve"/>
      <point x="134" y="-2" type="line"/>
      <point x="212" y="-63"/>
      <point x="425" y="-142"/>
      <point x="530" y="-142" type="qcurve"/>
      <point x="605" y="-142"/>
      <point x="714" y="-87"/>
      <point x="714" y="-36" type="qcurve"/>
      <point x="714" y="-10"/>
      <point x="682" y="32"/>
      <point x="605" y="68"/>
      <point x="538" y="86" type="qcurve"/>
      <point x="391" y="126"/>
      <point x="190" y="221"/>
      <point x="86" y="351"/>
      <point x="86" y="444" type="qcurve"/>
      <point x="86" y="550"/>
      <point x="187" y="706"/>
      <point x="364" y="808"/>
      <point x="594" y="858"/>
      <point x="724" y="858" type="qcurve"/>
      <point x="692" y="652" type="line"/>
      <point x="625" y="655"/>
      <point x="509" y="621"/>
      <point x="438" y="548"/>
      <point x="438" y="494" type="qcurve"/>
      <point x="438" y="439"/>
      <point x="563" y="368"/>
      <point x="674" y="338" type="qcurve"/>
      <point x="862" y="287"/>
      <point x="1042" y="124"/>
      <point x="1042" y="-8" type="qcurve"/>
      <point x="1042" y="-148"/>
      <point x="891" y="-346"/>
      <point x="640" y="-450"/>
    </contour>
    <contour>
      <point x="594" y="128" type="qcurve"/>
      <point x="624" y="332" type="line"/>
      <point x="691" y="328"/>
      <point x="809" y="362"/>
      <point x="882" y="437"/>
      <point x="882" y="494" type="qcurve"/>
      <point x="882" y="530"/>
      <point x="828" y="585"/>
      <point x="719" y="629"/>
      <point x="636" y="650" type="qcurve"/>
      <point x="456" y="695"/>
      <point x="280" y="858"/>
      <point x="280" y="990" type="qcurve"/>
      <point x="280" y="1129"/>
      <point x="425" y="1326"/>
      <point x="668" y="1430"/>
      <point x="816" y="1430" type="qcurve"/>
      <point x="962" y="1430"/>
      <point x="1235" y="1336"/>
      <point x="1328" y="1252" type="qcurve"/>
      <point x="1154" y="982" type="line"/>
      <point x="1105" y="1025"/>
      <point x="975" y="1088"/>
      <point x="838" y="1122"/>
      <point x="778" y="1122" type="qcurve"/>
      <point x="711" y="1122"/>
      <point x="606" y="1073"/>
      <point x="606" y="1016" type="qcurve"/>
      <point x="606" y="990"/>
      <point x="641" y="951"/>
      <point x="726" y="915"/>
      <point x="802" y="894" type="qcurve"/>
      <point x="1009" y="839"/>
      <point x="1232" y="678"/>
      <point x="1232" y="544" type="qcurve"/>
      <point x="1232" y="400"/>
      <point x="1056" y="216"/>
      <point x="766" y="128"/>
    </contour>
  </outline>
</glyph>
<glyph name="ordfeminine" format="2">
  <advance width="866"/>
  <unicode hex="00AA"/>
  <anchor x="610" y="1398" name="top"/>
  <anchor x="468" y="722" name="bottom"/>
  <outline>
    <contour>
      <point x="388" y="704" type="qcurve" smooth="yes"/>
      <point x="286" y="704"/>
      <point x="162" y="816"/>
      <point x="162" y="910" type="qcurve" smooth="yes"/>
      <point x="162" y="998"/>
      <point x="288" y="1111"/>
      <point x="522" y="1157"/>
      <point x="684" y="1144" type="qcurve"/>
      <point x="654" y="996" type="line"/>
      <point x="587" y="1006"/>
      <point x="472" y="995"/>
      <point x="402" y="959"/>
      <point x="402" y="932" type="qcurve" smooth="yes"/>
      <point x="402" y="910"/>
      <point x="444" y="884"/>
      <point x="480" y="884" type="qcurve" smooth="yes"/>
      <point x="534" y="884"/>
      <point x="608" y="936"/>
      <point x="618" y="984" type="qcurve" smooth="yes"/>
      <point x="648" y="1122" type="line" smooth="yes"/>
      <point x="660" y="1178"/>
      <point x="589" y="1230"/>
      <point x="508" y="1230" type="qcurve" smooth="yes"/>
      <point x="457" y="1230"/>
      <point x="352" y="1201"/>
      <point x="320" y="1178" type="qcurve"/>
      <point x="288" y="1363" type="line"/>
      <point x="292" y="1363"/>
      <point x="462" y="1424"/>
      <point x="570" y="1424" type="qcurve" smooth="yes"/>
      <point x="765" y="1424"/>
      <point x="920" y="1240"/>
      <point x="888" y="1088" type="qcurve" smooth="yes"/>
      <point x="812" y="722" type="line"/>
      <point x="590" y="722" type="line"/>
      <point x="602" y="788" type="line"/>
      <point x="572" y="751"/>
      <point x="460" y="704"/>
    </contour>
  </outline>
</glyph>
<glyph name="guillemetleft" format="2">
  <advance width="1230"/>
  <unicode hex="00AB"/>
  <outline>
    <contour>
      <point x="1033" y="166" type="line"/>
      <point x="928" y="497" type="line"/>
      <point x="1190" y="803" type="line"/>
      <point x="973" y="998" type="line"/>
      <point x="563" y="528" type="line"/>
      <point x="713" y="59" type="line"/>
    </contour>
    <contour>
      <point x="513" y="166" type="line"/>
      <point x="408" y="497" type="line"/>
      <point x="670" y="803" type="line"/>
      <point x="453" y="998" type="line"/>
      <point x="43" y="528" type="line"/>
      <point x="193" y="59" type="line"/>
    </contour>
  </outline>
</glyph>
<glyph name="logicalnot" format="2">
  <advance width="1296"/>
  <unicode hex="00AC"/>
  <outline>
    <contour>
      <point x="1169" y="290" type="line"/>
      <point x="1371" y="1050" type="line"/>
      <point x="211" y="1050" type="line"/>
      <point x="140" y="782" type="line"/>
      <point x="1016" y="782" type="line"/>
      <point x="885" y="290" type="line"/>
    </contour>
  </outline>
</glyph>
<glyph name="registered" format="2">
  <advance width="1240"/>
  <unicode hex="00AE"/>
  <anchor x="732" y="1092" name="top"/>
  <anchor x="742" y="870" name="bottom"/>
  <outline>
    <contour>
      <point x="726" y="470" type="qcurve"/>
      <point x="577" y="470"/>
      <point x="339" y="606"/>
      <point x="200" y="838"/>
      <point x="200" y="982" type="qcurve"/>
      <point x="200" y="1127"/>
      <point x="339" y="1358"/>
      <point x="575" y="1492"/>
      <point x="722" y="1492" type="qcurve"/>
      <point x="870" y="1492"/>
      <point x="1108" y="1354"/>
      <point x="1248" y="1122"/>
      <point x="1248" y="980" type="qcurve"/>
      <point x="1248" y="836"/>
      <point x="1110" y="605"/>
      <point x="873" y="470"/>
    </contour>
    <contour>
      <point x="726" y="566" type="qcurve"/>
      <point x="839" y="566"/>
      <point x="1027" y="670"/>
      <point x="1140" y="856"/>
      <point x="1140" y="980" type="qcurve"/>
      <point x="1140" y="1105"/>
      <point x="1025" y="1291"/>
      <point x="835" y="1394"/>
      <point x="722" y="1394" type="qcurve"/>
      <point x="610" y="1394"/>
      <point x="422" y="1292"/>
      <point x="308" y="1107"/>
      <point x="308" y="982" type="qcurve"/>
      <point x="308" y="857"/>
      <point x="422" y="670"/>
      <point x="612" y="566"/>
    </contour>
    <contour>
      <point x="528" y="706" type="line"/>
      <point x="528" y="1256" type="line"/>
      <point x="756" y="1256" type="line"/>
      <point x="849" y="1256"/>
      <point x="964" y="1166"/>
      <point x="964" y="1088" type="qcurve"/>
      <point x="964" y="1028"/>
      <point x="890" y="951"/>
      <point x="834" y="936" type="qcurve"/>
      <point x="996" y="706" type="line"/>
      <point x="850" y="706" type="line"/>
      <point x="710" y="912" type="line"/>
      <point x="650" y="912" type="line"/>
      <point x="650" y="706" type="line"/>
    </contour>
    <contour>
      <point x="650" y="1010" type="line"/>
      <point x="740" y="1010" type="line"/>
      <point x="787" y="1010"/>
      <point x="840" y="1046"/>
      <point x="840" y="1082" type="qcurve"/>
      <point x="840" y="1118"/>
      <point x="791" y="1156"/>
      <point x="744" y="1156" type="qcurve"/>
      <point x="650" y="1156" type="line"/>
    </contour>
  </outline>
</glyph>
<glyph name="degree" format="2">
  <advance width="912"/>
  <unicode hex="00B0"/>
  <outline>
    <contour>
      <point x="555" y="606" type="curve" smooth="yes"/>
      <point x="811" y="606"/>
      <point x="1044" y="827"/>
      <point x="1044" y="1083" type="curve" smooth="yes"/>
      <point x="1044" y="1276"/>
      <point x="902" y="1420"/>
      <point x="687" y="1420" type="curve" smooth="yes"/>
      <point x="431" y="1420"/>
      <point x="196" y="1201"/>
      <point x="196" y="945" type="curve" smooth="yes"/>
      <point x="196" y="756"/>
      <point x="340" y="606"/>
    </contour>
    <contour>
      <point x="599" y="852" type="curve" smooth="yes"/>
      <point x="510" y="852"/>
      <point x="460" y="902"/>
      <point x="460" y="983" type="curve" smooth="yes"/>
      <point x="460" y="1086"/>
      <point x="543" y="1174"/>
      <point x="643" y="1174" type="curve" smooth="yes"/>
      <point x="729" y="1174"/>
      <point x="782" y="1122"/>
      <point x="782" y="1045" type="curve" smooth="yes"/>
      <point x="782" y="935"/>
      <point x="692" y="852"/>
    </contour>
  </outline>
</glyph>
<glyph name="twosuperior" format="2">
  <advance width="863"/>
  <unicode hex="00B2"/>
  <outline>
    <contour>
      <point x="857" y="722" type="line"/>
      <point x="925" y="934" type="line"/>
      <point x="601" y="934" type="line"/>
      <point x="682" y="991" type="line" smooth="yes"/>
      <point x="867" y="1119"/>
      <point x="1037" y="1231"/>
      <point x="1037" y="1413" type="curve" smooth="yes"/>
      <point x="1037" y="1553"/>
      <point x="922" y="1652"/>
      <point x="718" y="1652" type="curve" smooth="yes"/>
      <point x="615" y="1652"/>
      <point x="500" y="1621"/>
      <point x="404" y="1563" type="curve"/>
      <point x="435" y="1358" type="line"/>
      <point x="513" y="1417"/>
      <point x="593" y="1434"/>
      <point x="658" y="1434" type="curve" smooth="yes"/>
      <point x="741" y="1434"/>
      <point x="784" y="1406"/>
      <point x="784" y="1360" type="curve" smooth="yes"/>
      <point x="784" y="1244"/>
      <point x="641" y="1167"/>
      <point x="492" y="1071" type="curve" smooth="yes"/>
      <point x="222" y="891" type="line"/>
      <point x="169" y="722" type="line"/>
    </contour>
  </outline>
</glyph>
<glyph name="threesuperior" format="2">
  <advance width="824"/>
  <unicode hex="00B3"/>
  <outline>
    <contour>
      <point x="454" y="702" type="qcurve"/>
      <point x="352" y="702"/>
      <point x="167" y="774"/>
      <point x="131" y="826" type="qcurve"/>
      <point x="242" y="1018" type="line"/>
      <point x="271" y="973"/>
      <point x="392" y="918"/>
      <point x="456" y="918" type="qcurve"/>
      <point x="519" y="918"/>
      <point x="600" y="976"/>
      <point x="600" y="1022" type="qcurve"/>
      <point x="600" y="1066"/>
      <point x="528" y="1112"/>
      <point x="468" y="1112" type="qcurve"/>
      <point x="450" y="1112"/>
      <point x="404" y="1108"/>
      <point x="378" y="1102" type="qcurve"/>
      <point x="346" y="1256" type="line"/>
      <point x="592" y="1422" type="line"/>
      <point x="266" y="1422" type="line"/>
      <point x="308" y="1632" type="line"/>
      <point x="932" y="1632" type="line"/>
      <point x="894" y="1442" type="line"/>
      <point x="654" y="1252" type="line"/>
      <point x="702" y="1240"/>
      <point x="787" y="1180"/>
      <point x="840" y="1086"/>
      <point x="840" y="1022" type="qcurve"/>
      <point x="840" y="925"/>
      <point x="734" y="781"/>
      <point x="558" y="702"/>
    </contour>
  </outline>
</glyph>
<glyph name="micro" format="2">
  <advance width="1339"/>
  <unicode hex="00B5"/>
  <outline>
    <contour>
      <point x="174" y="-420" type="line"/>
      <point x="303" y="64" type="line"/>
      <point x="334" y="18"/>
      <point x="392" y="-30"/>
      <point x="508" y="-30" type="curve" smooth="yes"/>
      <point x="606" y="-30"/>
      <point x="674" y="21"/>
      <point x="727" y="80" type="curve"/>
      <point x="699" y="0" type="line"/>
      <point x="1039" y="0" type="line"/>
      <point x="1386" y="1040" type="line"/>
      <point x="986" y="1040" type="line"/>
      <point x="798" y="482" type="line" smooth="yes"/>
      <point x="764" y="380"/>
      <point x="690" y="330"/>
      <point x="609" y="330" type="curve" smooth="yes"/>
      <point x="513" y="330"/>
      <point x="486" y="398"/>
      <point x="514" y="482" type="curve" smooth="yes"/>
      <point x="702" y="1040" type="line"/>
      <point x="302" y="1040" type="line"/>
      <point x="-186" y="-420" type="line"/>
    </contour>
  </outline>
</glyph>
<glyph name="paragraph" format="2">
  <advance width="1452"/>
  <unicode hex="00B6"/>
  <outline>
    <contour>
      <point x="364" y="-420" type="line"/>
      <point x="562" y="510" type="line"/>
      <point x="624" y="464" type="line"/>
      <point x="475" y="461"/>
      <point x="252" y="563"/>
      <point x="128" y="751"/>
      <point x="128" y="878" type="qcurve"/>
      <point x="128" y="1041"/>
      <point x="304" y="1275"/>
      <point x="602" y="1400"/>
      <point x="784" y="1400" type="qcurve"/>
      <point x="1608" y="1400" type="line"/>
      <point x="1562" y="1186" type="line"/>
      <point x="1358" y="1186" type="line"/>
      <point x="1016" y="-420" type="line"/>
      <point x="756" y="-420" type="line"/>
      <point x="1098" y="1186" type="line"/>
      <point x="966" y="1186" type="line"/>
      <point x="624" y="-420" type="line"/>
    </contour>
  </outline>
</glyph>
<glyph name="onesuperior" format="2">
  <advance width="716"/>
  <unicode hex="00B9"/>
  <outline>
    <contour>
      <point x="668" y="722" type="line"/>
      <point x="967" y="1632" type="line"/>
      <point x="878" y="1629" type="line"/>
      <point x="361" y="1477" type="line"/>
      <point x="420" y="1279" type="line"/>
      <point x="638" y="1338" type="line"/>
      <point x="428" y="722" type="line"/>
    </contour>
  </outline>
</glyph>
<glyph name="ordmasculine" format="2">
  <advance width="904"/>
  <unicode hex="00BA"/>
  <anchor x="624" y="1398" name="top"/>
  <anchor x="892" y="1398" name="horn"/>
  <anchor x="516" y="722" name="bottom"/>
  <outline>
    <contour>
      <point x="538" y="702" type="qcurve"/>
      <point x="426" y="702"/>
      <point x="263" y="790"/>
      <point x="174" y="937"/>
      <point x="174" y="1026" type="qcurve"/>
      <point x="174" y="1133"/>
      <point x="293" y="1311"/>
      <point x="489" y="1418"/>
      <point x="604" y="1418" type="qcurve"/>
      <point x="715" y="1418"/>
      <point x="879" y="1330"/>
      <point x="968" y="1184"/>
      <point x="968" y="1096" type="qcurve"/>
      <point x="968" y="988"/>
      <point x="849" y="809"/>
      <point x="653" y="702"/>
    </contour>
    <contour>
      <point x="556" y="924" type="qcurve"/>
      <point x="604" y="924"/>
      <point x="674" y="969"/>
      <point x="712" y="1040"/>
      <point x="712" y="1080" type="qcurve"/>
      <point x="712" y="1134"/>
      <point x="642" y="1196"/>
      <point x="586" y="1196" type="qcurve"/>
      <point x="538" y="1196"/>
      <point x="467" y="1152"/>
      <point x="428" y="1082"/>
      <point x="428" y="1042" type="qcurve"/>
      <point x="428" y="988"/>
      <point x="501" y="924"/>
    </contour>
  </outline>
</glyph>
<glyph name="guillemetright" format="2">
  <advance width="1230"/>
  <unicode hex="00BB"/>
  <outline>
    <contour>
      <point x="1193" y="530" type="line"/>
      <point x="1043" y="999" type="line"/>
      <point x="723" y="892" type="line"/>
      <point x="828" y="561" type="line"/>
      <point x="566" y="255" type="line"/>
      <point x="784" y="60" type="line"/>
    </contour>
    <contour>
      <point x="673" y="530" type="line"/>
      <point x="523" y="999" type="line"/>
      <point x="203" y="892" type="line"/>
      <point x="308" y="561" type="line"/>
      <point x="46" y="255" type="line"/>
      <point x="264" y="60" type="line"/>
    </contour>
  </outline>
</glyph>
<glyph name="onehalf" format="2">
  <advance width="1959"/>
  <unicode hex="00BD"/>
  <outline>
    <contour>
      <point x="332" y="490" type="line"/>
      <point x="466" y="1108" type="line"/>
      <point x="256" y="1048" type="line"/>
      <point x="194" y="1248" type="line"/>
      <point x="750" y="1420" type="line"/>
      <point x="768" y="1420" type="line"/>
      <point x="572" y="490" type="line"/>
    </contour>
    <contour>
      <point x="1085" y="0" type="line"/>
      <point x="1119" y="168" type="line"/>
      <point x="1363" y="344" type="line"/>
      <point x="1440" y="400"/>
      <point x="1561" y="490"/>
      <point x="1631" y="577"/>
      <point x="1631" y="628" type="qcurve"/>
      <point x="1631" y="669"/>
      <point x="1564" y="712"/>
      <point x="1501" y="712" type="qcurve"/>
      <point x="1447" y="712"/>
      <point x="1333" y="673"/>
      <point x="1279" y="628" type="qcurve"/>
      <point x="1228" y="827" type="line"/>
      <point x="1299" y="877"/>
      <point x="1467" y="930"/>
      <point x="1549" y="930" type="qcurve"/>
      <point x="1705" y="930"/>
      <point x="1879" y="787"/>
      <point x="1879" y="674" type="qcurve"/>
      <point x="1879" y="595"/>
      <point x="1797" y="464"/>
      <point x="1653" y="339"/>
      <point x="1559" y="268" type="qcurve"/>
      <point x="1485" y="212" type="line"/>
      <point x="1817" y="212" type="line"/>
      <point x="1773" y="0" type="line"/>
    </contour>
    <contour>
      <point x="498" y="-40" type="line"/>
      <point x="324" y="96" type="line"/>
      <point x="1378" y="1440" type="line"/>
      <point x="1552" y="1304" type="line"/>
    </contour>
  </outline>
</glyph>
<glyph name="threequarters" format="2">
  <advance width="2053"/>
  <unicode hex="00BE"/>
  <outline>
    <contour>
      <point x="406" y="470" type="qcurve"/>
      <point x="304" y="470"/>
      <point x="119" y="542"/>
      <point x="83" y="594" type="qcurve"/>
      <point x="194" y="786" type="line"/>
      <point x="223" y="741"/>
      <point x="344" y="686"/>
      <point x="408" y="686" type="qcurve"/>
      <point x="471" y="686"/>
      <point x="552" y="744"/>
      <point x="552" y="790" type="qcurve"/>
      <point x="552" y="834"/>
      <point x="480" y="880"/>
      <point x="420" y="880" type="qcurve"/>
      <point x="402" y="880"/>
      <point x="356" y="876"/>
      <point x="330" y="870" type="qcurve"/>
      <point x="298" y="1024" type="line"/>
      <point x="544" y="1190" type="line"/>
      <point x="218" y="1190" type="line"/>
      <point x="260" y="1400" type="line"/>
      <point x="884" y="1400" type="line"/>
      <point x="846" y="1210" type="line"/>
      <point x="606" y="1020" type="line"/>
      <point x="654" y="1008"/>
      <point x="739" y="948"/>
      <point x="792" y="854"/>
      <point x="792" y="790" type="qcurve"/>
      <point x="792" y="693"/>
      <point x="686" y="549"/>
      <point x="510" y="470"/>
    </contour>
    <contour>
      <point x="1569" y="0" type="line"/>
      <point x="1603" y="160" type="line"/>
      <point x="1169" y="160" type="line"/>
      <point x="1207" y="340" type="line"/>
      <point x="1591" y="910" type="line"/>
      <point x="1857" y="910" type="line"/>
      <point x="1489" y="366" type="line"/>
      <point x="1645" y="366" type="line"/>
      <point x="1681" y="528" type="line"/>
      <point x="1893" y="528" type="line"/>
      <point x="1859" y="366" type="line"/>
      <point x="1977" y="366" type="line"/>
      <point x="1935" y="160" type="line"/>
      <point x="1817" y="160" type="line"/>
      <point x="1783" y="0" type="line"/>
    </contour>
    <contour>
      <point x="624" y="-40" type="line"/>
      <point x="450" y="96" type="line"/>
      <point x="1504" y="1440" type="line"/>
      <point x="1678" y="1304" type="line"/>
    </contour>
  </outline>
</glyph>
<glyph name="questiondown" format="2">
  <advance width="1066"/>
  <unicode hex="00BF"/>
  <outline>
    <contour>
      <point x="440" y="-390" type="qcurve"/>
      <point x="302" y="-390"/>
      <point x="85" y="-300"/>
      <point x="-40" y="-145"/>
      <point x="-40" y="-48" type="qcurve"/>
      <point x="-40" y="35"/>
      <point x="28" y="150"/>
      <point x="153" y="241"/>
      <point x="240" y="288" type="qcurve"/>
      <point x="290" y="315"/>
      <point x="355" y="373"/>
      <point x="393" y="454"/>
      <point x="404" y="516" type="qcurve"/>
      <point x="760" y="516" type="line"/>
      <point x="759" y="411"/>
      <point x="711" y="293"/>
      <point x="634" y="226"/>
      <point x="590" y="198" type="qcurve"/>
      <point x="505" y="144"/>
      <point x="442" y="91"/>
      <point x="442" y="58" type="qcurve"/>
      <point x="442" y="22"/>
      <point x="510" y="-24"/>
      <point x="582" y="-24" type="qcurve"/>
      <point x="642" y="-24"/>
      <point x="759" y="-1"/>
      <point x="826" y="30" type="qcurve"/>
      <point x="832" y="-302" type="line"/>
      <point x="786" y="-325"/>
      <point x="664" y="-365"/>
      <point x="519" y="-390"/>
    </contour>
    <contour>
      <point x="608" y="624" type="qcurve"/>
      <point x="511" y="624"/>
      <point x="394" y="732"/>
      <point x="394" y="826" type="qcurve"/>
      <point x="394" y="895"/>
      <point x="465" y="1006"/>
      <point x="582" y="1070"/>
      <point x="652" y="1070" type="qcurve"/>
      <point x="748" y="1070"/>
      <point x="866" y="965"/>
      <point x="866" y="870" type="qcurve"/>
      <point x="866" y="800"/>
      <point x="795" y="689"/>
      <point x="678" y="624"/>
    </contour>
  </outline>
</glyph>
<glyph name="AE" format="2">
  <advance width="1863"/>
  <unicode hex="00C6"/>
  <anchor x="1439" y="1400" name="top"/>
  <outline>
    <contour>
      <point x="216" y="0" type="line"/>
      <point x="387" y="250" type="line"/>
      <point x="726" y="250" type="line"/>
      <point x="661" y="0" type="line"/>
      <point x="1623" y="0" type="line"/>
      <point x="1716" y="352" type="line"/>
      <point x="1158" y="352" type="line"/>
      <point x="1211" y="550" type="line"/>
      <point x="1679" y="550" type="line"/>
      <point x="1765" y="870" type="line"/>
      <point x="1297" y="870" type="line"/>
      <point x="1346" y="1052" type="line"/>
      <point x="1896" y="1052" type="line"/>
      <point x="1989" y="1400" type="line"/>
      <point x="764" y="1400" type="line"/>
      <point x="-242" y="0" type="line"/>
    </contour>
    <contour>
      <point x="949" y="1063" type="line"/>
      <point x="812" y="566" type="line"/>
      <point x="606" y="566" type="line"/>
    </contour>
  </outline>
</glyph>
<glyph name="Eth" format="2">
  <advance width="1531"/>
  <unicode hex="00D0"/>
  <anchor x="952" y="1400" name="top"/>
  <anchor x="522" y="712" name="strokeshort"/>
  <outline>
    <contour>
      <point x="-12" y="558" type="line"/>
      <point x="54" y="866" type="line"/>
      <point x="940" y="866" type="line"/>
      <point x="874" y="558" type="line"/>
    </contour>
    <contour>
      <point x="88" y="0" type="line"/>
      <point x="384" y="1400" type="line"/>
      <point x="778" y="1400" type="line"/>
      <point x="988" y="1400"/>
      <point x="1313" y="1258"/>
      <point x="1498" y="985"/>
      <point x="1498" y="788" type="qcurve"/>
      <point x="1498" y="619"/>
      <point x="1379" y="331"/>
      <point x="1163" y="118"/>
      <point x="867" y="0"/>
      <point x="690" y="0" type="qcurve"/>
    </contour>
    <contour>
      <point x="572" y="376" type="line"/>
      <point x="712" y="376" type="line"/>
      <point x="797" y="376"/>
      <point x="930" y="431"/>
      <point x="1023" y="532"/>
      <point x="1072" y="671"/>
      <point x="1072" y="754" type="qcurve"/>
      <point x="1072" y="845"/>
      <point x="993" y="965"/>
      <point x="852" y="1024"/>
      <point x="758" y="1024" type="qcurve"/>
      <point x="708" y="1024" type="line"/>
    </contour>
  </outline>
</glyph>
<glyph name="multiply" format="2">
  <advance width="1296"/>
  <unicode hex="00D7"/>
  <outline>
    <contour>
      <point x="654" y="490" type="line"/>
      <point x="888" y="147" type="line"/>
      <point x="1112" y="311" type="line"/>
      <point x="878" y="654" type="line"/>
      <point x="1365" y="1010" type="line"/>
      <point x="1232" y="1206" type="line"/>
      <point x="742" y="850" type="line"/>
      <point x="508" y="1194" type="line"/>
      <point x="284" y="1029" type="line"/>
      <point x="518" y="686" type="line"/>
      <point x="31" y="330" type="line"/>
      <point x="164" y="134" type="line"/>
    </contour>
  </outline>
</glyph>
<glyph name="Oslash" format="2">
  <advance width="1667"/>
  <unicode hex="00D8"/>
  <anchor x="1066" y="1400" name="top"/>
  <outline>
    <contour>
      <point x="380" y="88" type="line"/>
      <point x="487" y="16"/>
      <point x="623" y="-30"/>
      <point x="779" y="-30" type="curve" smooth="yes"/>
      <point x="1254" y="-30"/>
      <point x="1661" y="358"/>
      <point x="1661" y="834" type="curve" smooth="yes"/>
      <point x="1661" y="940"/>
      <point x="1640" y="1044"/>
      <point x="1593" y="1131" type="curve"/>
      <point x="1766" y="1278" type="line"/>
      <point x="1576" y="1493" type="line"/>
      <point x="1379" y="1324" type="line"/>
      <point x="1285" y="1386"/>
      <point x="1164" y="1430"/>
      <point x="1007" y="1430" type="curve" smooth="yes"/>
      <point x="539" y="1430"/>
      <point x="125" y="1052"/>
      <point x="125" y="556" type="curve" smooth="yes"/>
      <point x="125" y="462"/>
      <point x="141" y="375"/>
      <point x="177" y="293" type="curve"/>
      <point x="-3" y="137" type="line"/>
      <point x="187" y="-77" type="line"/>
    </contour>
    <contour>
      <point x="542" y="597" type="line"/>
      <point x="544" y="607"/>
      <point x="545" y="615"/>
      <point x="545" y="622" type="curve" smooth="yes"/>
      <point x="545" y="846"/>
      <point x="707" y="1066"/>
      <point x="948" y="1066" type="curve" smooth="yes"/>
      <point x="986" y="1066"/>
      <point x="1017" y="1065"/>
      <point x="1062" y="1042" type="curve"/>
    </contour>
    <contour>
      <point x="832" y="334" type="curve" smooth="yes"/>
      <point x="775" y="334"/>
      <point x="731" y="345"/>
      <point x="689" y="367" type="curve"/>
      <point x="1243" y="840" type="line"/>
      <point x="1243" y="824"/>
      <point x="1244" y="811"/>
      <point x="1244" y="797" type="curve" smooth="yes"/>
      <point x="1244" y="564"/>
      <point x="1088" y="334"/>
    </contour>
  </outline>
</glyph>
<glyph name="Thorn" format="2">
  <advance width="1391"/>
  <unicode hex="00DE"/>
  <outline>
    <contour>
      <point x="48" y="0" type="line"/>
      <point x="344" y="1400" type="line"/>
      <point x="748" y="1400" type="line"/>
      <point x="708" y="1204" type="line"/>
      <point x="848" y="1204" type="line"/>
      <point x="1011" y="1204"/>
      <point x="1251" y="1100"/>
      <point x="1382" y="908"/>
      <point x="1382" y="776" type="qcurve"/>
      <point x="1382" y="609"/>
      <point x="1226" y="367"/>
      <point x="951" y="236"/>
      <point x="774" y="236" type="qcurve"/>
      <point x="502" y="236" type="line"/>
      <point x="452" y="0" type="line"/>
    </contour>
    <contour>
      <point x="572" y="570" type="line"/>
      <point x="794" y="570" type="line"/>
      <point x="875" y="570"/>
      <point x="972" y="657"/>
      <point x="972" y="736" type="qcurve"/>
      <point x="972" y="811"/>
      <point x="872" y="860"/>
      <point x="788" y="860" type="qcurve"/>
      <point x="634" y="860" type="line"/>
    </contour>
  </outline>
</glyph>
<glyph name="germandbls" format="2">
  <advance width="1473"/>
  <unicode hex="00DF"/>
  <outline>
    <contour>
      <point x="884" y="-28" type="qcurve"/>
      <point x="810" y="-28"/>
      <point x="634" y="-2"/>
      <point x="551" y="36" type="qcurve"/>
      <point x="681" y="321" type="line"/>
      <point x="716" y="296"/>
      <point x="790" y="268"/>
      <point x="833" y="268" type="qcurve"/>
      <point x="892" y="268"/>
      <point x="970" y="316"/>
      <point x="970" y="363" type="qcurve"/>
      <point x="970" y="397"/>
      <point x="927" y="462"/>
      <point x="892" y="498" type="qcurve"/>
      <point x="867" y="524"/>
      <point x="817" y="581"/>
      <point x="784" y="648"/>
      <point x="784" y="688" type="qcurve"/>
      <point x="784" y="721"/>
      <point x="812" y="788"/>
      <point x="858" y="854"/>
      <point x="884" y="884" type="qcurve"/>
      <point x="907" y="911"/>
      <point x="947" y="964"/>
      <point x="972" y="1014"/>
      <point x="972" y="1038" type="qcurve"/>
      <point x="972" y="1088"/>
      <point x="890" y="1144"/>
      <point x="824" y="1144" type="qcurve"/>
      <point x="737" y="1144"/>
      <point x="639" y="1031"/>
      <point x="616" y="924" type="qcurve"/>
      <point x="418" y="0" type="line"/>
      <point x="18" y="0" type="line"/>
      <point x="220" y="946" type="line"/>
      <point x="255" y="1113"/>
      <point x="419" y="1347"/>
      <point x="675" y="1470"/>
      <point x="848" y="1470" type="qcurve"/>
      <point x="1008" y="1470"/>
      <point x="1243" y="1385"/>
      <point x="1372" y="1236"/>
      <point x="1372" y="1140" type="qcurve"/>
      <point x="1372" y="1079"/>
      <point x="1332" y="978"/>
      <point x="1275" y="895"/>
      <point x="1250" y="862" type="qcurve"/>
      <point x="1225" y="828"/>
      <point x="1188" y="772"/>
      <point x="1188" y="746" type="qcurve"/>
      <point x="1188" y="721"/>
      <point x="1229" y="668"/>
      <point x="1256" y="636" type="qcurve"/>
      <point x="1284" y="603"/>
      <point x="1343" y="526"/>
      <point x="1384" y="432"/>
      <point x="1384" y="374" type="qcurve"/>
      <point x="1384" y="255"/>
      <point x="1242" y="74"/>
      <point x="1014" y="-28"/>
    </contour>
  </outline>
</glyph>
<glyph name="ae" format="2">
  <advance width="1860"/>
  <unicode hex="00E6"/>
  <anchor x="1003" y="1040" name="top"/>
  <outline>
    <contour>
      <point x="392" y="-30" type="qcurve"/>
      <point x="215" y="-30"/>
      <point x="14" y="141"/>
      <point x="14" y="286" type="qcurve"/>
      <point x="14" y="422"/>
      <point x="201" y="598"/>
      <point x="550" y="669"/>
      <point x="794" y="648" type="qcurve"/>
      <point x="746" y="422" type="line"/>
      <point x="649" y="437"/>
      <point x="484" y="425"/>
      <point x="384" y="371"/>
      <point x="384" y="322" type="qcurve"/>
      <point x="384" y="286"/>
      <point x="444" y="248"/>
      <point x="496" y="248" type="qcurve"/>
      <point x="548" y="248"/>
      <point x="629" y="282"/>
      <point x="683" y="350"/>
      <point x="694" y="402" type="qcurve"/>
      <point x="742" y="620" type="line"/>
      <point x="756" y="699"/>
      <point x="652" y="772"/>
      <point x="532" y="772" type="qcurve"/>
      <point x="457" y="772"/>
      <point x="302" y="728"/>
      <point x="252" y="692" type="qcurve"/>
      <point x="196" y="962" type="line"/>
      <point x="286" y="1018"/>
      <point x="506" y="1070"/>
      <point x="630" y="1070" type="qcurve"/>
      <point x="791" y="1070"/>
      <point x="1005" y="955"/>
      <point x="1054" y="848" type="qcurve"/>
      <point x="914" y="854" type="line"/>
      <point x="994" y="964"/>
      <point x="1217" y="1070"/>
      <point x="1350" y="1070" type="qcurve"/>
      <point x="1534" y="1070"/>
      <point x="1768" y="893"/>
      <point x="1840" y="593"/>
      <point x="1782" y="408" type="qcurve"/>
      <point x="1072" y="408" type="line"/>
      <point x="1077" y="345"/>
      <point x="1200" y="270"/>
      <point x="1296" y="270" type="qcurve"/>
      <point x="1370" y="270"/>
      <point x="1512" y="307"/>
      <point x="1588" y="346" type="qcurve"/>
      <point x="1648" y="72" type="line"/>
      <point x="1603" y="43"/>
      <point x="1474" y="-3"/>
      <point x="1331" y="-30"/>
      <point x="1264" y="-30" type="qcurve"/>
      <point x="1078" y="-30"/>
      <point x="846" y="124"/>
      <point x="832" y="274" type="qcurve"/>
      <point x="936" y="290" type="line"/>
      <point x="878" y="168"/>
      <point x="700" y="28"/>
      <point x="493" y="-30"/>
    </contour>
    <contour>
      <point x="1118" y="668" type="qcurve"/>
      <point x="1452" y="668" type="line"/>
      <point x="1458" y="722"/>
      <point x="1372" y="790"/>
      <point x="1298" y="790" type="qcurve"/>
      <point x="1225" y="790"/>
      <point x="1124" y="722"/>
    </contour>
  </outline>
</glyph>
<glyph name="eth" format="2">
  <advance width="1272"/>
  <unicode hex="00F0"/>
  <outline>
    <contour>
      <point x="570" y="-30" type="qcurve"/>
      <point x="409" y="-30"/>
      <point x="170" y="88"/>
      <point x="38" y="289"/>
      <point x="38" y="414" type="qcurve"/>
      <point x="38" y="524"/>
      <point x="131" y="712"/>
      <point x="291" y="852"/>
      <point x="496" y="930"/>
      <point x="608" y="930" type="qcurve"/>
      <point x="646" y="930"/>
      <point x="748" y="917"/>
      <point x="852" y="875"/>
      <point x="892" y="832" type="qcurve"/>
      <point x="818" y="822" type="line"/>
      <point x="794" y="878"/>
      <point x="712" y="992"/>
      <point x="599" y="1105"/>
      <point x="457" y="1211"/>
      <point x="374" y="1260" type="qcurve"/>
      <point x="690" y="1452" type="line"/>
      <point x="851" y="1354"/>
      <point x="1092" y="1099"/>
      <point x="1226" y="801"/>
      <point x="1226" y="638" type="qcurve"/>
      <point x="1226" y="497"/>
      <point x="1125" y="254"/>
      <point x="944" y="72"/>
      <point x="707" y="-30"/>
    </contour>
    <contour>
      <point x="596" y="300" type="qcurve"/>
      <point x="657" y="300"/>
      <point x="748" y="358"/>
      <point x="798" y="451"/>
      <point x="798" y="504" type="qcurve"/>
      <point x="798" y="550"/>
      <point x="757" y="620"/>
      <point x="682" y="660"/>
      <point x="632" y="660" type="qcurve"/>
      <point x="577" y="660"/>
      <point x="486" y="609"/>
      <point x="432" y="518"/>
      <point x="432" y="458" type="qcurve"/>
      <point x="432" y="412"/>
      <point x="472" y="341"/>
      <point x="546" y="300"/>
    </contour>
    <contour>
      <point x="288" y="902" type="line"/>
      <point x="338" y="1128" type="line"/>
      <point x="734" y="1286" type="line"/>
      <point x="738" y="1300" type="line"/>
      <point x="1152" y="1468" type="line"/>
      <point x="1104" y="1244" type="line"/>
      <point x="706" y="1082" type="line"/>
      <point x="706" y="1068" type="line"/>
    </contour>
  </outline>
</glyph>
<glyph name="divide" format="2">
  <advance width="1297"/>
  <unicode hex="00F7"/>
  <outline>
    <contour>
      <point x="72" y="536" type="line"/>
      <point x="128" y="804" type="line"/>
      <point x="1328" y="804" type="line"/>
      <point x="1272" y="536" type="line"/>
    </contour>
    <contour>
      <point x="596" y="90" type="qcurve"/>
      <point x="526" y="90"/>
      <point x="430" y="186"/>
      <point x="430" y="252" type="qcurve"/>
      <point x="430" y="305"/>
      <point x="488" y="396"/>
      <point x="581" y="452"/>
      <point x="634" y="452" type="qcurve"/>
      <point x="708" y="452"/>
      <point x="800" y="356"/>
      <point x="800" y="288" type="qcurve"/>
      <point x="800" y="236"/>
      <point x="743" y="146"/>
      <point x="650" y="90"/>
    </contour>
    <contour>
      <point x="766" y="886" type="qcurve"/>
      <point x="694" y="886"/>
      <point x="598" y="985"/>
      <point x="598" y="1052" type="qcurve"/>
      <point x="598" y="1104"/>
      <point x="658" y="1193"/>
      <point x="752" y="1248"/>
      <point x="804" y="1248" type="qcurve"/>
      <point x="878" y="1248"/>
      <point x="970" y="1152"/>
      <point x="970" y="1084" type="qcurve"/>
      <point x="970" y="1032"/>
      <point x="913" y="942"/>
      <point x="820" y="886"/>
    </contour>
  </outline>
</glyph>
<glyph name="oslash" format="2">
  <advance width="1292"/>
  <unicode hex="00F8"/>
  <anchor x="754" y="1040" name="top"/>
  <outline>
    <contour>
      <point x="166" y="-114" type="line"/>
      <point x="-6" y="64" type="line"/>
      <point x="130" y="194" type="line"/>
      <point x="91" y="253"/>
      <point x="50" y="391"/>
      <point x="50" y="466" type="qcurve"/>
      <point x="50" y="592"/>
      <point x="154" y="811"/>
      <point x="335" y="977"/>
      <point x="568" y="1070"/>
      <point x="696" y="1070" type="qcurve"/>
      <point x="774" y="1070"/>
      <point x="913" y="1040"/>
      <point x="968" y="1008" type="qcurve"/>
      <point x="1120" y="1156" type="line"/>
      <point x="1292" y="978" type="line"/>
      <point x="1156" y="848" type="line"/>
      <point x="1197" y="790"/>
      <point x="1238" y="649"/>
      <point x="1238" y="572" type="qcurve"/>
      <point x="1238" y="448"/>
      <point x="1134" y="230"/>
      <point x="953" y="64"/>
      <point x="720" y="-30"/>
      <point x="592" y="-30" type="qcurve"/>
      <point x="514" y="-30"/>
      <point x="374" y="1"/>
      <point x="318" y="32" type="qcurve"/>
    </contour>
    <contour>
      <point x="414" y="450" type="qcurve"/>
      <point x="726" y="752" type="line"/>
      <point x="716" y="755"/>
      <point x="691" y="758"/>
      <point x="682" y="758" type="qcurve"/>
      <point x="601" y="758"/>
      <point x="480" y="680"/>
      <point x="412" y="552"/>
      <point x="412" y="476" type="qcurve"/>
      <point x="412" y="470"/>
      <point x="413" y="456"/>
    </contour>
    <contour>
      <point x="590" y="282" type="qcurve"/>
      <point x="673" y="282"/>
      <point x="803" y="358"/>
      <point x="878" y="490"/>
      <point x="878" y="574" type="qcurve"/>
      <point x="878" y="579"/>
      <point x="878" y="590"/>
      <point x="876" y="594" type="qcurve"/>
      <point x="554" y="286" type="line"/>
      <point x="563" y="285"/>
      <point x="581" y="282"/>
    </contour>
  </outline>
</glyph>
<glyph name="thorn" format="2">
  <advance width="1372"/>
  <unicode hex="00FE"/>
  <outline>
    <contour>
      <point x="-69" y="-420" type="line"/>
      <point x="325" y="1440" type="line"/>
      <point x="723" y="1440" type="line"/>
      <point x="633" y="1012" type="line"/>
      <point x="683" y="1042"/>
      <point x="790" y="1070"/>
      <point x="851" y="1070" type="qcurve"/>
      <point x="996" y="1070"/>
      <point x="1209" y="951"/>
      <point x="1325" y="742"/>
      <point x="1325" y="608" type="qcurve"/>
      <point x="1325" y="478"/>
      <point x="1237" y="247"/>
      <point x="1077" y="70"/>
      <point x="860" y="-30"/>
      <point x="731" y="-30" type="qcurve"/>
      <point x="649" y="-30"/>
      <point x="495" y="22"/>
      <point x="435" y="76" type="qcurve"/>
      <point x="329" y="-420" type="line"/>
    </contour>
    <contour>
      <point x="705" y="310" type="qcurve"/>
      <point x="766" y="310"/>
      <point x="869" y="370"/>
      <point x="931" y="480"/>
      <point x="931" y="556" type="qcurve"/>
      <point x="931" y="610"/>
      <point x="884" y="688"/>
      <point x="802" y="730"/>
      <point x="749" y="730" type="qcurve"/>
      <point x="681" y="730"/>
      <point x="579" y="664"/>
      <point x="523" y="557"/>
      <point x="523" y="496" type="qcurve"/>
      <point x="523" y="439"/>
      <point x="569" y="356"/>
      <point x="651" y="310"/>
    </contour>
  </outline>
</glyph>
<glyph name="dcroat" format="2">
  <advance width="1367"/>
  <unicode hex="0111"/>
  <anchor x="1239" y="1224" name="bar"/>
  <anchor x="1549" y="1440" name="caron"/>
  <outline>
    <component base="d"/>
    <contour>
      <point x="1564" y="1118" type="line"/>
      <point x="1633" y="1330" type="line"/>
      <point x="833" y="1330" type="line"/>
      <point x="764" y="1118" type="line"/>
    </contour>
  </outline>
</glyph>
<glyph name="eogonek" format="2">
  <advance width="1238"/>
  <unicode hex="0119"/>
  <anchor x="711" y="1040" name="top"/>
  <anchor x="523" y="0" name="bottom"/>
  <outline>
    <contour>
      <point x="721" y="-449" type="qcurve"/>
      <point x="615" y="-449"/>
      <point x="483" y="-332"/>
      <point x="483" y="-235" type="qcurve"/>
      <point x="483" y="-126"/>
      <point x="629" y="24"/>
      <point x="863" y="107"/>
      <point x="994" y="115" type="qcurve"/>
      <point x="994" y="0" type="line"/>
      <point x="931" y="-3"/>
      <point x="804" y="-29"/>
      <point x="719" y="-95"/>
      <point x="719" y="-158" type="qcurve"/>
      <point x="719" y="-193"/>
      <point x="764" y="-229"/>
      <point x="797" y="-229" type="qcurve"/>
      <point x="821" y="-229"/>
      <point x="882" y="-211"/>
      <point x="906" y="-192" type="qcurve"/>
      <point x="948" y="-389" type="line"/>
      <point x="890" y="-422"/>
      <point x="774" y="-449"/>
    </contour>
    <contour>
      <point x="593" y="-30" type="qcurve"/>
      <point x="427" y="-30"/>
      <point x="185" y="95"/>
      <point x="53" y="316"/>
      <point x="53" y="460" type="qcurve"/>
      <point x="53" y="594"/>
      <point x="146" y="817"/>
      <point x="315" y="980"/>
      <point x="543" y="1070"/>
      <point x="677" y="1070" type="qcurve"/>
      <point x="826" y="1070"/>
      <point x="1048" y="967"/>
      <point x="1178" y="785"/>
      <point x="1205" y="545"/>
      <point x="1159" y="408" type="qcurve"/>
      <point x="403" y="408" type="line"/>
      <point x="404" y="360"/>
      <point x="474" y="299"/>
      <point x="586" y="270"/>
      <point x="649" y="270" type="qcurve"/>
      <point x="732" y="270"/>
      <point x="883" y="305"/>
      <point x="961" y="342" type="qcurve"/>
      <point x="1025" y="65" type="line"/>
      <point x="975" y="38"/>
      <point x="829" y="-5"/>
      <point x="667" y="-30"/>
    </contour>
    <contour>
      <point x="471" y="668" type="qcurve"/>
      <point x="819" y="668" type="line"/>
      <point x="819" y="730"/>
      <point x="727" y="790"/>
      <point x="655" y="790" type="qcurve"/>
      <point x="582" y="790"/>
      <point x="480" y="724"/>
    </contour>
  </outline>
</glyph>
<glyph name="Hbar" format="2">
  <advance width="1621"/>
  <unicode hex="0126"/>
  <outline>
    <contour>
      <point x="1310" y="0" type="line"/>
      <point x="1684" y="1400" type="line"/>
      <point x="1280" y="1400" type="line"/>
      <point x="906" y="0" type="line"/>
    </contour>
    <contour>
      <point x="438" y="0" type="line"/>
      <point x="812" y="1400" type="line"/>
      <point x="408" y="1400" type="line"/>
      <point x="34" y="0" type="line"/>
    </contour>
    <contour>
      <point x="1059" y="458" type="line"/>
      <point x="1158" y="826" type="line"/>
      <point x="626" y="826" type="line"/>
      <point x="527" y="458" type="line"/>
    </contour>
    <contour>
      <point x="1725" y="956" type="line"/>
      <point x="1809" y="1264" type="line"/>
      <point x="213" y="1264" type="line"/>
      <point x="129" y="956" type="line"/>
    </contour>
  </outline>
</glyph>
<glyph name="dotlessi" format="2">
  <advance width="660"/>
  <unicode hex="0131"/>
  <anchor x="440" y="1040" name="top"/>
  <anchor x="220" y="0" name="bottom"/>
  <outline>
    <contour>
      <point x="20" y="0" type="line"/>
      <point x="240" y="1040" type="line"/>
      <point x="640" y="1040" type="line"/>
      <point x="420" y="0" type="line"/>
    </contour>
  </outline>
</glyph>
<glyph name="idotless" format="2">
  <advance width="656"/>
  <unicode hex="0131"/>
  <anchor x="156" y="0" name="bottom"/>
  <anchor x="356" y="0" name="ogonek"/>
  <anchor x="500" y="1040" name="top"/>
  <outline>
    <contour>
      <point x="356" y="0" type="line"/>
      <point x="700" y="1040" type="line"/>
      <point x="300" y="1040" type="line"/>
      <point x="-44" y="0" type="line"/>
    </contour>
  </outline>
</glyph>
<glyph name="kgreenlandic" format="2">
  <advance width="1269"/>
  <unicode hex="0138"/>
  <outline>
    <contour>
      <point x="353" y="0" type="line"/>
      <point x="444" y="267" type="line"/>
      <point x="535" y="344" type="line"/>
      <point x="638" y="0" type="line"/>
      <point x="1086" y="0" type="line"/>
      <point x="891" y="587" type="line"/>
      <point x="1406" y="1040" type="line"/>
      <point x="915" y="1040" type="line"/>
      <point x="609" y="778" type="line"/>
      <point x="700" y="1040" type="line"/>
      <point x="300" y="1040" type="line"/>
      <point x="-47" y="0" type="line"/>
    </contour>
  </outline>
</glyph>
<glyph name="Lslash" format="2">
  <advance width="1192"/>
  <unicode hex="0141"/>
  <anchor x="589" y="1400" name="top"/>
  <anchor x="801" y="1440" name="Anchor_2"/>
  <anchor x="556" y="0" name="bottom"/>
  <outline>
    <contour>
      <point x="42" y="396" type="line"/>
      <point x="-72" y="664" type="line"/>
      <point x="454" y="886" type="line"/>
      <point x="446" y="846" type="line"/>
      <point x="1070" y="1112" type="line"/>
      <point x="1184" y="844" type="line"/>
      <point x="372" y="498" type="line"/>
      <point x="380" y="538" type="line"/>
    </contour>
    <contour>
      <point x="88" y="0" type="line"/>
      <point x="387" y="1400" type="line"/>
      <point x="791" y="1400" type="line"/>
      <point x="571" y="368" type="line"/>
      <point x="1101" y="368" type="line"/>
      <point x="1022" y="0" type="line"/>
    </contour>
  </outline>
</glyph>
<glyph name="lslash" format="2">
  <advance width="836"/>
  <unicode hex="0142"/>
  <anchor x="615" y="1440" name="top"/>
  <anchor x="815" y="1440" name="Anchor_2"/>
  <anchor x="304" y="0" name="bottom"/>
  <outline>
    <component base="l" xOffset="80"/>
    <contour>
      <point x="102" y="389" type="line"/>
      <point x="-12" y="667" type="line"/>
      <point x="478" y="878" type="line"/>
      <point x="474" y="838" type="line"/>
      <point x="800" y="973" type="line"/>
      <point x="915" y="691" type="line"/>
      <point x="426" y="490" type="line"/>
      <point x="432" y="530" type="line"/>
    </contour>
  </outline>
</glyph>
<glyph name="Eng" format="2">
  <advance width="1599"/>
  <unicode hex="014A"/>
  <outline>
    <contour>
      <point x="962" y="-66" type="line"/>
      <point x="604" y="776" type="line"/>
      <point x="438" y="0" type="line"/>
      <point x="48" y="0" type="line"/>
      <point x="344" y="1400" type="line"/>
      <point x="740" y="1400" type="line"/>
      <point x="1092" y="596" type="line"/>
    </contour>
    <contour>
      <point x="864" y="-450" type="qcurve"/>
      <point x="767" y="-450"/>
      <point x="638" y="-414"/>
      <point x="576" y="-374" type="qcurve"/>
      <point x="704" y="-98" type="line"/>
      <point x="730" y="-113"/>
      <point x="783" y="-126"/>
      <point x="814" y="-126" type="qcurve"/>
      <point x="862" y="-126"/>
      <point x="923" y="-82"/>
      <point x="932" y="-40" type="qcurve"/>
      <point x="1238" y="1400" type="line"/>
      <point x="1628" y="1400" type="line"/>
      <point x="1324" y="-36" type="line"/>
      <point x="1297" y="-163"/>
      <point x="1167" y="-349"/>
      <point x="979" y="-450"/>
    </contour>
  </outline>
</glyph>
<glyph name="eng" format="2">
  <advance width="1354"/>
  <unicode hex="014B"/>
  <outline>
    <contour>
      <point x="566" y="-450" type="curve" smooth="yes"/>
      <point x="788" y="-450"/>
      <point x="968" y="-296"/>
      <point x="1053" y="-36" type="curve" smooth="yes"/>
      <point x="1284" y="662" type="line"/>
      <point x="1356" y="896"/>
      <point x="1216" y="1070"/>
      <point x="1003" y="1070" type="curve" smooth="yes"/>
      <point x="875" y="1070"/>
      <point x="753" y="1014"/>
      <point x="653" y="894" type="curve"/>
      <point x="700" y="1040" type="line"/>
      <point x="300" y="1040" type="line"/>
      <point x="-47" y="0" type="line"/>
      <point x="353" y="0" type="line"/>
      <point x="531" y="536" type="line" smooth="yes"/>
      <point x="569" y="657"/>
      <point x="650" y="713"/>
      <point x="755" y="713" type="curve" smooth="yes"/>
      <point x="867" y="713"/>
      <point x="884" y="652"/>
      <point x="843" y="536" type="curve"/>
      <point x="662" y="-14" type="line" smooth="yes"/>
      <point x="637" y="-93"/>
      <point x="584" y="-123"/>
      <point x="523" y="-123" type="curve" smooth="yes"/>
      <point x="485" y="-123"/>
      <point x="456" y="-115"/>
      <point x="428" y="-97" type="curve"/>
      <point x="270" y="-365" type="line"/>
      <point x="279" y="-399"/>
      <point x="413" y="-450"/>
    </contour>
  </outline>
</glyph>
<glyph name="OE" format="2">
  <advance width="2315"/>
  <unicode hex="0152"/>
  <outline>
    <contour>
      <point x="699" y="-30" type="curve" smooth="yes"/>
      <point x="937" y="-30"/>
      <point x="1107" y="56"/>
      <point x="1190" y="196" type="curve"/>
      <point x="1193" y="242" type="line"/>
      <point x="1114" y="0" type="line"/>
      <point x="2042" y="0" type="line"/>
      <point x="2158" y="352" type="line"/>
      <point x="1516" y="352" type="line"/>
      <point x="1582" y="552" type="line"/>
      <point x="2102" y="552" type="line"/>
      <point x="2208" y="870" type="line"/>
      <point x="1688" y="870" type="line"/>
      <point x="1747" y="1052" type="line"/>
      <point x="2381" y="1052" type="line"/>
      <point x="2497" y="1400" type="line"/>
      <point x="1468" y="1400" type="line"/>
      <point x="1374" y="1107" type="line"/>
      <point x="1471" y="1190" type="line"/>
      <point x="1360" y="1369"/>
      <point x="1194" y="1430"/>
      <point x="931" y="1430" type="curve" smooth="yes"/>
      <point x="492" y="1430"/>
      <point x="128" y="1035"/>
      <point x="128" y="563" type="curve" smooth="yes"/>
      <point x="128" y="224"/>
      <point x="364" y="-30"/>
    </contour>
    <contour>
      <point x="844" y="348" type="curve" smooth="yes"/>
      <point x="666" y="348"/>
      <point x="558" y="447"/>
      <point x="558" y="609" type="curve" smooth="yes"/>
      <point x="558" y="844"/>
      <point x="716" y="1052"/>
      <point x="951" y="1052" type="curve" smooth="yes"/>
      <point x="1129" y="1052"/>
      <point x="1237" y="950"/>
      <point x="1237" y="784" type="curve" smooth="yes"/>
      <point x="1237" y="553"/>
      <point x="1079" y="348"/>
    </contour>
  </outline>
</glyph>
<glyph name="oe" format="2">
  <advance width="2019"/>
  <unicode hex="0153"/>
  <outline>
    <contour>
      <point x="565" y="-30" type="curve" smooth="yes"/>
      <point x="899" y="-30"/>
      <point x="1203" y="252"/>
      <point x="1203" y="598" type="curve" smooth="yes"/>
      <point x="1203" y="861"/>
      <point x="1016" y="1070"/>
      <point x="701" y="1070" type="curve" smooth="yes"/>
      <point x="359" y="1070"/>
      <point x="47" y="788"/>
      <point x="47" y="447" type="curve" smooth="yes"/>
      <point x="47" y="182"/>
      <point x="243" y="-30"/>
    </contour>
    <contour>
      <point x="617" y="310" type="curve" smooth="yes"/>
      <point x="513" y="310"/>
      <point x="440" y="377"/>
      <point x="440" y="482" type="curve" smooth="yes"/>
      <point x="440" y="607"/>
      <point x="531" y="730"/>
      <point x="673" y="730" type="curve" smooth="yes"/>
      <point x="779" y="730"/>
      <point x="850" y="665"/>
      <point x="850" y="558" type="curve" smooth="yes"/>
      <point x="850" y="436"/>
      <point x="760" y="310"/>
    </contour>
    <contour>
      <point x="1373" y="-30" type="curve" smooth="yes"/>
      <point x="1514" y="-30"/>
      <point x="1687" y="8"/>
      <point x="1785" y="60" type="curve"/>
      <point x="1737" y="339" type="line"/>
      <point x="1637" y="293"/>
      <point x="1543" y="270"/>
      <point x="1443" y="270" type="curve" smooth="yes"/>
      <point x="1320" y="270"/>
      <point x="1186" y="306"/>
      <point x="1180" y="408" type="curve"/>
      <point x="1940" y="408" type="line"/>
      <point x="2073" y="776"/>
      <point x="1891" y="1070"/>
      <point x="1503" y="1070" type="curve" smooth="yes"/>
      <point x="1138" y="1070"/>
      <point x="875" y="778"/>
      <point x="875" y="418" type="curve" smooth="yes"/>
      <point x="875" y="147"/>
      <point x="1062" y="-30"/>
    </contour>
    <contour>
      <point x="1260" y="668" type="line"/>
      <point x="1271" y="743"/>
      <point x="1347" y="790"/>
      <point x="1447" y="790" type="curve" smooth="yes"/>
      <point x="1542" y="790"/>
      <point x="1610" y="753"/>
      <point x="1610" y="668" type="curve"/>
    </contour>
  </outline>
</glyph>
<glyph name="Uogonek" format="2">
  <advance width="1545"/>
  <unicode hex="0172"/>
  <anchor x="959" y="1400" name="top"/>
  <outline>
    <contour>
      <point x="804" y="-449" type="qcurve"/>
      <point x="698" y="-449"/>
      <point x="566" y="-332"/>
      <point x="566" y="-235" type="qcurve"/>
      <point x="566" y="-173"/>
      <point x="606" y="-69"/>
      <point x="640" y="-27" type="qcurve"/>
      <point x="461" y="-14"/>
      <point x="221" y="141"/>
      <point x="127" y="411"/>
      <point x="167" y="596" type="qcurve"/>
      <point x="337" y="1400" type="line"/>
      <point x="741" y="1400" type="line"/>
      <point x="565" y="574" type="line"/>
      <point x="541" y="462"/>
      <point x="630" y="348"/>
      <point x="745" y="348" type="qcurve"/>
      <point x="841" y="348"/>
      <point x="974" y="453"/>
      <point x="999" y="574" type="qcurve"/>
      <point x="1175" y="1400" type="line"/>
      <point x="1581" y="1400" type="line"/>
      <point x="1411" y="596" type="line"/>
      <point x="1364" y="372"/>
      <point x="1132" y="67"/>
      <point x="950" y="6" type="qcurve"/>
      <point x="889" y="-13"/>
      <point x="802" y="-87"/>
      <point x="802" y="-158" type="qcurve"/>
      <point x="802" y="-193"/>
      <point x="847" y="-229"/>
      <point x="880" y="-229" type="qcurve"/>
      <point x="904" y="-229"/>
      <point x="965" y="-211"/>
      <point x="989" y="-192" type="qcurve"/>
      <point x="1031" y="-389" type="line"/>
      <point x="973" y="-422"/>
      <point x="857" y="-449"/>
    </contour>
  </outline>
</glyph>
<glyph name="uogonek" format="2">
  <advance width="1328"/>
  <unicode hex="0173"/>
  <anchor x="780" y="1040" name="top"/>
  <anchor x="1310" y="1040" name="horn"/>
  <anchor x="546" y="0" name="bottom"/>
  <outline>
    <contour>
      <point x="815" y="-449" type="qcurve"/>
      <point x="709" y="-449"/>
      <point x="577" y="-332"/>
      <point x="577" y="-235" type="qcurve"/>
      <point x="577" y="-126"/>
      <point x="723" y="24"/>
      <point x="957" y="107"/>
      <point x="1088" y="115" type="qcurve"/>
      <point x="1088" y="0" type="line"/>
      <point x="1025" y="-3"/>
      <point x="898" y="-29"/>
      <point x="813" y="-95"/>
      <point x="813" y="-158" type="qcurve"/>
      <point x="813" y="-193"/>
      <point x="858" y="-229"/>
      <point x="891" y="-229" type="qcurve"/>
      <point x="915" y="-229"/>
      <point x="976" y="-211"/>
      <point x="1000" y="-192" type="qcurve"/>
      <point x="1042" y="-389" type="line"/>
      <point x="984" y="-422"/>
      <point x="868" y="-449"/>
    </contour>
    <contour>
      <point x="426" y="-30" type="qcurve"/>
      <point x="296" y="-30"/>
      <point x="131" y="79"/>
      <point x="72" y="284"/>
      <point x="100" y="428" type="qcurve"/>
      <point x="230" y="1040" type="line"/>
      <point x="630" y="1040" type="line"/>
      <point x="512" y="482" type="line"/>
      <point x="499" y="407"/>
      <point x="539" y="330"/>
      <point x="610" y="330" type="qcurve"/>
      <point x="659" y="330"/>
      <point x="732" y="365"/>
      <point x="781" y="433"/>
      <point x="792" y="482" type="qcurve"/>
      <point x="910" y="1040" type="line"/>
      <point x="1310" y="1040" type="line"/>
      <point x="1088" y="0" type="line"/>
      <point x="748" y="0" type="line"/>
      <point x="778" y="136" type="line"/>
      <point x="727" y="72"/>
      <point x="558" y="-30"/>
    </contour>
  </outline>
</glyph>
<glyph name="Schwa" format="2">
  <advance width="1623"/>
  <unicode hex="018F"/>
  <outline>
    <contour>
      <point x="761" y="-30" type="qcurve"/>
      <point x="568" y="-30"/>
      <point x="287" y="91"/>
      <point x="123" y="316"/>
      <point x="86" y="629"/>
      <point x="135" y="822" type="qcurve"/>
      <point x="1369" y="822" type="line"/>
      <point x="1301" y="526" type="line"/>
      <point x="317" y="526" type="line"/>
      <point x="505" y="680" type="line"/>
      <point x="487" y="595"/>
      <point x="505" y="458"/>
      <point x="578" y="360"/>
      <point x="703" y="308"/>
      <point x="791" y="308" type="qcurve"/>
      <point x="885" y="308"/>
      <point x="1028" y="377"/>
      <point x="1125" y="500"/>
      <point x="1175" y="662"/>
      <point x="1175" y="754" type="qcurve"/>
      <point x="1175" y="847"/>
      <point x="1090" y="983"/>
      <point x="919" y="1056"/>
      <point x="789" y="1056" type="qcurve"/>
      <point x="692" y="1056"/>
      <point x="499" y="1002"/>
      <point x="425" y="946" type="qcurve"/>
      <point x="305" y="1273" type="line"/>
      <point x="407" y="1336"/>
      <point x="681" y="1430"/>
      <point x="853" y="1430" type="qcurve"/>
      <point x="1077" y="1430"/>
      <point x="1410" y="1283"/>
      <point x="1593" y="1003"/>
      <point x="1593" y="804" type="qcurve"/>
      <point x="1593" y="627"/>
      <point x="1467" y="323"/>
      <point x="1240" y="97"/>
      <point x="937" y="-30"/>
    </contour>
  </outline>
</glyph>
<glyph name="florin" format="2">
  <advance width="1296"/>
  <unicode hex="0192"/>
  <outline>
    <contour>
      <point x="238" y="-450" type="curve" smooth="yes"/>
      <point x="494" y="-450"/>
      <point x="674" y="-296"/>
      <point x="746" y="28" type="curve" smooth="yes"/>
      <point x="951" y="926" type="line" smooth="yes"/>
      <point x="982" y="1056"/>
      <point x="1041" y="1100"/>
      <point x="1123" y="1100" type="curve" smooth="yes"/>
      <point x="1161" y="1100"/>
      <point x="1201" y="1092"/>
      <point x="1247" y="1074" type="curve"/>
      <point x="1317" y="1384" type="line"/>
      <point x="1231" y="1418"/>
      <point x="1147" y="1430"/>
      <point x="1065" y="1430" type="curve" smooth="yes"/>
      <point x="799" y="1430"/>
      <point x="632" y="1276"/>
      <point x="557" y="952" type="curve" smooth="yes"/>
      <point x="350" y="52" type="line" smooth="yes"/>
      <point x="322" y="-76"/>
      <point x="262" y="-120"/>
      <point x="180" y="-120" type="curve" smooth="yes"/>
      <point x="142" y="-120"/>
      <point x="102" y="-112"/>
      <point x="56" y="-94" type="curve"/>
      <point x="-14" y="-404" type="line"/>
      <point x="72" y="-438"/>
      <point x="156" y="-450"/>
    </contour>
    <contour>
      <point x="1185" y="560" type="line"/>
      <point x="1269" y="810" type="line"/>
      <point x="229" y="810" type="line"/>
      <point x="145" y="560" type="line"/>
    </contour>
  </outline>
</glyph>
<glyph name="Oogonek" format="2">
  <advance width="1664"/>
  <unicode hex="01EA"/>
  <anchor x="982" y="1400" name="top"/>
  <outline>
    <contour>
      <point x="751" y="-449" type="qcurve"/>
      <point x="645" y="-449"/>
      <point x="513" y="-332"/>
      <point x="513" y="-235" type="qcurve"/>
      <point x="513" y="-136"/>
      <point x="641" y="3"/>
      <point x="851" y="86"/>
      <point x="972" y="99" type="qcurve"/>
      <point x="940" y="-18" type="line"/>
      <point x="865" y="-28"/>
      <point x="749" y="-89"/>
      <point x="749" y="-158" type="qcurve"/>
      <point x="749" y="-193"/>
      <point x="794" y="-229"/>
      <point x="827" y="-229" type="qcurve"/>
      <point x="843" y="-229"/>
      <point x="882" y="-221"/>
      <point x="920" y="-204"/>
      <point x="936" y="-192" type="qcurve"/>
      <point x="978" y="-389" type="line"/>
      <point x="920" y="-422"/>
      <point x="804" y="-449"/>
    </contour>
    <contour>
      <point x="802" y="-30" type="qcurve"/>
      <point x="645" y="-30"/>
      <point x="390" y="66"/>
      <point x="207" y="240"/>
      <point x="108" y="475"/>
      <point x="108" y="614" type="qcurve"/>
      <point x="108" y="785"/>
      <point x="237" y="1081"/>
      <point x="465" y="1305"/>
      <point x="765" y="1430"/>
      <point x="936" y="1430" type="qcurve"/>
      <point x="1094" y="1430"/>
      <point x="1350" y="1331"/>
      <point x="1533" y="1155"/>
      <point x="1632" y="919"/>
      <point x="1632" y="782" type="qcurve"/>
      <point x="1632" y="613"/>
      <point x="1502" y="319"/>
      <point x="1274" y="96"/>
      <point x="973" y="-30"/>
    </contour>
    <contour>
      <point x="836" y="348" type="qcurve"/>
      <point x="919" y="348"/>
      <point x="1054" y="411"/>
      <point x="1153" y="522"/>
      <point x="1206" y="671"/>
      <point x="1206" y="756" type="qcurve"/>
      <point x="1206" y="847"/>
      <point x="1132" y="980"/>
      <point x="996" y="1052"/>
      <point x="904" y="1052" type="qcurve"/>
      <point x="822" y="1052"/>
      <point x="686" y="989"/>
      <point x="587" y="878"/>
      <point x="534" y="730"/>
      <point x="534" y="644" type="qcurve"/>
      <point x="534" y="553"/>
      <point x="608" y="420"/>
      <point x="744" y="348"/>
    </contour>
  </outline>
</glyph>
<glyph name="oogonek" format="2">
  <advance width="1295"/>
  <unicode hex="01EB"/>
  <anchor x="779" y="1040" name="top"/>
  <outline>
    <contour>
      <point x="504" y="-448" type="curve" smooth="yes"/>
      <point x="564" y="-448"/>
      <point x="636" y="-439"/>
      <point x="716" y="-400" type="curve"/>
      <point x="699" y="-202" type="line"/>
      <point x="665" y="-224"/>
      <point x="616" y="-233"/>
      <point x="586" y="-233" type="curve" smooth="yes"/>
      <point x="545" y="-233"/>
      <point x="510" y="-212"/>
      <point x="510" y="-165" type="curve" smooth="yes"/>
      <point x="510" y="-73"/>
      <point x="590" y="-36"/>
      <point x="670" y="-22" type="curve" smooth="yes"/>
      <point x="976" y="31"/>
      <point x="1248" y="287"/>
      <point x="1248" y="611" type="curve" smooth="yes"/>
      <point x="1248" y="864"/>
      <point x="1055" y="1070"/>
      <point x="729" y="1070" type="curve" smooth="yes"/>
      <point x="384" y="1070"/>
      <point x="47" y="789"/>
      <point x="47" y="433" type="curve" smooth="yes"/>
      <point x="47" y="227"/>
      <point x="169" y="53"/>
      <point x="388" y="-7" type="curve"/>
      <point x="318" y="-65"/>
      <point x="273" y="-142"/>
      <point x="273" y="-244" type="curve" smooth="yes"/>
      <point x="273" y="-371"/>
      <point x="366" y="-448"/>
    </contour>
    <contour>
      <point x="613" y="310" type="curve" smooth="yes"/>
      <point x="511" y="310"/>
      <point x="441" y="374"/>
      <point x="441" y="473" type="curve" smooth="yes"/>
      <point x="441" y="597"/>
      <point x="534" y="730"/>
      <point x="682" y="730" type="curve" smooth="yes"/>
      <point x="787" y="730"/>
      <point x="854" y="669"/>
      <point x="854" y="570" type="curve" smooth="yes"/>
      <point x="854" y="446"/>
      <point x="766" y="310"/>
    </contour>
  </outline>
</glyph>
<glyph name="dotlessj" format="2">
  <advance width="660"/>
  <unicode hex="0237"/>
  <anchor x="441" y="1040" name="top"/>
  <outline>
    <contour>
      <point x="-47" y="-450" type="qcurve"/>
      <point x="-143" y="-450"/>
      <point x="-273" y="-414"/>
      <point x="-335" y="-372" type="qcurve"/>
      <point x="-207" y="-98" type="line"/>
      <point x="-184" y="-113"/>
      <point x="-135" y="-126"/>
      <point x="-107" y="-126" type="qcurve"/>
      <point x="-59" y="-126"/>
      <point x="5" y="-72"/>
      <point x="17" y="-14" type="qcurve"/>
      <point x="241" y="1040" type="line"/>
      <point x="641" y="1040" type="line"/>
      <point x="413" y="-36" type="line"/>
      <point x="386" y="-163"/>
      <point x="256" y="-349"/>
      <point x="68" y="-450"/>
    </contour>
  </outline>
</glyph>
<glyph name="jdotless" format="2">
  <advance width="656"/>
  <unicode hex="0237"/>
  <anchor x="502" y="1040" name="top"/>
  <outline>
    <contour>
      <point x="-142" y="-450" type="curve" smooth="yes"/>
      <point x="80" y="-450"/>
      <point x="261" y="-296"/>
      <point x="345" y="-36" type="curve" smooth="yes"/>
      <point x="702" y="1040" type="line"/>
      <point x="302" y="1040" type="line"/>
      <point x="-48" y="-14" type="line" smooth="yes"/>
      <point x="-73" y="-93"/>
      <point x="-123" y="-126"/>
      <point x="-185" y="-126" type="curve" smooth="yes"/>
      <point x="-223" y="-126"/>
      <point x="-255" y="-118"/>
      <point x="-283" y="-97" type="curve"/>
      <point x="-441" y="-361" type="line"/>
      <point x="-360" y="-424"/>
      <point x="-276" y="-450"/>
    </contour>
  </outline>
</glyph>
<glyph name="schwa" format="2">
  <advance width="1241"/>
  <unicode hex="0259"/>
  <outline>
    <contour>
      <point x="539" y="-30" type="curve" smooth="yes"/>
      <point x="898" y="-30"/>
      <point x="1189" y="242"/>
      <point x="1189" y="598" type="curve" smooth="yes"/>
      <point x="1189" y="917"/>
      <point x="944" y="1070"/>
      <point x="654" y="1070" type="curve" smooth="yes"/>
      <point x="522" y="1070"/>
      <point x="354" y="1036"/>
      <point x="252" y="984" type="curve"/>
      <point x="287" y="701" type="line"/>
      <point x="385" y="745"/>
      <point x="483" y="770"/>
      <point x="580" y="770" type="curve" smooth="yes"/>
      <point x="757" y="770"/>
      <point x="841" y="715"/>
      <point x="841" y="598" type="curve" smooth="yes"/>
      <point x="841" y="432"/>
      <point x="752" y="250"/>
      <point x="562" y="250" type="curve" smooth="yes"/>
      <point x="399" y="250"/>
      <point x="343" y="351"/>
      <point x="390" y="559" type="curve"/>
      <point x="183" y="382" type="line"/>
      <point x="902" y="382" type="line"/>
      <point x="989" y="642" type="line"/>
      <point x="86" y="642" type="line"/>
      <point x="-54" y="287"/>
      <point x="138" y="-30"/>
    </contour>
  </outline>
</glyph>
<glyph name="gravecomb" format="2">
  <unicode hex="0300"/>
  <anchor x="-744" y="1040" name="_top"/>
  <outline>
    <contour>
      <point x="-501" y="1170" type="line"/>
      <point x="-585" y="1544" type="line"/>
      <point x="-968" y="1544" type="line"/>
      <point x="-856" y="1170" type="line"/>
    </contour>
  </outline>
</glyph>
<glyph name="acutecomb" format="2">
  <unicode hex="0301"/>
  <anchor x="-706" y="1040" name="top"/>
  <outline>
    <contour>
      <point x="-878" y="1170" type="line"/>
      <point x="-614" y="1544" type="line"/>
      <point x="-206" y="1544" type="line"/>
      <point x="-508" y="1170" type="line"/>
    </contour>
  </outline>
</glyph>
<glyph name="circumflexcomb" format="2">
  <unicode hex="0302"/>
  <anchor x="-744" y="1040" name="_top"/>
  <anchor x="-597" y="1484" name="top"/>
  <anchor x="-149" y="1384" name="top_right"/>
  <outline>
    <contour>
      <point x="-801" y="1170" type="line"/>
      <point x="-632" y="1325" type="line"/>
      <point x="-577" y="1170" type="line"/>
      <point x="-239" y="1170" type="line"/>
      <point x="-406" y="1544" type="line"/>
      <point x="-746" y="1544" type="line"/>
      <point x="-1193" y="1170" type="line"/>
    </contour>
  </outline>
</glyph>
<glyph name="tildecomb" format="2">
  <unicode hex="0303"/>
  <anchor x="-706" y="1040" name="top"/>
  <anchor x="-616" y="1464" name="top.1"/>
  <outline>
    <contour>
      <point x="-994" y="1140" type="qcurve"/>
      <point x="-1112" y="1310" type="line"/>
      <point x="-1049" y="1424"/>
      <point x="-884" y="1544"/>
      <point x="-788" y="1544" type="qcurve"/>
      <point x="-712" y="1544"/>
      <point x="-599" y="1490"/>
      <point x="-498" y="1436"/>
      <point x="-440" y="1436" type="qcurve"/>
      <point x="-393" y="1436"/>
      <point x="-312" y="1502"/>
      <point x="-278" y="1572" type="qcurve"/>
      <point x="-168" y="1402" type="line"/>
      <point x="-201" y="1287"/>
      <point x="-363" y="1170"/>
      <point x="-464" y="1170" type="qcurve"/>
      <point x="-543" y="1170"/>
      <point x="-666" y="1224"/>
      <point x="-772" y="1278"/>
      <point x="-826" y="1278" type="qcurve"/>
      <point x="-874" y="1278"/>
      <point x="-959" y="1211"/>
    </contour>
  </outline>
</glyph>
<glyph name="macroncomb" format="2">
  <unicode hex="0304"/>
  <anchor x="-528" y="1040" name="top"/>
  <outline>
    <contour>
      <point x="-874" y="1230" type="line"/>
      <point x="-826" y="1462" type="line"/>
      <point x="-50" y="1462" type="line"/>
      <point x="-98" y="1230" type="line"/>
    </contour>
  </outline>
</glyph>
<glyph name="brevecomb" format="2">
  <unicode hex="0306"/>
  <anchor x="-704" y="1040" name="top"/>
  <anchor x="-610" y="1484" name="top.1"/>
  <outline>
    <contour>
      <point x="-630" y="1160" type="qcurve"/>
      <point x="-763" y="1160"/>
      <point x="-960" y="1254"/>
      <point x="-1059" y="1427"/>
      <point x="-1044" y="1544" type="qcurve"/>
      <point x="-722" y="1544" type="line"/>
      <point x="-732" y="1490"/>
      <point x="-677" y="1410"/>
      <point x="-616" y="1410" type="qcurve"/>
      <point x="-560" y="1410"/>
      <point x="-488" y="1483"/>
      <point x="-484" y="1544" type="qcurve"/>
      <point x="-164" y="1544" type="line"/>
      <point x="-174" y="1429"/>
      <point x="-299" y="1256"/>
      <point x="-503" y="1160"/>
    </contour>
  </outline>
</glyph>
<glyph name="dotaccentcomb" format="2">
  <unicode hex="0307"/>
  <anchor x="-526" y="1040" name="top"/>
  <anchor x="-432" y="1484" name="top.1"/>
  <outline>
    <contour>
      <point x="-468" y="1174" type="qcurve"/>
      <point x="-558" y="1174"/>
      <point x="-684" y="1274"/>
      <point x="-684" y="1362" type="qcurve"/>
      <point x="-684" y="1470"/>
      <point x="-535" y="1598"/>
      <point x="-436" y="1598" type="qcurve"/>
      <point x="-344" y="1598"/>
      <point x="-220" y="1498"/>
      <point x="-220" y="1408" type="qcurve"/>
      <point x="-220" y="1306"/>
      <point x="-364" y="1174"/>
    </contour>
  </outline>
</glyph>
<glyph name="dieresiscomb" format="2">
  <unicode hex="0308"/>
  <anchor x="-708" y="1040" name="top"/>
  <anchor x="-614" y="1484" name="top.1"/>
  <outline>
    <contour>
      <point x="-932" y="1170" type="qcurve"/>
      <point x="-1010" y="1170"/>
      <point x="-1124" y="1268"/>
      <point x="-1124" y="1350" type="qcurve"/>
      <point x="-1124" y="1421"/>
      <point x="-1055" y="1523"/>
      <point x="-949" y="1578"/>
      <point x="-892" y="1578" type="qcurve"/>
      <point x="-814" y="1578"/>
      <point x="-700" y="1481"/>
      <point x="-700" y="1398" type="qcurve"/>
      <point x="-700" y="1327"/>
      <point x="-768" y="1225"/>
      <point x="-875" y="1170"/>
    </contour>
    <contour>
      <point x="-384" y="1170" type="qcurve"/>
      <point x="-462" y="1170"/>
      <point x="-576" y="1268"/>
      <point x="-576" y="1350" type="qcurve"/>
      <point x="-576" y="1421"/>
      <point x="-507" y="1523"/>
      <point x="-401" y="1578"/>
      <point x="-344" y="1578" type="qcurve"/>
      <point x="-266" y="1578"/>
      <point x="-152" y="1481"/>
      <point x="-152" y="1398" type="qcurve"/>
      <point x="-152" y="1327"/>
      <point x="-220" y="1225"/>
      <point x="-327" y="1170"/>
    </contour>
  </outline>
</glyph>
<glyph name="hookabovecomb" format="2">
  <unicode hex="0309"/>
  <anchor x="-706" y="1040" name="top"/>
  <outline>
    <contour>
      <point x="-794" y="1170" type="line"/>
      <point x="-824" y="1239"/>
      <point x="-783" y="1329"/>
      <point x="-710" y="1348" type="qcurve"/>
      <point x="-672" y="1359"/>
      <point x="-642" y="1377"/>
      <point x="-642" y="1396" type="qcurve"/>
      <point x="-642" y="1411"/>
      <point x="-694" y="1426"/>
      <point x="-732" y="1426" type="qcurve"/>
      <point x="-769" y="1426"/>
      <point x="-832" y="1412"/>
      <point x="-864" y="1400" type="qcurve"/>
      <point x="-878" y="1588" type="line"/>
      <point x="-827" y="1611"/>
      <point x="-692" y="1634"/>
      <point x="-626" y="1634" type="qcurve"/>
      <point x="-485" y="1634"/>
      <point x="-328" y="1537"/>
      <point x="-328" y="1454" type="qcurve"/>
      <point x="-328" y="1379"/>
      <point x="-412" y="1292"/>
      <point x="-480" y="1262" type="qcurve"/>
      <point x="-531" y="1240"/>
      <point x="-567" y="1203"/>
      <point x="-558" y="1170" type="qcurve"/>
    </contour>
  </outline>
</glyph>
<glyph name="ringcomb" format="2">
  <unicode hex="030A"/>
  <anchor x="-754" y="1040" name="_top"/>
  <anchor x="-572" y="1584" name="top"/>
  <outline>
    <contour>
      <point x="-682" y="1110" type="curve" smooth="yes"/>
      <point x="-503" y="1110"/>
      <point x="-334" y="1248"/>
      <point x="-334" y="1426" type="curve" smooth="yes"/>
      <point x="-334" y="1563"/>
      <point x="-438" y="1666"/>
      <point x="-594" y="1666" type="curve" smooth="yes"/>
      <point x="-775" y="1666"/>
      <point x="-942" y="1528"/>
      <point x="-942" y="1347" type="curve" smooth="yes"/>
      <point x="-942" y="1213"/>
      <point x="-837" y="1110"/>
    </contour>
    <contour>
      <point x="-657" y="1288" type="curve" smooth="yes"/>
      <point x="-711" y="1288"/>
      <point x="-741" y="1321"/>
      <point x="-741" y="1366" type="curve" smooth="yes"/>
      <point x="-741" y="1434"/>
      <point x="-686" y="1488"/>
      <point x="-619" y="1488" type="curve" smooth="yes"/>
      <point x="-566" y="1488"/>
      <point x="-535" y="1455"/>
      <point x="-535" y="1410" type="curve" smooth="yes"/>
      <point x="-535" y="1343"/>
      <point x="-591" y="1288"/>
    </contour>
  </outline>
</glyph>
<glyph name="hungarumlautcomb" format="2">
  <unicode hex="030B"/>
  <anchor x="-744" y="1040" name="_top"/>
  <outline>
    <contour>
      <point x="-282" y="1170" type="line"/>
      <point x="39" y="1544" type="line"/>
      <point x="-347" y="1544" type="line"/>
      <point x="-629" y="1170" type="line"/>
    </contour>
    <contour>
      <point x="-792" y="1170" type="line"/>
      <point x="-472" y="1544" type="line"/>
      <point x="-857" y="1544" type="line"/>
      <point x="-1139" y="1170" type="line"/>
    </contour>
  </outline>
</glyph>
<glyph name="caroncomb" format="2">
  <unicode hex="030C"/>
  <anchor x="-744" y="1040" name="_top"/>
  <outline>
    <contour>
      <point x="-531" y="1170" type="line"/>
      <point x="-83" y="1544" type="line"/>
      <point x="-475" y="1544" type="line"/>
      <point x="-641" y="1386" type="line"/>
      <point x="-699" y="1544" type="line"/>
      <point x="-1040" y="1544" type="line"/>
      <point x="-867" y="1170" type="line"/>
    </contour>
  </outline>
</glyph>
<glyph name="dblgravecomb" format="2">
  <unicode hex="030F"/>
  <anchor x="-706" y="1040" name="top"/>
  <outline>
    <contour>
      <point x="-558" y="1170" type="line"/>
      <point x="-702" y="1544" type="line"/>
      <point x="-348" y="1544" type="line"/>
      <point x="-238" y="1170" type="line"/>
    </contour>
    <contour>
      <point x="-1068" y="1170" type="line"/>
      <point x="-1212" y="1544" type="line"/>
      <point x="-858" y="1544" type="line"/>
      <point x="-748" y="1170" type="line"/>
    </contour>
  </outline>
</glyph>
<glyph name="breveinvertedcomb" format="2">
  <unicode hex="0311"/>
  <anchor x="-706" y="1040" name="top"/>
  <outline>
    <contour>
      <point x="-1112" y="1170" type="line"/>
      <point x="-1102" y="1287"/>
      <point x="-979" y="1459"/>
      <point x="-776" y="1554"/>
      <point x="-646" y="1554" type="qcurve"/>
      <point x="-508" y="1554"/>
      <point x="-312" y="1455"/>
      <point x="-218" y="1281"/>
      <point x="-232" y="1170" type="qcurve"/>
      <point x="-554" y="1170" type="line"/>
      <point x="-545" y="1229"/>
      <point x="-594" y="1304"/>
      <point x="-660" y="1304" type="qcurve"/>
      <point x="-715" y="1304"/>
      <point x="-787" y="1232"/>
      <point x="-792" y="1170" type="qcurve"/>
    </contour>
  </outline>
</glyph>
<glyph name="commaturnedabovecomb" format="2">
  <unicode hex="0312"/>
  <anchor x="-785" y="1040" name="_top"/>
  <outline>
    <contour>
      <point x="-665" y="1174" type="curve" smooth="yes"/>
      <point x="-526" y="1174"/>
      <point x="-420" y="1277"/>
      <point x="-420" y="1400" type="curve" smooth="yes"/>
      <point x="-420" y="1512"/>
      <point x="-505" y="1582"/>
      <point x="-620" y="1592" type="curve"/>
      <point x="-563" y="1678"/>
      <point x="-431" y="1742"/>
      <point x="-274" y="1806" type="curve"/>
      <point x="-340" y="1961" type="line"/>
      <point x="-609" y="1837"/>
      <point x="-906" y="1653"/>
      <point x="-906" y="1401" type="curve" smooth="yes"/>
      <point x="-906" y="1259"/>
      <point x="-807" y="1174"/>
    </contour>
  </outline>
</glyph>
<glyph name="horncomb" format="2">
  <unicode hex="031B"/>
  <anchor x="-242" y="1040" name="horn"/>
  <outline>
    <contour>
      <point x="-176" y="752" type="qcurve"/>
      <point x="-243" y="752"/>
      <point x="-376" y="788"/>
      <point x="-510" y="834"/>
      <point x="-645" y="865"/>
      <point x="-716" y="860" type="qcurve"/>
      <point x="-674" y="1070" type="line"/>
      <point x="-559" y="1070"/>
      <point x="-393" y="1024"/>
      <point x="-273" y="978"/>
      <point x="-226" y="978" type="qcurve"/>
      <point x="-185" y="978"/>
      <point x="-144" y="1021"/>
      <point x="-144" y="1052" type="qcurve"/>
      <point x="-144" y="1079"/>
      <point x="-170" y="1144"/>
      <point x="-200" y="1180" type="qcurve"/>
      <point x="32" y="1296" type="line"/>
      <point x="86" y="1239"/>
      <point x="138" y="1108"/>
      <point x="138" y="1046" type="qcurve"/>
      <point x="138" y="965"/>
      <point x="57" y="831"/>
      <point x="-85" y="752"/>
    </contour>
  </outline>
</glyph>
<glyph name="dotbelowcomb" format="2">
  <unicode hex="0323"/>
  <anchor x="-564" y="0" name="bottom"/>
  <outline>
    <contour>
      <point x="-654" y="-558" type="qcurve"/>
      <point x="-744" y="-558"/>
      <point x="-870" y="-458"/>
      <point x="-870" y="-370" type="qcurve"/>
      <point x="-870" y="-262"/>
      <point x="-721" y="-134"/>
      <point x="-622" y="-134" type="qcurve"/>
      <point x="-530" y="-134"/>
      <point x="-406" y="-234"/>
      <point x="-406" y="-324" type="qcurve"/>
      <point x="-406" y="-426"/>
      <point x="-550" y="-558"/>
    </contour>
  </outline>
</glyph>
<glyph name="dieresisbelowcomb" format="2">
  <unicode hex="0324"/>
  <anchor x="-568" y="0" name="bottom"/>
  <outline>
    <contour>
      <point x="-934" y="-538" type="qcurve"/>
      <point x="-1012" y="-538"/>
      <point x="-1126" y="-440"/>
      <point x="-1126" y="-358" type="qcurve"/>
      <point x="-1126" y="-287"/>
      <point x="-1057" y="-185"/>
      <point x="-951" y="-130"/>
      <point x="-894" y="-130" type="qcurve"/>
      <point x="-816" y="-130"/>
      <point x="-702" y="-227"/>
      <point x="-702" y="-310" type="qcurve"/>
      <point x="-702" y="-381"/>
      <point x="-770" y="-483"/>
      <point x="-877" y="-538"/>
    </contour>
    <contour>
      <point x="-386" y="-538" type="qcurve"/>
      <point x="-464" y="-538"/>
      <point x="-578" y="-440"/>
      <point x="-578" y="-358" type="qcurve"/>
      <point x="-578" y="-287"/>
      <point x="-509" y="-185"/>
      <point x="-403" y="-130"/>
      <point x="-346" y="-130" type="qcurve"/>
      <point x="-268" y="-130"/>
      <point x="-154" y="-227"/>
      <point x="-154" y="-310" type="qcurve"/>
      <point x="-154" y="-381"/>
      <point x="-222" y="-483"/>
      <point x="-329" y="-538"/>
    </contour>
  </outline>
</glyph>
<glyph name="commaaccentcomb" format="2">
  <unicode hex="0326"/>
  <anchor x="-544" y="0" name="bottom"/>
  <outline>
    <contour>
      <point x="-879" y="-891" type="qcurve"/>
      <point x="-957" y="-740" type="line"/>
      <point x="-853" y="-700"/>
      <point x="-687" y="-602"/>
      <point x="-646" y="-542" type="qcurve"/>
      <point x="-705" y="-540"/>
      <point x="-802" y="-493"/>
      <point x="-859" y="-410"/>
      <point x="-859" y="-353" type="qcurve"/>
      <point x="-859" y="-260"/>
      <point x="-726" y="-134"/>
      <point x="-626" y="-134" type="qcurve"/>
      <point x="-520" y="-134"/>
      <point x="-386" y="-261"/>
      <point x="-386" y="-368" type="qcurve"/>
      <point x="-386" y="-480"/>
      <point x="-523" y="-669"/>
      <point x="-748" y="-827"/>
    </contour>
  </outline>
</glyph>
<glyph name="cedillacomb" format="2">
  <unicode hex="0327"/>
  <anchor x="-589" y="0" name="_bottom"/>
  <outline>
    <contour>
      <point x="-709" y="-450" type="curve" smooth="yes"/>
      <point x="-489" y="-450"/>
      <point x="-361" y="-358"/>
      <point x="-361" y="-230" type="curve" smooth="yes"/>
      <point x="-361" y="-164"/>
      <point x="-418" y="-96"/>
      <point x="-551" y="-65" type="curve"/>
      <point x="-481" y="40" type="line"/>
      <point x="-685" y="40" type="line"/>
      <point x="-797" y="-72" type="line"/>
      <point x="-759" y="-218" type="line"/>
      <point x="-682" y="-203"/>
      <point x="-636" y="-224"/>
      <point x="-636" y="-242" type="curve" smooth="yes"/>
      <point x="-636" y="-258"/>
      <point x="-655" y="-268"/>
      <point x="-704" y="-268" type="curve" smooth="yes"/>
      <point x="-792" y="-268"/>
      <point x="-861" y="-243"/>
      <point x="-894" y="-199" type="curve"/>
      <point x="-1013" y="-352" type="line"/>
      <point x="-929" y="-419"/>
      <point x="-795" y="-450"/>
    </contour>
  </outline>
</glyph>
<glyph name="ogonekcomb" format="2">
  <unicode hex="0328"/>
  <outline>
    <contour>
      <point x="-694" y="-449" type="qcurve"/>
      <point x="-800" y="-449"/>
      <point x="-932" y="-332"/>
      <point x="-932" y="-235" type="qcurve"/>
      <point x="-932" y="-126"/>
      <point x="-786" y="24"/>
      <point x="-552" y="107"/>
      <point x="-421" y="115" type="qcurve"/>
      <point x="-421" y="0" type="line"/>
      <point x="-484" y="-3"/>
      <point x="-611" y="-29"/>
      <point x="-696" y="-95"/>
      <point x="-696" y="-158" type="qcurve"/>
      <point x="-696" y="-193"/>
      <point x="-651" y="-229"/>
      <point x="-618" y="-229" type="qcurve"/>
      <point x="-594" y="-229"/>
      <point x="-533" y="-211"/>
      <point x="-509" y="-192" type="qcurve"/>
      <point x="-467" y="-389" type="line"/>
      <point x="-525" y="-422"/>
      <point x="-641" y="-449"/>
    </contour>
  </outline>
</glyph>
<glyph name="brevebelowcomb" format="2">
  <unicode hex="032E"/>
  <anchor x="-532" y="0" name="_bottom"/>
  <outline>
    <contour>
      <point x="-626" y="-514" type="curve" smooth="yes"/>
      <point x="-376" y="-514"/>
      <point x="-177" y="-362"/>
      <point x="-144" y="-130" type="curve"/>
      <point x="-464" y="-130" type="line"/>
      <point x="-475" y="-212"/>
      <point x="-531" y="-264"/>
      <point x="-604" y="-264" type="curve" smooth="yes"/>
      <point x="-686" y="-264"/>
      <point x="-723" y="-209"/>
      <point x="-703" y="-130" type="curve"/>
      <point x="-1026" y="-130" type="line"/>
      <point x="-1068" y="-373"/>
      <point x="-887" y="-514"/>
    </contour>
  </outline>
</glyph>
<glyph name="macronbelowcomb" format="2">
  <unicode hex="0331"/>
  <anchor x="-746" y="0" name="bottom"/>
  <outline>
    <contour>
      <point x="-1224" y="-422" type="line"/>
      <point x="-1176" y="-190" type="line"/>
      <point x="-400" y="-190" type="line"/>
      <point x="-448" y="-422" type="line"/>
    </contour>
  </outline>
</glyph>
<glyph name="strokeshortcomb" format="2">
  <unicode hex="0335"/>
  <anchor x="-638" y="534" name="strokeshort"/>
  <outline>
    <contour>
      <point x="-1060" y="428" type="line"/>
      <point x="-1014" y="640" type="line"/>
      <point x="-214" y="640" type="line"/>
      <point x="-260" y="428" type="line"/>
    </contour>
  </outline>
</glyph>
<glyph name="lowernumeral-greek" format="2">
  <advance width="514"/>
  <unicode hex="0375"/>
  <outline>
    <contour>
      <point x="47" y="-420" type="line"/>
      <point x="370" y="278" type="line"/>
      <point x="88" y="278" type="line"/>
      <point x="-313" y="-420" type="line"/>
    </contour>
  </outline>
</glyph>
<glyph name="tonos" format="2">
  <advance width="559"/>
  <unicode hex="0384"/>
  <outline>
    <contour>
      <point x="180" y="1170" type="line"/>
      <point x="400" y="1544" type="line"/>
      <point x="796" y="1544" type="line"/>
      <point x="540" y="1170" type="line"/>
    </contour>
  </outline>
</glyph>
<glyph name="dieresistonos" format="2">
  <unicode hex="0385"/>
  <outline>
    <contour>
      <point x="-722" y="1330" type="line"/>
      <point x="-596" y="1704" type="line"/>
      <point x="-280" y="1704" type="line"/>
      <point x="-482" y="1330" type="line"/>
    </contour>
    <contour>
      <point x="-941" y="1189" type="qcurve"/>
      <point x="-1013" y="1189"/>
      <point x="-1101" y="1277"/>
      <point x="-1101" y="1352" type="qcurve"/>
      <point x="-1101" y="1449"/>
      <point x="-986" y="1559"/>
      <point x="-907" y="1559" type="qcurve"/>
      <point x="-834" y="1559"/>
      <point x="-747" y="1471"/>
      <point x="-747" y="1396" type="qcurve"/>
      <point x="-747" y="1299"/>
      <point x="-862" y="1189"/>
    </contour>
    <contour>
      <point x="-229" y="1189" type="qcurve"/>
      <point x="-302" y="1189"/>
      <point x="-389" y="1277"/>
      <point x="-389" y="1352" type="qcurve"/>
      <point x="-389" y="1449"/>
      <point x="-274" y="1559"/>
      <point x="-195" y="1559" type="qcurve"/>
      <point x="-123" y="1559"/>
      <point x="-35" y="1471"/>
      <point x="-35" y="1396" type="qcurve"/>
      <point x="-35" y="1299"/>
      <point x="-150" y="1189"/>
    </contour>
  </outline>
</glyph>
<glyph name="Delta" format="2">
  <advance width="1448"/>
  <unicode hex="0394"/>
  <outline>
    <contour>
      <point x="1252" y="0" type="line"/>
      <point x="1340" y="336" type="line"/>
      <point x="1196" y="1400" type="line"/>
      <point x="726" y="1400" type="line"/>
      <point x="6" y="336" type="line"/>
      <point x="-82" y="0" type="line"/>
    </contour>
    <contour>
      <point x="853" y="946" type="line"/>
      <point x="928" y="368" type="line"/>
      <point x="468" y="368" type="line"/>
    </contour>
  </outline>
</glyph>
<glyph name="Theta" format="2">
  <advance width="1667"/>
  <unicode hex="0398"/>
  <outline>
    <contour>
      <point x="787" y="-30" type="curve" smooth="yes"/>
      <point x="1254" y="-30"/>
      <point x="1659" y="358"/>
      <point x="1659" y="828" type="curve" smooth="yes"/>
      <point x="1659" y="1171"/>
      <point x="1407" y="1430"/>
      <point x="996" y="1430" type="curve" smooth="yes"/>
      <point x="530" y="1430"/>
      <point x="126" y="1044"/>
      <point x="126" y="566" type="curve" smooth="yes"/>
      <point x="126" y="220"/>
      <point x="380" y="-30"/>
    </contour>
    <contour>
      <point x="1034" y="556" type="line"/>
      <point x="1124" y="836" type="line"/>
      <point x="724" y="836" type="line"/>
      <point x="634" y="556" type="line"/>
    </contour>
    <contour>
      <point x="840" y="353" type="curve" smooth="yes"/>
      <point x="673" y="353"/>
      <point x="559" y="454"/>
      <point x="559" y="613" type="curve" smooth="yes"/>
      <point x="559" y="843"/>
      <point x="723" y="1048"/>
      <point x="946" y="1048" type="curve" smooth="yes"/>
      <point x="1113" y="1048"/>
      <point x="1227" y="946"/>
      <point x="1227" y="788" type="curve" smooth="yes"/>
      <point x="1227" y="557"/>
      <point x="1063" y="353"/>
    </contour>
  </outline>
</glyph>
<glyph name="Lambda" format="2">
  <advance width="1467"/>
  <unicode hex="039B"/>
  <outline>
    <contour>
      <point x="331" y="0" type="line"/>
      <point x="844" y="890" type="line"/>
      <point x="883" y="0" type="line"/>
      <point x="1323" y="0" type="line"/>
      <point x="1203" y="1400" type="line"/>
      <point x="733" y="1400" type="line"/>
      <point x="-137" y="0" type="line"/>
    </contour>
  </outline>
</glyph>
<glyph name="Xi" format="2">
  <advance width="1290"/>
  <unicode hex="039E"/>
  <outline>
    <contour>
      <point x="1018" y="0" type="line"/>
      <point x="1133" y="352" type="line"/>
      <point x="43" y="352" type="line"/>
      <point x="-72" y="0" type="line"/>
    </contour>
    <contour>
      <point x="1059" y="548" type="line"/>
      <point x="1165" y="866" type="line"/>
      <point x="355" y="866" type="line"/>
      <point x="249" y="548" type="line"/>
    </contour>
    <contour>
      <point x="1344" y="1052" type="line"/>
      <point x="1460" y="1400" type="line"/>
      <point x="410" y="1400" type="line"/>
      <point x="294" y="1052" type="line"/>
    </contour>
  </outline>
</glyph>
<glyph name="Sigma" format="2">
  <advance width="1195"/>
  <unicode hex="03A3"/>
  <outline>
    <contour>
      <point x="953" y="0" type="line"/>
      <point x="1069" y="356" type="line"/>
      <point x="538" y="356" type="line"/>
      <point x="912" y="721" type="line"/>
      <point x="715" y="1044" type="line"/>
      <point x="1284" y="1044" type="line"/>
      <point x="1400" y="1400" type="line"/>
      <point x="372" y="1400" type="line"/>
      <point x="265" y="1074" type="line"/>
      <point x="466" y="710" type="line"/>
      <point x="-3" y="328" type="line"/>
      <point x="-109" y="0" type="line"/>
    </contour>
  </outline>
</glyph>
<glyph name="Psi" format="2">
  <advance width="1850"/>
  <unicode hex="03A8"/>
  <outline>
    <contour>
      <point x="987" y="0" type="line"/>
      <point x="1053" y="243" type="line"/>
      <point x="1475" y="266"/>
      <point x="1745" y="481"/>
      <point x="1852" y="869" type="curve"/>
      <point x="1895" y="1037"/>
      <point x="1909" y="1257"/>
      <point x="1886" y="1420" type="curve"/>
      <point x="1489" y="1370" type="line"/>
      <point x="1507" y="1221"/>
      <point x="1503" y="1058"/>
      <point x="1468" y="931" type="curve" smooth="yes"/>
      <point x="1421" y="761"/>
      <point x="1323" y="646"/>
      <point x="1148" y="602" type="curve"/>
      <point x="1359" y="1400" type="line"/>
      <point x="959" y="1400" type="line"/>
      <point x="751" y="617" type="line"/>
      <point x="666" y="657"/>
      <point x="601" y="719"/>
      <point x="601" y="851" type="curve" smooth="yes"/>
      <point x="601" y="986"/>
      <point x="690" y="1251"/>
      <point x="794" y="1357" type="curve"/>
      <point x="428" y="1420" type="line"/>
      <point x="296" y="1300"/>
      <point x="206" y="996"/>
      <point x="206" y="797" type="curve" smooth="yes"/>
      <point x="206" y="478"/>
      <point x="373" y="332"/>
      <point x="658" y="269" type="curve"/>
      <point x="587" y="0" type="line"/>
    </contour>
  </outline>
</glyph>
<glyph name="Omega" format="2">
  <advance width="1632"/>
  <unicode hex="03A9"/>
  <anchor x="656" y="0" name="bottom"/>
  <outline>
    <contour>
      <point x="-56" y="0" type="line"/>
      <point x="18" y="350" type="line"/>
      <point x="352" y="350" type="line"/>
      <point x="296" y="376"/>
      <point x="188" y="487"/>
      <point x="118" y="657"/>
      <point x="118" y="770" type="qcurve"/>
      <point x="118" y="922"/>
      <point x="241" y="1166"/>
      <point x="462" y="1338"/>
      <point x="759" y="1430"/>
      <point x="932" y="1430" type="qcurve"/>
      <point x="1130" y="1430"/>
      <point x="1443" y="1295"/>
      <point x="1624" y="1050"/>
      <point x="1624" y="884" type="qcurve"/>
      <point x="1624" y="760"/>
      <point x="1531" y="558"/>
      <point x="1355" y="403"/>
      <point x="1232" y="350" type="qcurve"/>
      <point x="1546" y="350" type="line"/>
      <point x="1472" y="0" type="line"/>
      <point x="788" y="0" type="line"/>
      <point x="862" y="344" type="line"/>
      <point x="968" y="388"/>
      <point x="1120" y="509"/>
      <point x="1202" y="664"/>
      <point x="1202" y="758" type="qcurve"/>
      <point x="1202" y="846"/>
      <point x="1130" y="978"/>
      <point x="994" y="1052"/>
      <point x="898" y="1052" type="qcurve"/>
      <point x="814" y="1052"/>
      <point x="681" y="995"/>
      <point x="589" y="893"/>
      <point x="540" y="756"/>
      <point x="540" y="676" type="qcurve"/>
      <point x="540" y="605"/>
      <point x="579" y="484"/>
      <point x="660" y="384"/>
      <point x="722" y="344" type="qcurve"/>
      <point x="648" y="0" type="line"/>
    </contour>
  </outline>
</glyph>
<glyph name="alpha" format="2">
  <advance width="1410"/>
  <unicode hex="03B1"/>
  <anchor x="845" y="1040" name="top"/>
  <outline>
    <contour>
      <point x="470" y="-30" type="qcurve"/>
      <point x="335" y="-30"/>
      <point x="148" y="92"/>
      <point x="50" y="306"/>
      <point x="50" y="445" type="qcurve"/>
      <point x="50" y="569"/>
      <point x="132" y="794"/>
      <point x="282" y="969"/>
      <point x="489" y="1070"/>
      <point x="614" y="1070" type="qcurve"/>
      <point x="684" y="1070"/>
      <point x="816" y="1032"/>
      <point x="931" y="953"/>
      <point x="977" y="890" type="qcurve"/>
      <point x="1033" y="1040" type="line"/>
      <point x="1399" y="1040" type="line"/>
      <point x="1189" y="520" type="line"/>
      <point x="1167" y="465"/>
      <point x="1144" y="377"/>
      <point x="1154" y="320"/>
      <point x="1210" y="303"/>
      <point x="1265" y="318" type="qcurve"/>
      <point x="1265" y="17" type="line"/>
      <point x="1174" y="-27"/>
      <point x="983" y="-32"/>
      <point x="846" y="55"/>
      <point x="835" y="150" type="qcurve"/>
      <point x="775" y="60"/>
      <point x="580" y="-30"/>
    </contour>
    <contour>
      <point x="575" y="310" type="qcurve"/>
      <point x="618" y="310"/>
      <point x="704" y="355"/>
      <point x="771" y="446"/>
      <point x="785" y="514" type="qcurve"/>
      <point x="785" y="551"/>
      <point x="774" y="617"/>
      <point x="751" y="670"/>
      <point x="715" y="709"/>
      <point x="666" y="730"/>
      <point x="635" y="730" type="qcurve"/>
      <point x="571" y="730"/>
      <point x="481" y="649"/>
      <point x="433" y="530"/>
      <point x="433" y="472" type="qcurve"/>
      <point x="433" y="390"/>
      <point x="518" y="310"/>
    </contour>
  </outline>
</glyph>
<glyph name="beta" format="2">
  <advance width="1331"/>
  <unicode hex="03B2"/>
  <outline>
    <contour>
      <point x="-71" y="-420" type="line"/>
      <point x="217" y="936" type="line"/>
      <point x="237" y="1027"/>
      <point x="317" y="1213"/>
      <point x="458" y="1370"/>
      <point x="677" y="1466"/>
      <point x="835" y="1466" type="qcurve"/>
      <point x="992" y="1466"/>
      <point x="1210" y="1377"/>
      <point x="1323" y="1212"/>
      <point x="1323" y="1098" type="qcurve"/>
      <point x="1323" y="985"/>
      <point x="1193" y="821"/>
      <point x="1065" y="764" type="qcurve"/>
      <point x="1120" y="736"/>
      <point x="1205" y="653"/>
      <point x="1253" y="533"/>
      <point x="1253" y="450" type="qcurve"/>
      <point x="1253" y="306"/>
      <point x="1131" y="93"/>
      <point x="903" y="-24"/>
      <point x="745" y="-24" type="qcurve"/>
      <point x="687" y="-24"/>
      <point x="568" y="-5"/>
      <point x="466" y="40"/>
      <point x="433" y="78" type="qcurve"/>
      <point x="329" y="-420" type="line"/>
    </contour>
    <contour>
      <point x="687" y="318" type="qcurve"/>
      <point x="774" y="318"/>
      <point x="877" y="384"/>
      <point x="877" y="454" type="qcurve"/>
      <point x="877" y="510"/>
      <point x="809" y="580"/>
      <point x="743" y="580" type="qcurve"/>
      <point x="657" y="580" type="line"/>
      <point x="723" y="892" type="line"/>
      <point x="809" y="892" type="line"/>
      <point x="854" y="892"/>
      <point x="917" y="923"/>
      <point x="949" y="980"/>
      <point x="949" y="1020" type="qcurve"/>
      <point x="949" y="1083"/>
      <point x="874" y="1142"/>
      <point x="811" y="1142" type="qcurve"/>
      <point x="747" y="1142"/>
      <point x="642" y="1066"/>
      <point x="619" y="958" type="qcurve"/>
      <point x="521" y="490" type="line"/>
      <point x="510" y="436"/>
      <point x="540" y="359"/>
      <point x="621" y="318"/>
    </contour>
  </outline>
</glyph>
<glyph name="gamma" format="2">
  <advance width="1241"/>
  <unicode hex="03B3"/>
  <outline>
    <contour>
      <point x="479" y="-420" type="line"/>
      <point x="614" y="-20" type="line"/>
      <point x="942" y="294"/>
      <point x="1205" y="653"/>
      <point x="1358" y="995" type="curve"/>
      <point x="956" y="1062" type="line"/>
      <point x="846" y="821"/>
      <point x="674" y="519"/>
      <point x="457" y="276" type="curve"/>
      <point x="541" y="190" type="line"/>
      <point x="589" y="1040" type="line"/>
      <point x="179" y="1040" type="line"/>
      <point x="204" y="-52" type="line"/>
      <point x="79" y="-420" type="line"/>
    </contour>
  </outline>
</glyph>
